<?xml version="1.0" encoding="utf-8"?>
<!-- Generator: Adobe Illustrator 21.0.0, SVG Export Plug-In . SVG Version: 6.00 Build 0)  -->
<svg version="1.1"
	 id="svg309" inkscape:version="1.0.2 (e86c870879, 2021-01-15)" sodipodi:docname="brring-to-front.svg" xmlns:cc="http://creativecommons.org/ns#" xmlns:dc="http://purl.org/dc/elements/1.1/" xmlns:inkscape="http://www.inkscape.org/namespaces/inkscape" xmlns:rdf="http://www.w3.org/1999/02/22-rdf-syntax-ns#" xmlns:sodipodi="http://sodipodi.sourceforge.net/DTD/sodipodi-0.dtd" xmlns:svg="http://www.w3.org/2000/svg"
	 xmlns="http://www.w3.org/2000/svg" xmlns:xlink="http://www.w3.org/1999/xlink" x="0px" y="0px" viewBox="0 0 15.3 15.6"
	 style="enable-background:new 0 0 15.3 15.6;" xml:space="preserve">
<sodipodi:namedview  bordercolor="#666666" borderopacity="1.0" fit-margin-bottom="0" fit-margin-left="0" fit-margin-right="0" fit-margin-top="0" id="base" inkscape:current-layer="layer1" inkscape:cx="-71.010477" inkscape:cy="39.522393" inkscape:document-rotation="0" inkscape:document-units="mm" inkscape:pageopacity="0.0" inkscape:pageshadow="2" inkscape:window-height="1029" inkscape:window-maximized="1" inkscape:window-width="1920" inkscape:window-x="1920" inkscape:window-y="28" inkscape:zoom="2.7359919" pagecolor="#ffffff" showgrid="false">
	</sodipodi:namedview>
<g>
	<path d="M1.6,3.5V0h1.7v3.5H1.6z M1.6,15.6v-3.5h1.7v3.5H1.6z M3.3,5.2V3.5H5v1.7H3.3z M3.3,12.2v-1.7H5v1.7H3.3z M5,7V5.2h1.7V7H5
		z M5,10.5V8.7h1.7v1.7H5z M6.7,8.7V7h1.7v1.7H6.7z M8.4,7V5.2h1.7V7H8.4z M8.4,10.5V8.7h1.7v1.7H8.4z M10.2,5.2V3.5h1.7v1.7H10.2z
		 M10.2,12.2v-1.7h1.7v1.7H10.2z M11.9,3.5V0h1.7v3.5H11.9z M11.9,15.6v-3.5h1.7v3.5H11.9z"/>
</g>
</svg>
