<?xml version="1.0" encoding="utf-8"?>
<!-- Generator: Adobe Illustrator 21.0.0, SVG Export Plug-In . SVG Version: 6.00 Build 0)  -->
<svg version="1.1"
	 id="svg309" inkscape:version="1.0.2 (e86c870879, 2021-01-15)" sodipodi:docname="brring-to-front.svg" xmlns:cc="http://creativecommons.org/ns#" xmlns:dc="http://purl.org/dc/elements/1.1/" xmlns:inkscape="http://www.inkscape.org/namespaces/inkscape" xmlns:rdf="http://www.w3.org/1999/02/22-rdf-syntax-ns#" xmlns:sodipodi="http://sodipodi.sourceforge.net/DTD/sodipodi-0.dtd" xmlns:svg="http://www.w3.org/2000/svg"
	 xmlns="http://www.w3.org/2000/svg" xmlns:xlink="http://www.w3.org/1999/xlink" x="0px" y="0px" viewBox="0 0 21.2 21"
	 style="enable-background:new 0 0 21.2 21;" xml:space="preserve">
<style type="text/css">
	.st0{fill:#017100;}
</style>
<sodipodi:namedview  bordercolor="#666666" borderopacity="1.0" fit-margin-bottom="0" fit-margin-left="0" fit-margin-right="0" fit-margin-top="0" id="base" inkscape:current-layer="layer1" inkscape:cx="-71.010477" inkscape:cy="39.522393" inkscape:document-rotation="0" inkscape:document-units="mm" inkscape:pageopacity="0.0" inkscape:pageshadow="2" inkscape:window-height="1029" inkscape:window-maximized="1" inkscape:window-width="1920" inkscape:window-x="1920" inkscape:window-y="28" inkscape:zoom="2.7359919" pagecolor="#ffffff" showgrid="false">
	</sodipodi:namedview>
<g>
	<g>
		<g>
			<path class="st0" d="M7.1,2.4c0-0.8,0-1.6,0-2.4c2.4,0,4.7,0,7.1,0c0,0.8,0,1.6,0,2.4l0,0C11.8,2.4,9.4,2.4,7.1,2.4L7.1,2.4z"/>
			<path class="st0" d="M2.5,14c-0.8,0-1.6,0-2.4,0c0-2.4,0-4.7,0-7.1c0.8,0,1.6,0,2.4,0l0,0C2.5,9.4,2.5,11.8,2.5,14L2.5,14z"/>
			<path class="st0" d="M18.8,7.1c0.8,0,1.6,0,2.4,0c0,2.4,0,4.7,0,7.1c-0.8,0-1.6,0-2.4,0l0,0C18.8,11.8,18.8,9.4,18.8,7.1
				L18.8,7.1z"/>
			<path class="st0" d="M14.1,18.7c0,0.8,0,1.6,0,2.4c-2.4,0-4.7,0-7.1,0c0-0.8,0-1.6,0-2.4l0,0C9.4,18.7,11.8,18.7,14.1,18.7
				L14.1,18.7z"/>
			<path class="st0" d="M2.5,7.1c0-1.3,0-2.8,0-4.1c0-0.1,0-0.2,0-0.6c0.1,0,0.1,0,0.1,0c1.3,0,2.9,0,4.3,0h0.1l0,0
				c0,0.8,0,1.6,0,2.4c-0.8,0-1.6,0-2.4,0c0,0.8,0,1.6,0,2.4C3.9,7.1,3.1,7.1,2.5,7.1L2.5,7.1z"/>
			<path class="st0" d="M14.1,2.4c1.2,0,2.7,0,3.9,0c0.2,0,0.6,0,0.8,0c0,1.6,0,3,0,4.7l0,0c-0.8,0-1.6,0-2.4,0c0-0.8,0-1.6,0-2.4
				c-0.8,0-1.6,0-2.4,0C14.1,3.9,14.1,3.1,14.1,2.4L14.1,2.4z"/>
			<path class="st0" d="M7.1,18.7c-1.3,0-2.8,0-4,0c-0.1,0-0.4,0-0.6,0c0-0.1,0-0.2,0-0.4c0-1.3,0-2.8,0-4.1V14l0,0
				c0.8,0,1.6,0,2.4,0c0,0.8,0,1.6,0,2.4c0.8,0,1.6,0,2.4,0C7.1,17.2,7.1,17.9,7.1,18.7L7.1,18.7z"/>
			<path class="st0" d="M18.8,14c0,1.6,0,3,0,4.6l0,0l0,0c-1.6,0-3,0-4.6,0l0,0c0-0.8,0-1.6,0-2.4c0.8,0,1.6,0,2.4,0
				c0-0.8,0-1.6,0-2.4C17.2,14,18,14,18.8,14L18.8,14z"/>
		</g>
	</g>
	<g>
		<rect x="6.7" y="7.8" class="st0" width="1.3" height="5.4"/>
		<polygon class="st0" points="13.2,7.1 8.1,7.1 8.1,7.8 13.2,7.8 13.2,13.2 14.6,13.2 14.6,7.8 13.2,7.8 		"/>
		<rect x="8.1" y="13.2" class="st0" width="5.1" height="0.8"/>
	</g>
</g>
</svg>
