<?xml version="1.0" encoding="utf-8"?>
<!-- Generator: Adobe Illustrator 21.0.0, SVG Export Plug-In . SVG Version: 6.00 Build 0)  -->
<svg version="1.1" id="Layer_1" xmlns="http://www.w3.org/2000/svg" xmlns:xlink="http://www.w3.org/1999/xlink" x="0px" y="0px"
	 viewBox="0 0 24 24" style="enable-background:new 0 0 24 24;" xml:space="preserve">
<style type="text/css">
	.st0{fill:none;}
	.st1{fill:#017100;}
</style>
<title></title>
<g id="icomoon-ignore">
</g>
<line class="st0" x1="12" y1="12" x2="12" y2="12.1"/>
<g>
	<rect x="1.5" y="2.4" class="st1" width="1.5" height="1.6"/>
	<rect x="11.4" y="2.6" class="st1" width="1.5" height="4.6"/>
	
		<rect x="1.5" y="5.6" transform="matrix(1 -8.701187e-03 8.701187e-03 1 -5.577139e-02 1.944721e-02)" class="st1" width="1.5" height="1.6"/>
	<rect x="0" y="4.1" class="st1" width="1.5" height="1.6"/>
	<rect x="21.1" y="5.6" class="st1" width="1.5" height="1.6"/>
	
		<rect x="21.1" y="2.5" transform="matrix(1 -8.701187e-03 8.701187e-03 1 -2.782707e-02 0.1903)" class="st1" width="1.5" height="1.6"/>
	<rect x="22.6" y="4.1" class="st1" width="1.5" height="1.6"/>
	<rect x="2.9" y="4.1" class="st1" width="18.3" height="1.6"/>
	<rect x="1.5" y="9.6" class="st1" width="1.5" height="1.6"/>
	<rect x="17.9" y="9.9" class="st1" width="1.5" height="4.6"/>
	
		<rect x="1.5" y="12.9" transform="matrix(1 -8.701187e-03 8.701187e-03 1 -0.1189 1.972151e-02)" class="st1" width="1.5" height="1.6"/>
	<rect x="0" y="11.3" class="st1" width="1.5" height="1.6"/>
	<rect x="21.1" y="12.9" class="st1" width="1.5" height="1.6"/>
	
		<rect x="21.1" y="9.8" transform="matrix(1 -8.701187e-03 8.701187e-03 1 -9.096330e-02 0.1906)" class="st1" width="1.5" height="1.6"/>
	<rect x="22.6" y="11.3" class="st1" width="1.5" height="1.6"/>
	<rect x="2.9" y="11.3" class="st1" width="18.3" height="1.6"/>
	<rect x="1.5" y="16.9" class="st1" width="1.5" height="1.6"/>
	<rect x="5.5" y="17.1" class="st1" width="1.5" height="4.6"/>
	
		<rect x="1.5" y="20" transform="matrix(1 -8.701187e-03 8.701187e-03 1 -0.1811 1.999090e-02)" class="st1" width="1.5" height="1.6"/>
	<rect x="0" y="18.5" class="st1" width="1.5" height="1.6"/>
	<rect x="21.1" y="20" class="st1" width="1.5" height="1.6"/>
	
		<rect x="21.1" y="16.9" transform="matrix(1 -8.701187e-03 8.701187e-03 1 -0.1531 0.1908)" class="st1" width="1.5" height="1.6"/>
	<rect x="22.6" y="18.5" class="st1" width="1.5" height="1.6"/>
	<rect x="2.9" y="18.5" class="st1" width="18.3" height="1.6"/>
</g>
</svg>
