<?xml version="1.0" encoding="UTF-8" standalone="no"?>
<svg
   xmlns:dc="http://purl.org/dc/elements/1.1/"
   xmlns:cc="http://creativecommons.org/ns#"
   xmlns:rdf="http://www.w3.org/1999/02/22-rdf-syntax-ns#"
   xmlns:svg="http://www.w3.org/2000/svg"
   xmlns="http://www.w3.org/2000/svg"
   xmlns:sodipodi="http://sodipodi.sourceforge.net/DTD/sodipodi-0.dtd"
   xmlns:inkscape="http://www.inkscape.org/namespaces/inkscape"
   sodipodi:docname="draw.svg"
   inkscape:version="1.0 (4035a4fb49, 2020-05-01)"
   id="svg309"
   version="1.1"
   viewBox="0 0 9.1016671 9.0924878"
   height="9.0924873mm"
   width="9.1016665mm">
  <defs
     id="defs303" />
  <sodipodi:namedview
     inkscape:window-maximized="0"
     inkscape:window-y="28"
     inkscape:window-x="1960"
     inkscape:window-height="1002"
     inkscape:window-width="1215"
     fit-margin-bottom="0"
     fit-margin-right="0"
     fit-margin-left="0"
     fit-margin-top="0"
     showgrid="false"
     inkscape:document-rotation="0"
     inkscape:current-layer="layer1"
     inkscape:document-units="mm"
     inkscape:cy="29.39439"
     inkscape:cx="19.655239"
     inkscape:zoom="11.2"
     inkscape:pageshadow="2"
     inkscape:pageopacity="0.0"
     borderopacity="1.0"
     bordercolor="#666666"
     pagecolor="#ffffff"
     id="base" />
  <metadata
     id="metadata306">
    <rdf:RDF>
      <cc:Work
         rdf:about="">
        <dc:format>image/svg+xml</dc:format>
        <dc:type
           rdf:resource="http://purl.org/dc/dcmitype/StillImage" />
        <dc:title></dc:title>
      </cc:Work>
    </rdf:RDF>
  </metadata>
  <g
     transform="translate(-93.225056,-101.04946)"
     id="layer1"
     inkscape:groupmode="layer"
     inkscape:label="Calque 1">
    <g
       style="fill:#006000;fill-opacity:1"
       transform="matrix(0.26458333,0,0,0.26458333,86.463488,7.5364574)"
       id="g152">
      <path
         style="fill:#006000;fill-opacity:1"
         id="path116"
         d="m 44.5,360.1 c 0,-0.1 0,-0.2 0,-0.3 0,-0.6 -0.2,-1.3 0.1,-1.7 0.3,-0.4 1.1,-0.1 1.6,-0.1 0.3,0 0.5,-0.1 0.5,-0.5 0,-0.5 -0.2,-1.2 0.1,-1.6 0.3,-0.4 1,-0.1 1.6,-0.1 0.4,0 0.6,-0.1 0.5,-0.5 0,-0.1 0,-0.2 0,-0.3 0,-0.4 -0.2,-1.1 0.1,-1.3 0.5,-0.3 1.2,-0.1 1.8,-0.1 0.3,0 0.3,0.3 0.3,0.5 0,0.5 -0.2,1.2 0.1,1.6 0.3,0.4 1,0.1 1.6,0.1 0.4,0 0.6,0.1 0.5,0.5 0,0.1 0,0.1 0,0.2 0,1.5 0,1.5 1.5,1.5 0.5,0 0.7,0.1 0.7,0.7 0,1.5 0,1.5 1.5,1.5 0.5,0 0.7,0.1 0.7,0.7 0,1.5 0,1.5 1.6,1.5 0.5,0 0.6,0.1 0.6,0.6 0,1.6 0,1.6 -1.6,1.6 -0.5,0 -0.7,0.1 -0.7,0.7 0,1.5 0,1.5 -1.6,1.5 -0.5,0 -0.6,0.2 -0.6,0.6 0,1.6 0,1.6 -1.6,1.6 -0.2,0 -0.4,0 -0.5,0 0,-0.5 0,-1.1 0,-1.6 0,-0.4 -0.1,-0.6 -0.6,-0.6 -0.5,0 -1.1,0 -1.6,0 0,-0.1 0,-0.2 0,-0.3 0,-0.6 0.2,-1.3 -0.1,-1.7 -0.3,-0.5 -1.1,-0.1 -1.7,-0.2 0,0 0,0 -0.1,0 -0.3,0 -0.4,-0.1 -0.4,-0.4 0,-0.4 0,-0.8 0,-1.2 0,-0.5 -0.1,-0.7 -0.6,-0.7 -0.5,0 -1,0 -1.6,0 0,-0.5 0,-1.1 0,-1.6 0,-0.5 -0.2,-0.6 -0.6,-0.6 -0.4,0 -1,0 -1.5,0 z"
         class="st0" />
      <path
         style="fill:#006000;fill-opacity:1"
         id="path118"
         d="m 36.5,385.7 c 0,0.6 0,1.2 0,1.8 0,0.3 -0.1,0.4 -0.4,0.4 -3.4,0 -6.8,0 -10.2,0 -0.3,0 -0.4,-0.1 -0.4,-0.4 0,-3.4 0,-6.8 0,-10.2 0,-0.3 0.1,-0.4 0.4,-0.4 0.6,0 1.2,0 1.8,0 0.7,0 1.5,0 2.2,0 0,0.6 0,1.1 0,1.7 0,0.4 0.1,0.5 0.5,0.5 0.6,0 1.1,0 1.7,0 0,0.6 0,1.2 0,1.8 0,0.3 0.1,0.4 0.4,0.4 0.6,0 1.2,0 1.8,0 0,0.6 0,1.1 0,1.7 0,0.4 0.1,0.5 0.5,0.5 0.6,0 1.1,0 1.7,0 0,0.7 0,1.4 0,2.2 z"
         class="st0" />
      <path
         style="fill:#006000;fill-opacity:1"
         id="path120"
         d="m 36.5,385.7 c 0,-0.7 0,-1.5 0,-2.2 0.7,0 1.5,0 2.2,0 v 0 c 0,0 0,0 0,0.1 -0.1,0.7 0.3,1.6 -0.1,2 -0.5,0.3 -1.4,0 -2.1,0.1 z"
         class="st0" />
      <path
         style="fill:#006000;fill-opacity:1"
         id="path122"
         d="m 40.9,381.3 c 0,0.6 0,1.2 0,1.8 0,0.3 -0.1,0.4 -0.4,0.4 -0.6,0 -1.2,0 -1.8,0 0,0 0,0 0,0 0,-0.6 0,-1.1 0,-1.7 0,-0.4 0.1,-0.5 0.5,-0.5 0.5,0 1.1,0 1.7,0 z"
         class="st0" />
      <path
         style="fill:#006000;fill-opacity:1"
         id="path124"
         d="m 43.1,379.1 c 0,0.6 0,1.2 0,1.8 0,0.3 -0.1,0.4 -0.4,0.4 -0.6,0 -1.2,0 -1.8,0 0,0 0,0 0,0 0,-0.6 0,-1.1 0,-1.7 0,-0.4 0.1,-0.5 0.5,-0.5 0.5,0 1.1,0 1.7,0 z"
         class="st0" />
      <path
         style="fill:#006000;fill-opacity:1"
         id="path126"
         d="m 45.3,376.9 c 0,0.6 0,1.2 0,1.8 0,0.3 -0.1,0.4 -0.4,0.4 -0.6,0 -1.2,0 -1.8,0 0,0 0,0 0,0 0,-0.6 0,-1.1 0,-1.7 0,-0.4 0.1,-0.5 0.5,-0.5 0.5,0 1.1,0 1.7,0 z"
         class="st0" />
      <path
         style="fill:#006000;fill-opacity:1"
         id="path128"
         d="m 47.4,374.7 c 0,0.6 0,1.2 0,1.8 0,0.3 -0.1,0.4 -0.4,0.4 -0.6,0 -1.2,0 -1.8,0 0,0 0,0 0,0 0,-0.6 0,-1.1 0,-1.7 0,-0.4 0.1,-0.5 0.5,-0.5 0.6,0 1.2,0 1.7,0 z"
         class="st0" />
      <path
         style="fill:#006000;fill-opacity:1"
         id="path130"
         d="m 29.9,376.9 c -0.7,0 -1.5,0 -2.2,0 0,-0.6 0,-1.2 0,-1.8 0,-0.3 0.1,-0.4 0.4,-0.4 0.6,0 1.2,0 1.8,0 v 0 c 0,0.7 0,1.5 0,2.2 z"
         class="st0" />
      <path
         style="fill:#006000;fill-opacity:1"
         id="path132"
         d="m 49.6,372.5 c 0,0.6 0,1.2 0,1.8 0,0.3 -0.1,0.4 -0.4,0.4 -0.6,0 -1.2,0 -1.8,0 0,0 0,0 0,0 0,-0.6 0,-1.1 0,-1.7 0,-0.4 0.1,-0.5 0.5,-0.5 0.6,0 1.1,0 1.7,0 z"
         class="st0" />
      <path
         style="fill:#006000;fill-opacity:1"
         id="path134"
         d="m 29.9,374.7 c 0,-0.6 0,-1.2 0,-1.8 0,-0.3 0.1,-0.4 0.4,-0.4 0.6,0 1.2,0 1.8,0 v 0 c 0,0.6 0,1.1 0,1.7 0,0.4 -0.1,0.5 -0.5,0.5 -0.5,0 -1.1,0 -1.7,0 z"
         class="st0" />
      <path
         style="fill:#006000;fill-opacity:1"
         id="path136"
         d="m 51.8,370.3 c 0,0.6 0,1.2 0,1.8 0,0.3 -0.1,0.4 -0.4,0.4 -0.6,0 -1.2,0 -1.8,0 0,0 0,0 0,0 0,-0.6 0,-1.1 0,-1.7 0,-0.4 0.1,-0.5 0.5,-0.5 0.6,0 1.1,0 1.7,0 z"
         class="st0" />
      <path
         style="fill:#006000;fill-opacity:1"
         id="path138"
         d="m 32.1,372.5 c 0,-0.6 0,-1.2 0,-1.8 0,-0.3 0.1,-0.4 0.4,-0.4 0.6,0 1.2,0 1.8,0 v 0 c 0,0.6 0,1.1 0,1.7 0,0.4 -0.1,0.5 -0.5,0.5 -0.5,0 -1.1,0 -1.7,0 z"
         class="st0" />
      <path
         style="fill:#006000;fill-opacity:1"
         id="path140"
         d="m 54,368.1 c 0,0.6 0,1.2 0,1.8 0,0.3 -0.1,0.4 -0.4,0.4 -0.6,0 -1.2,0 -1.8,0 0,0 0,0 0,0 0,-0.6 0,-1.1 0,-1.7 0,-0.4 0.1,-0.5 0.5,-0.5 0.6,0 1.1,0 1.7,0 z"
         class="st0" />
      <path
         style="fill:#006000;fill-opacity:1"
         id="path142"
         d="m 34.3,370.3 c 0,-0.6 0,-1.2 0,-1.8 0,-0.3 0.1,-0.4 0.4,-0.4 0.6,0 1.2,0 1.8,0 v 0 c 0,0.6 0,1.1 0,1.7 0,0.4 -0.1,0.5 -0.5,0.5 -0.6,0 -1.1,0 -1.7,0 z"
         class="st0" />
      <path
         style="fill:#006000;fill-opacity:1"
         id="path144"
         d="m 36.5,368.1 c 0,-0.6 0,-1.2 0,-1.8 0,-0.3 0.1,-0.4 0.4,-0.4 0.6,0 1.2,0 1.8,0 v 0 c 0,0.6 0,1.1 0,1.7 0,0.4 -0.1,0.5 -0.5,0.5 -0.6,0 -1.1,0 -1.7,0 z"
         class="st0" />
      <path
         style="fill:#006000;fill-opacity:1"
         id="path146"
         d="m 38.7,365.9 c 0,-0.6 0,-1.2 0,-1.8 0,-0.3 0.1,-0.4 0.4,-0.4 0.6,0 1.2,0 1.8,0 v 0 c 0,0.6 0,1.1 0,1.7 0,0.4 -0.1,0.5 -0.5,0.5 -0.6,0 -1.1,0 -1.7,0 z"
         class="st0" />
      <path
         style="fill:#006000;fill-opacity:1"
         id="path148"
         d="m 40.9,363.7 c 0,-0.6 0,-1.2 0,-1.8 0,-0.3 0.1,-0.4 0.4,-0.4 0.6,0 1.2,0 1.8,0 v 0 c 0,0.6 0,1.1 0,1.7 0,0.4 -0.1,0.5 -0.5,0.5 -0.6,0 -1.2,0.1 -1.7,0 z"
         class="st0" />
      <path
         style="fill:#006000;fill-opacity:1"
         id="path150"
         d="m 43,361.5 c 0,-0.6 0,-1.2 0,-1.8 0,-0.3 0.1,-0.4 0.4,-0.4 0.6,0 1.2,0 1.8,0 v 0 c 0,0.6 0,1.1 0,1.7 0,0.4 -0.1,0.5 -0.5,0.5 -0.5,0 -1.1,0.1 -1.7,0 z"
         class="st0" />
    </g>
  </g>
</svg>
