<?xml version="1.0" encoding="utf-8"?>
<!-- Generator: Adobe Illustrator 21.0.0, SVG Export Plug-In . SVG Version: 6.00 Build 0)  -->
<svg version="1.1"
	 id="svg309" inkscape:version="1.0.2 (e86c870879, 2021-01-15)" sodipodi:docname="brring-to-front.svg" xmlns:cc="http://creativecommons.org/ns#" xmlns:dc="http://purl.org/dc/elements/1.1/" xmlns:inkscape="http://www.inkscape.org/namespaces/inkscape" xmlns:rdf="http://www.w3.org/1999/02/22-rdf-syntax-ns#" xmlns:sodipodi="http://sodipodi.sourceforge.net/DTD/sodipodi-0.dtd" xmlns:svg="http://www.w3.org/2000/svg"
	 xmlns="http://www.w3.org/2000/svg" xmlns:xlink="http://www.w3.org/1999/xlink" x="0px" y="0px" viewBox="0 0 15.3 16.7"
	 style="enable-background:new 0 0 15.3 16.7;" xml:space="preserve">
<style type="text/css">
	.st0{fill:#DB3737;}
</style>
<sodipodi:namedview  bordercolor="#666666" borderopacity="1.0" fit-margin-bottom="0" fit-margin-left="0" fit-margin-right="0" fit-margin-top="0" id="base" inkscape:current-layer="layer1" inkscape:cx="-71.010477" inkscape:cy="39.522393" inkscape:document-rotation="0" inkscape:document-units="mm" inkscape:pageopacity="0.0" inkscape:pageshadow="2" inkscape:window-height="1029" inkscape:window-maximized="1" inkscape:window-width="1920" inkscape:window-x="1920" inkscape:window-y="28" inkscape:zoom="2.7359919" pagecolor="#ffffff" showgrid="false">
	</sodipodi:namedview>
<g>
	<g>
		<path class="st0" d="M9.3,10.4c0,0,0,0.1,0,0.1c0,0.2,0.1,0.5,0,0.6c-0.1,0.1-0.4,0-0.6,0c-0.1,0-0.2,0-0.2,0.2
			c0,0.2,0.1,0.4,0,0.6c-0.1,0.1-0.4,0-0.6,0c-0.1,0-0.2,0-0.2,0.2c0,0,0,0.1,0,0.1c0,0.1,0.1,0.4,0,0.5c-0.2,0.1-0.4,0-0.6,0
			C7,12.7,7,12.6,7,12.6c0-0.2,0.1-0.4,0-0.6c-0.1-0.1-0.4,0-0.6,0c-0.1,0-0.2,0-0.2-0.2c0,0,0,0,0-0.1c0-0.5,0-0.5-0.5-0.5
			c-0.2,0-0.3,0-0.3-0.3c0-0.5,0-0.5-0.5-0.5c-0.2,0-0.3,0-0.3-0.3c0-0.5,0-0.5-0.6-0.5c-0.2,0-0.2,0-0.2-0.2c0-0.6,0-0.6,0.6-0.6
			c0.2,0,0.3,0,0.3-0.3C4.6,8,4.6,8,5.2,8c0.2,0,0.2-0.1,0.2-0.2c0-0.6,0-0.6,0.6-0.6c0.1,0,0.1,0,0.2,0c0,0.2,0,0.4,0,0.6
			c0,0.1,0,0.2,0.2,0.2S6.8,8,7,8c0,0,0,0.1,0,0.1c0,0.2-0.1,0.5,0,0.6c0.1,0.2,0.4,0,0.6,0.1c0,0,0,0,0,0c0.1,0,0.1,0,0.1,0.1
			c0,0.1,0,0.3,0,0.4c0,0.2,0,0.3,0.2,0.3s0.4,0,0.6,0c0,0.2,0,0.4,0,0.6c0,0.2,0.1,0.2,0.2,0.2C8.9,10.4,9.1,10.4,9.3,10.4z"/>
		<path class="st0" d="M12.2,1.2c0,0.3,0,0.5,0,0.8c-0.3,0-0.5,0-0.8,0l0,0c0,0,0,0,0,0c0-0.3-0.1-0.6,0-0.7
			C11.6,1.2,11.9,1.3,12.2,1.2z"/>
		<path class="st0" d="M10.6,2.8c0-0.2,0-0.4,0-0.6c0-0.1,0-0.1,0.1-0.1c0.2,0,0.4,0,0.6,0l0,0c0,0.2,0,0.4,0,0.6
			c0,0.1,0,0.2-0.2,0.2C11,2.8,10.8,2.8,10.6,2.8L10.6,2.8z"/>
		<path class="st0" d="M9.8,3.6c0-0.2,0-0.4,0-0.6c0-0.1,0-0.1,0.1-0.1c0.2,0,0.4,0,0.6,0l0,0c0,0.2,0,0.4,0,0.6
			c0,0.1,0,0.2-0.2,0.2C10.3,3.6,10,3.6,9.8,3.6L9.8,3.6z"/>
		<path class="st0" d="M9,4.4C9,4.2,9,4,9,3.7c0-0.1,0-0.1,0.1-0.1c0.2,0,0.4,0,0.6,0l0,0c0,0.2,0,0.4,0,0.6c0,0.1,0,0.2-0.2,0.2
			C9.5,4.4,9.2,4.4,9,4.4L9,4.4z"/>
		<path class="st0" d="M8.3,5.2c0-0.2,0-0.4,0-0.6c0-0.1,0-0.1,0.1-0.1c0.2,0,0.4,0,0.6,0l0,0c0,0.2,0,0.4,0,0.6
			c0,0.1,0,0.2-0.2,0.2C8.7,5.2,8.5,5.2,8.3,5.2L8.3,5.2z"/>
		<path class="st0" d="M14.6,4.4c0.3,0,0.5,0,0.8,0c0,0.2,0,0.4,0,0.6c0,0.1,0,0.1-0.1,0.1c-0.2,0-0.4,0-0.6,0l0,0
			C14.6,4.9,14.6,4.6,14.6,4.4z"/>
		<path class="st0" d="M13.8,3.6c0.3,0,0.5,0,0.8,0c0,0.2,0,0.4,0,0.6c0,0.1,0,0.1-0.1,0.1c-0.2,0-0.4,0-0.6,0l0,0
			C13.8,4.1,13.8,3.9,13.8,3.6z"/>
		<path class="st0" d="M13,2.9c0.3,0,0.5,0,0.8,0c0,0.2,0,0.4,0,0.6c0,0.1,0,0.1-0.1,0.1c-0.2,0-0.4,0-0.6,0l0,0
			C13,3.4,13,3.1,13,2.9z"/>
		<path class="st0" d="M12.2,2c0.3,0,0.5,0,0.8,0c0,0.2,0,0.4,0,0.6c0,0.1,0,0.1-0.1,0.1c-0.2,0-0.4,0-0.6,0l0,0
			C12.2,2.6,12.2,2.3,12.2,2z"/>
		<path class="st0" d="M7.5,6c0-0.2,0-0.4,0-0.6c0-0.1,0-0.1,0.1-0.1c0.2,0,0.4,0,0.6,0l0,0c0,0.2,0,0.4,0,0.6c0,0.1,0,0.2-0.2,0.2
			C7.9,6,7.7,6,7.5,6L7.5,6z"/>
		<path class="st0" d="M14.6,5.2c0,0.2,0,0.4,0,0.6c0,0.1,0,0.1-0.1,0.1c-0.2,0-0.4,0-0.6,0l0,0c0-0.2,0-0.4,0-0.6
			c0-0.1,0-0.2,0.2-0.2C14.1,5.2,14.3,5.2,14.6,5.2L14.6,5.2z"/>
		<path class="st0" d="M6.7,6.8c0-0.2,0-0.4,0-0.6C6.7,6,6.7,6,6.8,6c0.2,0,0.4,0,0.6,0l0,0c0,0.2,0,0.4,0,0.6c0,0.1,0,0.2-0.2,0.2
			C7.1,6.8,6.9,6.8,6.7,6.8L6.7,6.8z"/>
		<path class="st0" d="M13.8,6c0,0.2,0,0.4,0,0.6c0,0.1,0,0.1-0.1,0.1c-0.2,0-0.4,0-0.6,0l0,0c0-0.2,0-0.4,0-0.6C13,6,13,6,13.2,6
			C13.3,6,13.6,6,13.8,6L13.8,6z"/>
		<path class="st0" d="M5.9,7.5c0-0.2,0-0.4,0-0.6c0-0.1,0-0.1,0.1-0.1c0.2,0,0.4,0,0.6,0l0,0c0,0.2,0,0.4,0,0.6
			c0,0.1,0,0.2-0.2,0.2C6.3,7.5,6.1,7.5,5.9,7.5L5.9,7.5z"/>
		<path class="st0" d="M13,6.8c0,0.2,0,0.4,0,0.6c0,0.1,0,0.1-0.1,0.1c-0.2,0-0.4,0-0.6,0l0,0c0-0.2,0-0.4,0-0.6
			c0-0.1,0-0.2,0.2-0.2C12.6,6.8,12.8,6.8,13,6.8L13,6.8z"/>
		<path class="st0" d="M12.2,7.5c0,0.2,0,0.4,0,0.6c0,0.1,0,0.1-0.1,0.1c-0.2,0-0.4,0-0.6,0l0,0c0-0.2,0-0.4,0-0.6
			c0-0.1,0-0.2,0.2-0.2C11.8,7.5,12,7.5,12.2,7.5L12.2,7.5z"/>
		<path class="st0" d="M11.4,8.3c0,0.2,0,0.4,0,0.6c0,0.1,0,0.1-0.1,0.1c-0.2,0-0.4,0-0.6,0l0,0c0-0.2,0-0.4,0-0.6
			c0-0.1,0-0.2,0.2-0.2C11,8.3,11.2,8.3,11.4,8.3L11.4,8.3z"/>
		<path class="st0" d="M10.6,9.1c0,0.2,0,0.4,0,0.6c0,0.1,0,0.1-0.1,0.1c-0.2,0-0.4,0-0.6,0l0,0c0-0.2,0-0.4,0-0.6
			c0-0.1,0-0.2,0.2-0.2C10.2,9.1,10.4,9.1,10.6,9.1L10.6,9.1z"/>
		<path class="st0" d="M9.9,9.9c0,0.2,0,0.4,0,0.6c0,0.1,0,0.1-0.1,0.1c-0.2,0-0.4,0-0.6,0l0,0c0-0.2,0-0.4,0-0.6
			c0-0.1,0-0.2,0.2-0.2C9.4,9.9,9.6,9.9,9.9,9.9L9.9,9.9z"/>
	</g>
	<rect y="11.8" class="st0" width="4.6" height="0.6"/>
	<rect y="13.2" class="st0" width="6.3" height="0.6"/>
</g>
</svg>
