<?xml version="1.0" encoding="UTF-8" standalone="no"?>
<svg
   xmlns:dc="http://purl.org/dc/elements/1.1/"
   xmlns:cc="http://creativecommons.org/ns#"
   xmlns:rdf="http://www.w3.org/1999/02/22-rdf-syntax-ns#"
   xmlns:svg="http://www.w3.org/2000/svg"
   xmlns="http://www.w3.org/2000/svg"
   xmlns:sodipodi="http://sodipodi.sourceforge.net/DTD/sodipodi-0.dtd"
   xmlns:inkscape="http://www.inkscape.org/namespaces/inkscape"
   inkscape:export-ydpi="417"
   inkscape:export-xdpi="417"
   inkscape:export-filename="/home/elisa/Association/UpStage/UpStage-icons/live-drawing.png"
   width="4.320159mm"
   height="4.3177819mm"
   viewBox="0 0 4.3201594 4.3177821"
   version="1.1"
   id="svg309"
   inkscape:version="1.0 (4035a4fb49, 2020-05-01)"
   sodipodi:docname="drawing-tool2.svg">
  <defs
     id="defs303" />
  <sodipodi:namedview
     inkscape:guide-bbox="true"
     showguides="true"
     id="base"
     pagecolor="#ffffff"
     bordercolor="#666666"
     borderopacity="1.0"
     inkscape:pageopacity="0.0"
     inkscape:pageshadow="2"
     inkscape:zoom="5.6002856"
     inkscape:cx="-57.184378"
     inkscape:cy="-1.0758045"
     inkscape:document-units="mm"
     inkscape:current-layer="layer1"
     inkscape:document-rotation="0"
     showgrid="false"
     fit-margin-top="0"
     fit-margin-left="0"
     fit-margin-right="0"
     fit-margin-bottom="0"
     inkscape:window-width="1920"
     inkscape:window-height="1028"
     inkscape:window-x="1920"
     inkscape:window-y="28"
     inkscape:window-maximized="1"
     inkscape:snap-global="true" />
  <metadata
     id="metadata306">
    <rdf:RDF>
      <cc:Work
         rdf:about="">
        <dc:format>image/svg+xml</dc:format>
        <dc:type
           rdf:resource="http://purl.org/dc/dcmitype/StillImage" />
        <dc:title></dc:title>
      </cc:Work>
    </rdf:RDF>
  </metadata>
  <g
     inkscape:label="Calque 1"
     inkscape:groupmode="layer"
     id="layer1"
     transform="translate(-48.860191,-149.80911)">
    <g
       id="g1038"
       style="opacity:0.931373" />
    <path
       transform="matrix(0.26458333,0,0,0.26458333,91.211102,102.27165)"
       d="m -148.68359,179.66992 c -0.14746,-0.004 -0.28901,0.008 -0.40625,0.0801 -0.1406,0.0957 -0.0429,0.42468 -0.041,0.61328 4.6e-4,0.0469 0.001,0.0953 0.002,0.14258 0.049,0.18822 -0.0457,0.23643 -0.23437,0.23828 -0.28302,0.003 -0.61425,-0.13542 -0.75391,0.0547 -0.13965,0.19007 -0.0414,0.51806 -0.0391,0.7539 0.002,0.1886 -0.0929,0.23689 -0.23437,0.23829 -0.23585,0.002 -0.61426,-0.13543 -0.75391,0.0547 -0.10208,0.13891 -0.0784,0.3531 -0.0566,0.56836 -0.16786,0.001 -0.33606,0.002 -0.50391,0.004 -0.1415,0.002 -0.18888,0.0481 -0.1875,0.18945 0.003,0.28301 0.007,0.56652 0.01,0.84961 -0.2674,0.003 -0.53534,0.005 -0.80274,0.008 -0.1415,0.002 -0.18888,0.0481 -0.1875,0.18946 0.003,0.28301 0.007,0.56652 0.01,0.84961 0.23631,0.045 0.51777,-0.005 0.80078,-0.008 0.18867,-0.002 0.23621,-0.0477 0.23438,-0.23632 -0.003,-0.28233 -0.005,-0.51862 -0.008,-0.80079 0.26734,0.0325 0.53129,-0.008 0.75391,-0.01 0.18867,-0.002 0.23622,-0.0497 0.23437,-0.23828 -0.002,-0.14979 -0.003,-0.28649 -0.004,-0.42383 0.13203,-0.001 0.27493,-0.003 0.375,-0.004 0.18867,-0.002 0.2848,0.0454 0.28711,0.28125 0.003,0.23588 0.005,0.51807 0.008,0.75391 0.28301,-0.004 0.51806,-0.006 0.75391,-0.008 0.23584,-0.002 0.2848,0.0923 0.28711,0.32812 0.002,0.18883 0.004,0.37781 0.006,0.56641 10e-4,0.14135 0.048,0.18694 0.18946,0.18554 h 0.0469 c 0.28348,0.0446 0.65893,-0.14839 0.80274,0.0859 0.14332,0.18728 0.0519,0.51965 0.0547,0.80274 l 0.002,0.14062 c 0.23584,-0.004 0.52001,-0.006 0.75586,-0.008 0.23584,-0.002 0.28331,0.0926 0.28515,0.28125 10e-4,0.10265 0.003,0.21538 0.004,0.32812 -0.1532,0.001 -0.30602,0.002 -0.47266,0.004 -0.18867,0.002 -0.23426,0.0497 -0.23242,0.23828 0.003,0.28301 0.005,0.51965 0.008,0.80274 0.28302,-0.004 0.56465,-0.005 0.84766,-0.008 0.14151,-0.002 0.18888,-0.0481 0.1875,-0.18945 -0.001,-0.14248 -0.002,-0.28526 -0.004,-0.42773 0.63766,-0.008 0.65949,-0.0444 0.65235,-0.75782 -0.002,-0.18859 0.0454,-0.2848 0.28125,-0.28711 0.7546,-0.007 0.75289,-0.007 0.74609,-0.71484 -0.003,-0.28309 0.0923,-0.32973 0.32813,-0.33203 0.75489,-0.007 0.7556,-0.007 0.74804,-0.76172 -0.002,-0.23584 -0.0513,-0.28355 -0.28711,-0.28125 -0.75481,0.007 -0.75492,0.006 -0.76171,-0.70117 -0.003,-0.28309 -0.0962,-0.32848 -0.33204,-0.32617 -0.70764,0.007 -0.70804,0.006 -0.71484,-0.70118 -0.003,-0.28307 -0.0981,-0.32843 -0.33398,-0.32617 -0.70765,0.007 -0.70804,0.006 -0.71485,-0.70117 v -0.0937 c 0.0453,-0.18898 -0.0496,-0.23623 -0.23828,-0.23437 -0.28302,0.003 -0.6125,0.14802 -0.75586,-0.0391 -0.14336,-0.18731 -0.0524,-0.51806 -0.0547,-0.7539 -9e-4,-0.0941 -0.001,-0.23574 -0.14257,-0.23438 -0.14151,0.002 -0.29591,-0.0209 -0.44336,-0.0254 z m 0.99218,7.89649 c -0.28301,0.004 -0.51972,0.005 -0.80273,0.008 -0.18867,0.002 -0.23622,0.0497 -0.23438,0.23828 0.003,0.28301 0.005,0.51769 0.008,0.80078 0.28302,-0.004 0.5666,-0.003 0.84961,-0.006 0.1415,-0.002 0.18888,-0.05 0.1875,-0.1914 -0.003,-0.28302 -0.005,-0.56653 -0.008,-0.84961 z m -12.27148,-7.76758 v 1.00976 4.03907 h 1.00977 v -4.03907 h 4.04101 v -1.00976 z m 7.09961,4.70703 c -0.28302,0.004 -0.5666,0.003 -0.84961,0.006 -0.14151,0.002 -0.18888,0.0501 -0.1875,0.1914 0.003,0.28302 0.005,0.56653 0.008,0.84961 0.28302,-0.004 0.51973,-0.005 0.80274,-0.008 0.18867,-0.002 0.23621,-0.0497 0.23437,-0.23828 -0.003,-0.28301 -0.005,-0.51769 -0.008,-0.80078 z m -1.0293,1.04687 c -0.28301,0.004 -0.56464,0.005 -0.84765,0.008 -0.14151,0.002 -0.18889,0.0481 -0.1875,0.18945 0.003,0.28301 0.005,0.56652 0.008,0.84961 0.28301,-0.004 0.51972,-0.003 0.80273,-0.006 0.18868,-0.002 0.23427,-0.0497 0.23242,-0.23828 -0.003,-0.28301 -0.005,-0.51965 -0.008,-0.80274 z m -1.02734,1.04883 c -0.28302,0.004 -0.56465,0.003 -0.84766,0.006 -0.1415,0.002 -0.18888,0.05 -0.1875,0.19141 0.003,0.28301 0.005,0.56652 0.008,0.84961 0.28302,-0.004 0.51973,-0.005 0.80274,-0.008 0.18867,-0.002 0.23426,-0.0497 0.23242,-0.23828 -0.003,-0.28301 -0.005,-0.51769 -0.008,-0.80078 z m -1.02735,1.04688 c -0.28301,0.004 -0.56659,0.005 -0.84961,0.008 -0.14149,0.002 -0.18693,0.0481 -0.18554,0.18945 0.003,0.28301 0.005,0.56653 0.008,0.84961 0.28302,-0.004 0.5669,-0.004 0.80273,-0.006 0.18868,-0.002 0.23427,-0.0497 0.23243,-0.23828 -0.003,-0.28301 -0.005,-0.51965 -0.008,-0.80273 z m 7.22657,0.96679 c -0.28302,0.004 -0.51777,0.003 -0.80078,0.006 -0.18868,0.002 -0.23622,0.0497 -0.23438,0.23829 0.003,0.283 0.005,0.51964 0.008,0.80273 0.28302,-0.004 0.5666,-0.005 0.84961,-0.008 0.14151,-0.002 0.18889,-0.0481 0.1875,-0.18946 -0.003,-0.28301 -0.007,-0.56652 -0.01,-0.84961 z m -1.02735,1.04688 c -0.23584,0.004 -0.51777,0.005 -0.80078,0.008 -0.18867,0.002 -0.23622,0.0497 -0.23437,0.23828 0.003,0.28301 0.005,0.5177 0.008,0.80078 -0.2663,0.003 -0.53187,0.006 -0.75391,0.008 -0.18867,0.002 -0.23622,0.0497 -0.23437,0.23828 0.003,0.28301 0.005,0.51965 0.008,0.80273 0.28302,-0.004 0.5666,-0.005 0.84961,-0.008 0.14151,-0.002 0.18888,-0.05 0.1875,-0.19141 -0.003,-0.28301 -0.007,-0.56457 -0.01,-0.84765 v -0.002 c 0.26741,-0.003 0.53534,-0.003 0.80274,-0.006 0.1415,-0.002 0.18888,-0.05 0.1875,-0.1914 -0.003,-0.28301 -0.007,-0.56652 -0.01,-0.84961 z m -2.00781,2.0957 c -0.28301,0.004 -0.56494,0.006 -0.80078,0.008 -0.18867,0.002 -0.23622,0.0497 -0.23438,0.23829 0.003,0.28301 0.005,0.51769 0.008,0.80078 0.28301,-0.004 0.5666,-0.005 0.84961,-0.008 0.1415,-0.002 0.18692,-0.0481 0.18554,-0.18946 -0.003,-0.28301 -0.005,-0.56652 -0.008,-0.84961 z m -1.02734,1.04688 c -0.28302,0.004 -0.56689,0.006 -0.80274,0.008 -0.18867,0.002 -0.23426,0.0497 -0.23242,0.23828 0.003,0.28305 0.005,0.51965 0.008,0.80274 0.28302,-0.004 0.5666,-0.005 0.84961,-0.008 0.14151,-0.002 0.18693,-0.05 0.18555,-0.1914 -0.003,-0.28305 -0.005,-0.56457 -0.008,-0.84766 z m -1.02735,1.04883 c -0.33018,0.004 -0.70693,0.007 -1.03711,0.01 v 0.002 c -0.28301,0.004 -0.51972,0.005 -0.80273,0.008 -0.18867,0.002 -0.23644,-0.0458 -0.23828,-0.23438 -0.003,-0.28301 -0.005,-0.51965 -0.008,-0.80273 -0.28302,0.004 -0.5666,0.005 -0.84961,0.008 -0.14151,0.002 -0.18807,-0.0442 -0.18946,-0.18555 -0.003,-0.28301 -0.005,-0.56652 -0.008,-0.84961 -0.28301,0.004 -0.51972,0.005 -0.80273,0.008 -0.18868,0.002 -0.23644,-0.0458 -0.23829,-0.23438 -0.003,-0.28301 -0.005,-0.51769 -0.008,-0.80078 -0.003,-0.32973 -0.007,-0.70545 -0.01,-1.03516 -0.28302,0.004 -0.5666,0.005 -0.84961,0.008 -0.14151,0.002 -0.18693,0.0481 -0.18555,0.18945 0.003,0.28301 0.005,0.56652 0.008,0.84961 -0.28301,0.004 -0.5666,0.003 -0.84961,0.006 -0.1415,0.002 -0.18888,0.05 -0.1875,0.1914 0.0156,1.60377 0.0333,3.20682 0.0488,4.81055 10e-4,0.14136 0.048,0.18886 0.18946,0.1875 1.60374,-0.0166 3.20679,-0.0318 4.81054,-0.0469 0.14151,-0.002 0.18888,-0.0501 0.1875,-0.19141 -0.003,-0.28301 -0.005,-0.56457 -0.008,-0.84766 v -0.002 c 0.32972,-0.0491 0.75575,0.087 0.99023,-0.0566 0.18683,-0.19049 -0.007,-0.61265 0.0371,-0.94336 z m -3.16406,-5.15625 c -0.28301,0.004 -0.5666,0.003 -0.84961,0.006 -0.1415,0.002 -0.18693,0.0501 -0.18555,0.19141 0.003,0.28301 0.005,0.56652 0.008,0.84961 0.28301,-0.004 0.56689,-0.006 0.80273,-0.008 0.18868,-0.002 0.23426,-0.0497 0.23242,-0.23828 -0.003,-0.28301 -0.005,-0.5177 -0.008,-0.80078 z m 12.22656,2.16992 v 4.03906 h -4.04101 v 1.01172 h 5.05078 v -1.01172 -4.03906 z"
       style="fill-opacity:1;stroke-width:0.471715"
       id="path2780" />
  </g>
</svg>
