<?xml version="1.0" encoding="UTF-8" standalone="no"?>
<svg
   xmlns:dc="http://purl.org/dc/elements/1.1/"
   xmlns:cc="http://creativecommons.org/ns#"
   xmlns:rdf="http://www.w3.org/1999/02/22-rdf-syntax-ns#"
   xmlns:svg="http://www.w3.org/2000/svg"
   xmlns="http://www.w3.org/2000/svg"
   xmlns:sodipodi="http://sodipodi.sourceforge.net/DTD/sodipodi-0.dtd"
   xmlns:inkscape="http://www.inkscape.org/namespaces/inkscape"
   sodipodi:docname="savescene.svg"
   inkscape:version="1.0 (4035a4fb49, 2020-05-01)"
   id="svg309"
   version="1.1"
   viewBox="0 0 6.4293751 4.6587836"
   height="4.6587834mm"
   width="6.4293747mm">
  <defs
     id="defs303" />
  <sodipodi:namedview
     inkscape:window-maximized="0"
     inkscape:window-y="28"
     inkscape:window-x="1960"
     inkscape:window-height="1002"
     inkscape:window-width="1215"
     fit-margin-bottom="0"
     fit-margin-right="0"
     fit-margin-left="0"
     fit-margin-top="0"
     showgrid="false"
     inkscape:document-rotation="0"
     inkscape:current-layer="layer1"
     inkscape:document-units="mm"
     inkscape:cy="24.61209"
     inkscape:cx="11.128841"
     inkscape:zoom="11.2"
     inkscape:pageshadow="2"
     inkscape:pageopacity="0.0"
     borderopacity="1.0"
     bordercolor="#666666"
     pagecolor="#ffffff"
     id="base" />
  <metadata
     id="metadata306">
    <rdf:RDF>
      <cc:Work
         rdf:about="">
        <dc:format>image/svg+xml</dc:format>
        <dc:type
           rdf:resource="http://purl.org/dc/dcmitype/StillImage" />
        <dc:title></dc:title>
      </cc:Work>
    </rdf:RDF>
  </metadata>
  <g
     transform="translate(-95.480999,-102.31478)"
     id="layer1"
     inkscape:groupmode="layer"
     inkscape:label="Calque 1">
    <g
       style="fill:#006000;fill-opacity:1"
       transform="matrix(0.26458333,0,0,0.26458333,89.369124,-41.565638)"
       id="g419">
      <path
         style="fill:#006000;fill-opacity:1"
         d="m 29.9,561.3 c 0,-0.7 0,-1.5 0,-2.2 0.7,0 1.5,0 2.2,0 v 0 c 0,0 0,0 0,0.1 -0.1,0.7 0.3,1.6 -0.1,2 -0.5,0.4 -1.4,0.1 -2.1,0.1 z"
         id="path154" />
      <path
         style="fill:#006000;fill-opacity:1"
         d="m 34.3,557 c 0,0.6 0,1.2 0,1.8 0,0.3 -0.1,0.4 -0.4,0.4 -0.6,0 -1.2,0 -1.8,0 v 0 c 0,-0.6 0,-1.1 0,-1.7 0,-0.4 0.1,-0.5 0.5,-0.5 0.5,0 1.1,-0.1 1.7,0 z"
         id="path156" />
      <path
         style="fill:#006000;fill-opacity:1"
         d="m 36.5,554.8 c 0,0.6 0,1.2 0,1.8 0,0.3 -0.1,0.4 -0.4,0.4 -0.6,0 -1.2,0 -1.8,0 v 0 c 0,-0.6 0,-1.1 0,-1.7 0,-0.4 0.1,-0.5 0.5,-0.5 0.5,0 1.1,0 1.7,0 z"
         id="path158" />
      <path
         style="fill:#006000;fill-opacity:1"
         d="m 38.7,552.6 c 0,0.6 0,1.2 0,1.8 0,0.3 -0.1,0.4 -0.4,0.4 -0.6,0 -1.2,0 -1.8,0 v 0 c 0,-0.6 0,-1.1 0,-1.7 0,-0.4 0.1,-0.5 0.5,-0.5 0.5,0 1.1,0 1.7,0 z"
         id="path160" />
      <path
         style="fill:#006000;fill-opacity:1"
         d="m 40.9,550.4 c 0,0.6 0,1.2 0,1.8 0,0.3 -0.1,0.4 -0.4,0.4 -0.6,0 -1.2,0 -1.8,0 v 0 c 0,-0.6 0,-1.1 0,-1.7 0,-0.4 0.1,-0.5 0.5,-0.5 0.5,0 1.1,0 1.7,0 z"
         id="path162" />
      <path
         style="fill:#006000;fill-opacity:1"
         d="m 23.1,554.8 c 0,-0.7 0,-1.5 0,-2.2 0.6,0 1.2,0 1.8,0 0.3,0 0.4,0.1 0.4,0.4 0,0.6 0,1.2 0,1.8 v 0 c -0.7,0 -1.5,0 -2.2,0 z"
         id="path164" />
      <path
         style="fill:#006000;fill-opacity:1"
         d="m 43.1,548.2 c 0,0.6 0,1.2 0,1.8 0,0.3 -0.1,0.4 -0.4,0.4 -0.6,0 -1.2,0 -1.8,0 v 0 c 0,-0.6 0,-1.1 0,-1.7 0,-0.4 0.1,-0.5 0.5,-0.5 0.5,0 1.1,0 1.7,0 z"
         id="path166" />
      <path
         style="fill:#006000;fill-opacity:1"
         d="m 25.3,554.8 c 0.6,0 1.2,0 1.8,0 0.3,0 0.4,0.1 0.4,0.4 0,0.6 0,1.2 0,1.8 v 0 c -0.6,0 -1.1,0 -1.7,0 -0.4,0 -0.5,-0.1 -0.5,-0.5 0,-0.6 0,-1.1 0,-1.7 z"
         id="path168" />
      <path
         style="fill:#006000;fill-opacity:1"
         d="m 45.2,546 c 0,0.6 0,1.2 0,1.8 0,0.3 -0.1,0.4 -0.4,0.4 -0.6,0 -1.2,0 -1.8,0 v 0 c 0,-0.6 0,-1.1 0,-1.7 0,-0.4 0.1,-0.5 0.5,-0.5 0.6,0 1.2,0 1.7,0 z"
         id="path170" />
      <path
         style="fill:#006000;fill-opacity:1"
         d="m 27.5,557 c 0.6,0 1.2,0 1.8,0 0.3,0 0.4,0.1 0.4,0.4 0,0.6 0,1.2 0,1.8 v 0 c -0.6,0 -1.1,0 -1.7,0 -0.4,0 -0.5,-0.1 -0.5,-0.5 0,-0.6 0,-1.2 0,-1.7 z"
         id="path172" />
      <path
         style="fill:#006000;fill-opacity:1"
         d="m 47.4,543.8 c 0,0.6 0,1.2 0,1.8 0,0.3 -0.1,0.4 -0.4,0.4 -0.6,0 -1.2,0 -1.8,0 v 0 c 0,-0.6 0,-1.1 0,-1.7 0,-0.4 0.1,-0.5 0.5,-0.5 0.6,0 1.1,0 1.7,0 z"
         id="path174" />
    </g>
  </g>
</svg>
