<?xml version="1.0" encoding="UTF-8" standalone="no"?>
<svg
   xmlns:dc="http://purl.org/dc/elements/1.1/"
   xmlns:cc="http://creativecommons.org/ns#"
   xmlns:rdf="http://www.w3.org/1999/02/22-rdf-syntax-ns#"
   xmlns:svg="http://www.w3.org/2000/svg"
   xmlns="http://www.w3.org/2000/svg"
   xmlns:sodipodi="http://sodipodi.sourceforge.net/DTD/sodipodi-0.dtd"
   xmlns:inkscape="http://www.inkscape.org/namespaces/inkscape"
   sodipodi:docname="live-drawing2.svg"
   inkscape:version="1.0 (4035a4fb49, 2020-05-01)"
   id="svg309"
   version="1.1"
   viewBox="0 0 19.575584 17.791714"
   height="17.791714mm"
   width="19.575583mm"
   inkscape:export-filename="/home/elisa/Association/UpStage/UpStage-icons/live-drawing.png"
   inkscape:export-xdpi="417"
   inkscape:export-ydpi="417">
  <defs
     id="defs303" />
  <sodipodi:namedview
     inkscape:snap-global="true"
     inkscape:window-maximized="1"
     inkscape:window-y="28"
     inkscape:window-x="1920"
     inkscape:window-height="1028"
     inkscape:window-width="1920"
     fit-margin-bottom="0"
     fit-margin-right="0"
     fit-margin-left="0"
     fit-margin-top="0"
     showgrid="false"
     inkscape:document-rotation="0"
     inkscape:current-layer="layer1"
     inkscape:document-units="mm"
     inkscape:cy="51.507029"
     inkscape:cx="241.65708"
     inkscape:zoom="0.7000357"
     inkscape:pageshadow="2"
     inkscape:pageopacity="0.0"
     borderopacity="1.0"
     bordercolor="#666666"
     pagecolor="#ffffff"
     id="base"
     showguides="true"
     inkscape:guide-bbox="true" />
  <metadata
     id="metadata306">
    <rdf:RDF>
      <cc:Work
         rdf:about="">
        <dc:format>image/svg+xml</dc:format>
        <dc:type
           rdf:resource="http://purl.org/dc/dcmitype/StillImage" />
        <dc:title></dc:title>
      </cc:Work>
    </rdf:RDF>
  </metadata>
  <g
     transform="translate(10.393548,-155.01568)"
     id="layer1"
     inkscape:groupmode="layer"
     inkscape:label="Calque 1">
    <g
       style="fill-opacity:1"
       transform="matrix(0.44638539,0,0,0.44638539,204.71969,130.23303)"
       id="g8">
      <path
         transform="matrix(0.592724,0,0,0.592724,-254.28383,-62.63955)"
         d="m -321.32812,199.34961 c -0.34929,-0.0113 -0.68482,0.0197 -0.9629,0.18945 -0.33352,0.22599 -0.10298,1.00619 -0.0996,1.45313 l 0.002,0.33593 c 0.1151,0.44611 -0.10775,0.55914 -0.55469,0.5625 -0.6704,0.005 -1.45527,-0.32445 -1.78711,0.125 -0.33184,0.44947 -0.10187,1.2304 -0.0976,1.78907 0.003,0.44693 -0.21949,0.55997 -0.55469,0.5625 -0.55867,0.004 -1.45527,-0.32446 -1.78711,0.125 -0.24213,0.32795 -0.19085,0.83271 -0.14063,1.34179 l -1.18945,0.01 c -0.3352,0.003 -0.44588,0.11402 -0.44336,0.44922 l 0.0156,2.01172 -1.90039,0.0137 c -0.33521,0.003 -0.44589,0.11597 -0.44336,0.45117 l 0.0156,2.01172 c 0.55951,0.10753 1.22803,-0.0106 1.89844,-0.0156 0.44693,-0.003 0.55805,-0.11556 0.55469,-0.5625 l -0.0137,-1.88867 c 0.63338,0.0782 1.25954,-0.0195 1.78711,-0.0234 0.44694,-0.003 0.55806,-0.11557 0.55469,-0.5625 l -0.008,-1.00586 0.89453,-0.008 c 0.44694,-0.003 0.67158,0.10735 0.67578,0.66602 l 0.0137,1.78711 1.78711,-0.0137 c 0.55867,-0.004 0.67158,0.21867 0.67578,0.77734 l 0.01,1.3418 c 0.003,0.3352 0.11597,0.44588 0.45117,0.44336 l 0.11133,-0.002 c 0.67124,0.10669 1.56098,-0.34716 1.90039,0.20899 0.33857,0.44441 0.12191,1.22998 0.12695,1.90039 l 0.002,0.33398 1.78906,-0.0137 c 0.55867,-0.004 0.67046,0.21908 0.67383,0.66602 l 0.006,0.78125 -1.11719,0.01 c -0.44694,0.003 -0.55805,0.11557 -0.55469,0.5625 l 0.0156,1.89844 2.01171,-0.0137 c 0.33521,-0.003 0.44589,-0.11597 0.44336,-0.45117 l -0.008,-1.01172 c 1.51178,-0.0164 1.56351,-0.10239 1.55078,-1.79297 -0.003,-0.44694 0.10539,-0.67158 0.66406,-0.67578 1.78776,-0.0135 1.78801,-0.0134 1.7754,-1.68946 -0.005,-0.6704 0.21867,-0.78289 0.77734,-0.78711 1.78775,-0.0135 1.78689,-0.015 1.77344,-1.80273 -0.004,-0.55867 -0.11711,-0.66827 -0.67578,-0.66406 -1.78775,0.0135 -1.78622,0.0139 -1.79883,-1.66211 -0.005,-0.67041 -0.23038,-0.78156 -0.78907,-0.77734 -1.67601,0.0126 -1.67487,0.0119 -1.6875,-1.66407 -0.005,-0.6704 -0.23039,-0.77959 -0.78906,-0.77539 -1.67601,0.0126 -1.67683,0.012 -1.68945,-1.66406 v -0.22266 c 0.10837,-0.44777 -0.11752,-0.55805 -0.56445,-0.55468 -0.67041,0.005 -1.44855,0.34675 -1.78711,-0.0977 -0.33857,-0.44441 -0.1208,-1.22844 -0.125,-1.78711 -0.002,-0.22347 -0.005,-0.55916 -0.33985,-0.55664 -0.3352,0.003 -0.69955,-0.0512 -1.04882,-0.0625 z m 2.30664,18.71289 -1.9004,0.0156 c -0.44693,0.003 -0.55805,0.11557 -0.55468,0.5625 l 0.0156,1.9004 h 0.084 l -0.084,0.0215 v -0.0215 l -1.90039,0.0137 c -0.44693,0.003 -0.55805,0.11556 -0.55469,0.5625 l 0.0156,1.90039 1.96875,-0.0156 v 33.67578 H -379.125 v -36.27148 h 38.10742 l 0.002,0.28125 1.90039,-0.0137 c 0.44693,-0.003 0.55805,-0.11752 0.55468,-0.56445 l -0.0156,-1.89844 h -0.0879 l 0.45312,-0.0645 v -1.11523 h -41.25 v 1.51758 h -2.19336 v 1.51953 h -2.36328 v 36.44141 h 2.36328 v 1.51757 h 2.36133 v 1.51954 h 26.32422 v 4.2832 h -9.375 v 2.76172 h 23.29492 v -2.76172 h -9.375 v -4.2832 h 26.49219 v -1.51954 h 2.19336 v -1.51757 h 2.36328 v -36.44141 h -1.63086 z m -21.99414,2.625 -2.00977,0.0156 c -0.3352,0.003 -0.44784,0.11402 -0.44531,0.44922 l 0.0156,2.01172 1.90039,-0.0137 c 0.44694,-0.003 0.55805,-0.11752 0.55469,-0.56445 z m -2.43946,2.47656 -2.01172,0.0156 c -0.3352,0.003 -0.44588,0.11401 -0.44336,0.44922 l 0.0156,2.01171 -2.01172,0.0156 c -0.3352,0.003 -0.44588,0.11402 -0.44336,0.44922 l 0.0859,11.39453 h -3.85938 v 4.47266 h -4.39843 -4.54493 v 4.54492 h 4.54493 4.4414 v -4.4707 h 4.50196 v -4.10157 l 11.1621,-0.084 c 0.33521,-0.003 0.44589,-0.11597 0.44336,-0.45117 l -0.0156,-2.01172 c 0.7813,-0.11762 1.78955,0.2105 2.3457,-0.12891 0.44357,-0.4503 -0.0101,-1.45139 0.0957,-2.23437 l -0.002,-0.11328 -2.45703,0.0195 -1.90039,0.0137 c -0.44694,0.003 -0.55914,-0.10775 -0.5625,-0.55469 l -0.0137,-1.89844 -2.01172,0.0137 c -0.3352,0.003 -0.44865,-0.10815 -0.45117,-0.44335 l -0.0137,-2.00977 -1.9004,0.0137 c -0.44693,0.003 -0.55911,-0.10775 -0.5625,-0.55469 l -0.0137,-1.90039 z m 9.90625,9.75782 2.01172,-0.0137 c 0.3352,-0.003 0.44588,-0.11597 0.44336,-0.45117 l -0.0137,-2.01172 -1.90039,0.0156 c -0.44694,0.003 -0.55805,0.11556 -0.55469,0.5625 z m 2.44141,-2.47657 2.00976,-0.0137 c 0.33521,-0.003 0.44589,-0.11597 0.44336,-0.45117 l -0.0137,-2.01172 -1.90039,0.0156 c -0.44694,0.003 -0.55805,0.11555 -0.55469,0.5625 z m 2.43945,-2.47656 2.00977,-0.0156 c 0.3352,-0.003 0.44588,-0.11401 0.44336,-0.44921 l -0.0137,-2.00977 1.89844,-0.0156 c 0.3352,-0.003 0.44588,-0.11597 0.44336,-0.45118 l -0.0137,-2.00976 -1.90039,0.0137 c -0.44694,0.003 -0.55805,0.11556 -0.55469,0.5625 l 0.0156,1.89844 -1.78907,0.0137 c -0.44693,0.003 -0.55805,0.11752 -0.55468,0.56445 z m -32.39844,14.00391 v -4.54493 h -4.54687 v 4.54493 z m 0,-4.54493 h 4.54493 v -4.54687 h -4.54493 z m 0,-4.54687 v -4.54492 h -3.85156 -5.24023 v 4.54492 h 5.24023 z m -9.09179,0 h -4.54492 v 4.54687 h 4.54492 z m 38.90234,-22.09961 -2.01172,0.0137 c -0.3352,0.003 -0.44588,0.11597 -0.44336,0.45117 l 0.0156,2.01172 1.89843,-0.0156 c 0.44694,-0.003 0.55806,-0.11557 0.55469,-0.5625 z m -2.43945,2.47656 -2.01172,0.0137 c -0.3352,0.003 -0.44588,0.11597 -0.44336,0.45118 l 0.0156,2.01172 1.89844,-0.0156 c 0.44694,-0.003 0.55805,-0.11556 0.55469,-0.5625 z"
         style="fill-opacity:1;stroke-width:1.68713"
         id="path6" />
    </g>
    <g
       style="fill-opacity:1"
       transform="matrix(0.29562995,-0.00222545,0.00222545,0.29562995,-9.3344825,50.611096)"
       id="g1031">
      <path
         style="fill-opacity:1"
         id="path1021"
         d="m 34.3,370.3 c 0,-0.6 0,-1.2 0,-1.8 0,-0.3 0.1,-0.4 0.4,-0.4 0.6,0 1.2,0 1.8,0 v 0 c 0,0.6 0,1.1 0,1.7 0,0.4 -0.1,0.5 -0.5,0.5 -0.6,0 -1.1,0 -1.7,0 z"
         class="st0" />
    </g>
    <g
       style="opacity:0.931373"
       id="g1038" />
  </g>
</svg>
