<?xml version="1.0" encoding="UTF-8" standalone="no"?>
<svg
   xmlns:dc="http://purl.org/dc/elements/1.1/"
   xmlns:cc="http://creativecommons.org/ns#"
   xmlns:rdf="http://www.w3.org/1999/02/22-rdf-syntax-ns#"
   xmlns:svg="http://www.w3.org/2000/svg"
   xmlns="http://www.w3.org/2000/svg"
   xmlns:sodipodi="http://sodipodi.sourceforge.net/DTD/sodipodi-0.dtd"
   xmlns:inkscape="http://www.inkscape.org/namespaces/inkscape"
   width="167.1525mm"
   height="159.81067mm"
   viewBox="0 0 167.1525 159.81067"
   version="1.1"
   id="svg8"
   inkscape:version="1.0.2 (e86c870879, 2021-01-15)"
   sodipodi:docname="file-missing.svg">
  <defs
     id="defs2">
    <filter
       inkscape:label="Pixellize"
       inkscape:menu="Pixel Tools"
       inkscape:menu-tooltip="Reduce or remove antialiasing around shapes"
       style="color-interpolation-filters:sRGB"
       id="filter2376">
      <feColorMatrix
         values="1 0 0 0 0 0 1 0 0 0 0 0 1 0 0 0 0 0 1000 -500 "
         id="feColorMatrix2374" />
    </filter>
  </defs>
  <sodipodi:namedview
     id="base"
     pagecolor="#ffffff"
     bordercolor="#666666"
     borderopacity="1.0"
     inkscape:pageopacity="0.0"
     inkscape:pageshadow="2"
     inkscape:zoom="0.49497475"
     inkscape:cx="151.55169"
     inkscape:cy="512.22391"
     inkscape:document-units="mm"
     inkscape:current-layer="layer1"
     inkscape:document-rotation="0"
     showgrid="false"
     inkscape:window-width="1920"
     inkscape:window-height="1057"
     inkscape:window-x="0"
     inkscape:window-y="0"
     inkscape:window-maximized="1"
     fit-margin-top="0"
     fit-margin-left="0"
     fit-margin-right="0"
     fit-margin-bottom="0" />
  <metadata
     id="metadata5">
    <rdf:RDF>
      <cc:Work
         rdf:about="">
        <dc:format>image/svg+xml</dc:format>
        <dc:type
           rdf:resource="http://purl.org/dc/dcmitype/StillImage" />
        <dc:title></dc:title>
      </cc:Work>
    </rdf:RDF>
  </metadata>
  <g
     inkscape:label="Layer 1"
     inkscape:groupmode="layer"
     id="layer1"
     transform="translate(-15.761174,-12.96018)">
    <path
       id="path92"
       style="fill:#edfddd;fill-opacity:1;stroke:#017100;stroke-width:2.64583;stroke-miterlimit:4;stroke-dasharray:none;stroke-opacity:1"
       d="m 99.270692,14.284921 c -6.713908,0.06893 -14.382993,2.151923 -16.388146,6.14226 -9.944291,16.237042 -7.264392,33.356222 0.12609,48.020327 -1.604995,0.751684 -3.123407,1.610566 -3.560506,2.075841 -3.647641,3.743605 -8.375391,5.407626 -11.025166,6.131925 -1.484501,0.65528 -3.893267,3.373681 -4.840015,5.461683 -1.741811,3.841488 -2.893738,9.22475 -2.923337,13.66015 -0.02224,3.33305 -0.571494,8.738853 -1.128614,11.112503 -0.3815,1.62538 -0.37655,1.7386 0.0832,2.06705 0.394009,0.28149 0.442044,0.50227 0.253214,1.16066 -0.12822,0.44708 -0.281448,0.86125 -0.340548,0.92035 -0.20062,0.20061 -3.842848,-5.1211 -5.757788,-8.41292 -1.048041,-1.80159 -2.499556,-4.168733 -3.225126,-5.260143 -2.21879,-3.33751 -2.57122,-4.13265 -2.39727,-5.40174 0.141301,-1.03088 0.06041,-1.23554 -1.006139,-2.555917 -0.637672,-0.789419 -1.667767,-1.692987 -2.289268,-2.008145 -0.621501,-0.315161 -1.005398,-0.650042 -0.853178,-0.744141 0.313341,-0.193651 -0.752112,-1.822693 -2.209683,-3.379123 -1.081749,-1.15511 -1.984359,-1.282145 -2.820501,-0.396875 -0.84137,0.890801 -0.588304,2.604526 0.559657,3.788918 0.47946,0.494678 0.803236,0.968232 0.719336,1.052131 -0.08388,0.08387 -0.790104,0.217972 -1.569413,0.298172 -2.32933,0.239602 -6.785115,-1.305787 -11.471134,-3.978568 -1.018651,-0.580999 -2.090211,-1.25929 -2.38125,-1.5074 -0.863881,-0.736452 -2.245196,-1.345608 -2.867525,-1.264008 -0.319601,0.04188 -1.009748,-0.188769 -1.533758,-0.51263 -1.23834,-0.765379 -2.453053,-0.769847 -2.984312,-0.01137 -0.2838,0.405191 -0.323382,0.675132 -0.132292,0.905372 0.189309,0.22813 0.166672,0.497581 -0.0739,0.884701 -0.317529,0.51095 -0.226266,0.663765 1.109493,1.861386 0.800359,0.717598 1.552782,1.310198 1.671733,1.316199 0.118999,0.0063 0.147127,0.229542 0.06253,0.496094 -0.11312,0.356417 0.212222,0.793914 1.230931,1.653645 3.854069,3.252589 9.770182,7.350459 11.987382,8.303889 3.475199,1.49439 6.116738,2.97173 7.131349,3.987873 2.291749,2.2952 4.779185,7.58968 7.018176,14.93862 2.013119,6.60759 3.972171,10.36349 7.3303,14.05289 0.87603,0.96244 2.623367,3.24542 3.882966,5.07307 3.214982,4.66487 4.082156,5.2989 6.484877,4.74338 2.921389,-0.67544 5.05569,-2.08823 6.23838,-4.12843 1.544429,-2.66422 4.905126,-12.84827 4.905126,-14.86421 0,-0.35396 0.119063,-0.64337 0.264584,-0.64337 0.145518,0 0.264583,0.0621 0.264583,0.13798 0,0.0759 0.425961,2.24879 0.946711,4.82865 l 0.947229,4.69066 -0.274402,4.10105 c -0.183689,2.74612 -0.187116,4.48602 -0.01033,5.26634 0.225491,0.99527 0.166544,1.44764 -0.404627,3.10162 -0.645679,1.87011 -0.743784,2.98521 -0.636654,7.24245 0.0128,0.50933 -0.01704,1.46183 -0.06615,2.11667 -0.06404,0.85453 0.08438,1.53393 0.52555,2.4076 0.56511,1.11914 0.583623,1.27919 0.227893,1.98438 -0.50828,1.00759 -0.731173,1.96114 -0.983403,4.20698 -0.114408,1.01864 -0.564467,2.86411 -0.99994,4.10104 -0.631108,1.79262 -0.816356,2.82609 -0.914154,5.09323 l -0.122991,2.84427 h 33.179888 33.17937 l -0.18449,-0.59531 c -0.10141,-0.32743 -0.47729,-1.17861 -0.8356,-1.89136 -0.43431,-0.8639 -0.60954,-1.56951 -0.52504,-2.11667 0.0775,-0.50196 -0.0219,-0.99027 -0.25631,-1.25677 -0.33499,-0.38082 -0.33115,-0.68778 0.03,-2.43602 0.55112,-2.66818 0.54366,-2.74569 -0.447,-4.83744 -0.68106,-1.43801 -0.8644,-2.17307 -0.8816,-3.53518 -0.0286,-2.26391 -0.36102,-5.0548 -0.76481,-6.42235 -0.29444,-0.99721 -0.2632,-1.23615 0.33228,-2.56418 0.36664,-0.81768 0.66434,-1.99038 0.67334,-2.65514 0.017,-1.21629 -0.957,-4.87893 -1.45779,-5.48235 -0.15266,-0.18395 -0.37499,-1.43656 -0.49403,-2.78381 -0.11903,-1.34726 -0.33594,-3.58055 -0.48214,-4.963 -0.21699,-2.05174 -0.41852,-10.53338 -0.31419,-13.22917 0.019,-0.49131 0.352,-0.0489 1.29449,1.71979 2.88659,5.41699 5.62707,9.33321 7.24555,10.35492 2.09192,1.32057 6.41282,1.92077 7.71013,1.07074 0.97379,-0.63805 1.92497,-2.40761 3.391,-6.31072 0.70973,-1.88954 1.70663,-4.26234 2.21537,-5.27255 2.57943,-5.12206 3.51825,-8.92872 4.07676,-16.52768 0.62864,-8.553133 0.77795,-9.827693 1.3162,-11.244273 0.30066,-0.79127 0.6212,-2.034386 0.7121,-2.762107 0.29278,-2.34438 1.24282,-3.667982 4.86223,-6.772711 3.46951,-2.976142 5.40008,-5.007459 8.22224,-8.651669 2.99257,-3.86426 3.62181,-5.109651 2.75022,-5.444111 -0.31999,-0.122791 -0.15401,-0.475459 0.79323,-1.682068 0.65914,-0.839631 1.19881,-1.620774 1.1989,-1.735812 2e-4,-0.257439 -1.09214,-1.83493 -1.45521,-2.10168 -0.55563,-0.408221 -1.63447,-0.173631 -2.51923,0.547769 -0.5061,0.41266 -1.31573,0.885518 -1.79937,1.0511 -0.50141,0.171669 -1.94416,1.355907 -3.35639,2.755386 -4.34164,4.30243 -5.60719,5.497338 -5.82341,5.497338 -0.11604,0 -0.81767,0.467741 -1.55908,1.039731 -1.53398,1.18346 -2.48906,1.606103 -3.63079,1.606103 -0.6325,0 -0.76634,-0.09432 -0.65681,-0.463021 0.5758,-1.938118 0.42064,-2.622116 -0.77256,-3.403926 -0.59119,-0.387321 -0.71058,-0.389154 -1.27847,-0.01705 -0.69958,0.45838 -0.94507,1.406385 -1.21801,2.493904 -0.8159,2.681835 -1.69279,3.423447 -3.44631,6.338631 -0.001,0.67805 0.52921,1.978567 0.91777,2.250509 0.17616,0.12328 0.11275,0.758613 -0.18551,1.852083 -0.2497,0.91544 -0.82258,3.033715 -1.27279,4.707205 -1.16026,4.312866 -3.11275,10.747426 -3.6034,11.875756 l -0.41548,0.956533 -0.30076,-0.661453 c -0.16518,-0.36381 -0.53224,-1.00416 -0.81597,-1.42317 -0.43234,-0.63846 -0.52177,-1.26282 -0.55087,-3.85403 -0.0327,-2.91346 -0.0919,-3.2361 -1.02784,-5.588288 -0.54629,-1.372941 -1.27421,-3.091278 -1.61747,-3.81889 -0.34326,-0.727599 -1.29956,-2.751667 -2.12545,-4.497917 -1.63694,-3.461109 -3.22405,-6.010153 -4.79506,-7.700303 -1.25394,-1.349042 -3.43127,-2.316131 -6.75153,-2.999301 -4.78219,-1.012476 -12.11941,-4.21604 -17.30592,-5.836854 -0.73729,0 -0.85574,-0.103084 -0.99063,-0.859895 -0.25085,-1.407438 -0.27318,-3.785045 -0.0393,-4.188373 0.11985,-0.206682 0.83465,-1.328195 1.58853,-2.492357 0.75387,-1.164169 1.63527,-2.751052 1.95854,-3.526398 1.39058,-3.335229 2.46265,-11.367677 1.85518,-13.899927 -0.21163,-0.881997 -0.26146,-2.36895 -0.14934,-4.453991 0.166,-3.087373 0.15719,-3.153079 -0.62374,-4.805907 -0.43544,-0.921613 -0.79168,-1.761861 -0.79168,-1.86707 0,-0.105211 -0.33493,-0.688779 -0.74414,-1.29708 -0.40922,-0.608303 -0.75978,-1.403532 -0.77928,-1.767334 -0.11464,-2.134831 -0.7697,-3.448093 -2.67064,-5.264277 l 0.68988,-2.249993 -7.21145,-2.218987 c -1.93787,-0.596247 -4.41889,-0.877568 -7.046068,-0.850594 z"
       inkscape:export-xdpi="53.18"
       inkscape:export-ydpi="53.18" />
  </g>
</svg>
