<?xml version="1.0"?>
<svg xmlns:rdf="http://www.w3.org/1999/02/22-rdf-syntax-ns#" xmlns="http://www.w3.org/2000/svg" xmlns:cc="http://web.resource.org/cc/" xmlns:dc="http://purl.org/dc/elements/1.1/" xmlns:svg="http://www.w3.org/2000/svg" id="svg2134" viewBox="0 0 237.02 194.42" version="1.0">
  <g id="layer1" transform="translate(-1338.2 -1060.4)">
    <path id="rect7531" stroke-linejoin="round" d="m1451.1 1062.5c-41 0.1-80.9 3.5-93.6 10.8-26.4 15.3-19.2 109.7 0 120.8 3.7 2.1 12.5 3.9 24.4 5.3-0.6 9.4 0.3 22.9 7.8 33.1 17.3 23.3 51 20 51 20s-31-12-39.2-29.9c-3.1-6.9-2.9-14.6-1.4-21.6 54.1 3.9 140.3 2 155.7-6.9 22.2-12.8 23.8-107.1 0-120.8-12-6.9-59-10.9-104.7-10.8z" stroke="#000" stroke-width="4.2733" fill="#fff"/>
  </g>
  <metadata>
    <rdf:RDF>
      <cc:Work>
        <dc:format>image/svg+xml</dc:format>
        <dc:type rdf:resource="http://purl.org/dc/dcmitype/StillImage"/>
        <cc:license rdf:resource="http://creativecommons.org/licenses/publicdomain/"/>
        <dc:publisher>
          <cc:Agent rdf:about="http://openclipart.org/">
            <dc:title>Openclipart</dc:title>
          </cc:Agent>
        </dc:publisher>
        <dc:title>comic clouds 6</dc:title>
        <dc:date>2006-12-26T00:00:00</dc:date>
        <dc:description>bubble, clip art, clipart, comic, speech, </dc:description>
        <dc:source>http://openclipart.org/detail/3484/-by--3484</dc:source>
        <dc:creator>
          <cc:Agent>
            <dc:title>SRD</dc:title>
          </cc:Agent>
        </dc:creator>
        <dc:subject>
          <rdf:Bag>
            <rdf:li>bubble</rdf:li>
            <rdf:li>clip art</rdf:li>
            <rdf:li>clipart</rdf:li>
            <rdf:li>comic</rdf:li>
            <rdf:li>speech</rdf:li>
          </rdf:Bag>
        </dc:subject>
      </cc:Work>
      <cc:License rdf:about="http://creativecommons.org/licenses/publicdomain/">
        <cc:permits rdf:resource="http://creativecommons.org/ns#Reproduction"/>
        <cc:permits rdf:resource="http://creativecommons.org/ns#Distribution"/>
        <cc:permits rdf:resource="http://creativecommons.org/ns#DerivativeWorks"/>
      </cc:License>
    </rdf:RDF>
  </metadata>
</svg>
