<?xml version="1.0" encoding="utf-8"?>
<!-- Generator: Adobe Illustrator 21.0.0, SVG Export Plug-In . SVG Version: 6.00 Build 0)  -->
<svg version="1.1" id="Layer_1" xmlns="http://www.w3.org/2000/svg" xmlns:xlink="http://www.w3.org/1999/xlink" x="0px" y="0px"
	 viewBox="0 0 24 24" style="enable-background:new 0 0 24 24;" xml:space="preserve">
<style type="text/css">
	.st0{fill:#017100;}
</style>
<title></title>
<g id="icomoon-ignore">
</g>
<g>
	<g>
		<path class="st0" d="M12.7,2c0,0.4,0,0.7,0,1c-0.4,0-0.7,0-1,0c0,0.4,0,0.7,0,1c-0.4,0-0.7,0-1,0c0,0.4,0,0.7,0,1
			c-0.4,0-0.7,0-1,0c0,0.4,0,0.7,0,1c-0.4,0-0.7,0-1,0c0,0.4,0,0.7,0,1c-0.4,0-0.7,0-1,0c0,0.4,0,0.7,0,1c-2.5,0-4.8,0-7.3,0
			c0,2.5,0,4.9,0,7.4c2.5,0,4.8,0,7.3,0c0,0.4,0,0.7,0,1c0.4,0,0.7,0,1,0c0,0.4,0,0.7,0,1c0.4,0,0.7,0,1,0c0,0.4,0,0.7,0,1
			c0.4,0,0.7,0,1,0c0,0.4,0,0.7,0,1c0.4,0,0.7,0,1,0c0,0.4,0,0.7,0,1c0.4,0,0.7,0,1,0c0,0.4,0,0.7,0,1c0.7,0,1.4,0,2.1,0
			c0-6.6,0.1-13.2,0.2-19.8C14,2.1,13.4,2.1,12.7,2z M12.6,19.1c-0.5,0-1,0-1.5,0c0-0.2,0-0.5,0-0.7c-0.2,0-0.5,0-0.7,0
			c0-0.2,0-0.5,0-0.7c-0.2,0-0.5,0-0.7,0c0-0.2,0-0.5,0-0.7c-0.2,0-0.5,0-0.7,0c0-0.2,0-0.5,0-0.7c-0.2,0-0.5,0-0.7,0
			c0-0.2,0-0.5,0-0.7c-0.2,0-0.5,0-0.7,0c0-0.2,0-0.5,0-0.7c-1.8,0-4.5,0-6.3,0c0-1.8,0-3.5,0-5.3c1.7,0,4.5,0,6.3,0
			c0-0.2,0-0.5,0-0.7c0.2,0,0.5,0,0.7,0C8,8.5,8,8.3,8,8c0.2,0,0.5,0,0.7,0c0-0.2,0-0.5,0-0.7c0.2,0,0.5,0,0.7,0c0-0.2,0-0.5,0-0.7
			c0.2,0,0.5,0,0.7,0c0-0.2,0-0.5,0-0.7c0.2,0,0.5,0,0.7,0c0-0.2,0-0.5,0-0.7c0.5,0,1,0,1.5,0C12.7,9.6,12.6,14.3,12.6,19.1z"/>
	</g>
	<g>
		<path class="st0" d="M21.5,2.8c-0.1,0-0.2,0-0.3,0c0,0.4,0,0.7,0,1c-0.4,0-0.7,0-1,0c0,0.4,0,0.7,0,1c-0.4,0-0.7,0-1,0
			c0,0.4,0,0.7,0,1c-0.4,0-0.7,0-1,0c0,0.4,0,0.7,0,1c-0.4,0-0.7,0-1,0c0,0.4,0,0.7,0,1c-0.2,0-0.5,0-0.7,0l0,1c0.2,0,0.5,0,0.7,0
			c0-0.2,0-0.5,0-0.7c0.2,0,0.5,0,0.7,0c0-0.2,0-0.5,0-0.7c0.2,0,0.5,0,0.7,0c0-0.2,0-0.5,0-0.7c0.2,0,0.5,0,0.7,0
			c0-0.2,0-0.5,0-0.7c0.2,0,0.5,0,0.7,0c0-0.2,0-0.5,0-0.7c0.2,0,0.5,0,0.7,0c0-0.2,0-0.5,0-0.7c0.2,0,0.5,0,0.7,0l0-1.6L21.5,2.8
			L21.5,2.8z"/>
		<path class="st0" d="M23.9,11.4c-0.1-0.1-0.1-0.1-0.2-0.2c-0.3,0.3-0.5,0.4-0.8,0.6c-0.3-0.3-0.4-0.5-0.6-0.8
			c-0.3,0.3-0.5,0.4-0.8,0.6c-0.3-0.3-0.4-0.5-0.6-0.8c-0.3,0.3-0.5,0.4-0.8,0.6c-0.3-0.3-0.4-0.5-0.6-0.8c-0.3,0.3-0.5,0.4-0.8,0.6
			c-0.3-0.3-0.4-0.5-0.6-0.8c-0.2,0.2-0.5,0.4-0.8,0.6c-0.1-0.2-0.3-0.4-0.4-0.5L16,11.3c0.1,0.2,0.3,0.4,0.4,0.5
			c0.2-0.2,0.4-0.3,0.6-0.4c0.1,0.2,0.3,0.4,0.4,0.6c0.2-0.2,0.4-0.3,0.6-0.4c0.2,0.2,0.3,0.4,0.5,0.6c0.2-0.2,0.4-0.3,0.6-0.4
			c0.2,0.2,0.3,0.4,0.5,0.6c0.2-0.2,0.4-0.3,0.6-0.5c0.2,0.2,0.3,0.4,0.4,0.6c0.2-0.2,0.4-0.3,0.6-0.4c0.2,0.2,0.3,0.4,0.5,0.6
			c0.2-0.2,0.4-0.3,0.6-0.4c0.2,0.2,0.3,0.4,0.5,0.6L23.9,11.4z"/>
		<path class="st0" d="M22,20.6l-0.1-1.8c-0.4,0-0.9,0-1.3,0c0-0.2,0-0.5,0-0.7c-0.2,0-0.5,0-0.7,0c0-0.2,0-0.5,0-0.7
			c-0.2,0-0.5,0-0.7,0c0-0.2,0-0.5,0-0.7c-0.2,0-0.5,0-0.7,0c0-0.2,0-0.5,0-0.7c-0.2,0-0.5,0-0.7,0c0-0.2,0-0.5,0-0.7
			c-0.2,0-0.5,0-0.7,0c0-0.2,0-0.5,0-0.7c-0.2,0-0.3,0-0.5,0l0,1c0.1,0,0.3,0,0.4,0c0,0.4,0,0.7,0,1c0.4,0,0.7,0,1,0
			c0,0.4,0,0.7,0,1c0.4,0,0.7,0,1,0c0,0.4,0,0.7,0,1c0.4,0,0.7,0,1,0c0,0.4,0,0.7,0,1c0.4,0,0.7,0,1,0c0,0.4,0,0.7,0,1
			C21.4,20.5,21.7,20.5,22,20.6z"/>
	</g>
</g>
</svg>
