<?xml version="1.0" encoding="UTF-8" standalone="no"?>
<svg
   xmlns:dc="http://purl.org/dc/elements/1.1/"
   xmlns:cc="http://creativecommons.org/ns#"
   xmlns:rdf="http://www.w3.org/1999/02/22-rdf-syntax-ns#"
   xmlns:svg="http://www.w3.org/2000/svg"
   xmlns="http://www.w3.org/2000/svg"
   xmlns:sodipodi="http://sodipodi.sourceforge.net/DTD/sodipodi-0.dtd"
   xmlns:inkscape="http://www.inkscape.org/namespaces/inkscape"
   sodipodi:docname="audio.svg"
   inkscape:version="1.0 (4035a4fb49, 2020-05-01)"
   id="svg309"
   version="1.1"
   viewBox="0 0 10.398125 8.5989584"
   height="8.598958mm"
   width="10.398125mm">
  <defs
     id="defs303" />
  <sodipodi:namedview
     inkscape:window-maximized="0"
     inkscape:window-y="48"
     inkscape:window-x="2040"
     inkscape:window-height="1002"
     inkscape:window-width="1215"
     fit-margin-bottom="0"
     fit-margin-right="0"
     fit-margin-left="0"
     fit-margin-top="0"
     showgrid="false"
     inkscape:document-rotation="0"
     inkscape:current-layer="layer1"
     inkscape:document-units="mm"
     inkscape:cy="12.816065"
     inkscape:cx="18.22345"
     inkscape:zoom="15.839192"
     inkscape:pageshadow="2"
     inkscape:pageopacity="0.0"
     borderopacity="1.0"
     bordercolor="#666666"
     pagecolor="#ffffff"
     id="base" />
  <metadata
     id="metadata306">
    <rdf:RDF>
      <cc:Work
         rdf:about="">
        <dc:format>image/svg+xml</dc:format>
        <dc:type
           rdf:resource="http://purl.org/dc/dcmitype/StillImage" />
        <dc:title></dc:title>
      </cc:Work>
    </rdf:RDF>
  </metadata>
  <g
     transform="translate(-90.954219,-104.00705)"
     id="layer1"
     inkscape:groupmode="layer"
     inkscape:label="Calque 1">
    <g
       style="fill:#006000;fill-opacity:1"
       transform="matrix(0.26458333,0,0,0.26458333,85.530261,40.903924)"
       id="g58">
      <g
         style="fill:#006000;fill-opacity:1"
         id="g48">
        <path
           style="fill:#006000;fill-opacity:1"
           id="path46"
           d="m 41.9,238.5 c 0,0.6 0,1.1 -0.1,1.7 -0.6,0 -1.1,0 -1.7,-0.1 0,0.6 0,1.1 -0.1,1.7 -0.6,0 -1.1,0 -1.7,-0.1 0,0.6 0,1.1 -0.1,1.7 -0.6,0 -1.1,0 -1.7,-0.1 0,0.6 0,1.1 -0.1,1.7 -0.6,0 -1.1,0 -1.7,-0.1 0,0.6 0,1.1 -0.1,1.7 -0.6,0 -1.1,0 -1.7,-0.1 0,0.6 0,1.1 -0.1,1.7 -4,-0.1 -7.9,-0.3 -11.9,-0.4 -0.1,4 -0.3,8 -0.4,12 4,0.1 7.9,0.3 11.9,0.4 0,0.6 0,1.1 -0.1,1.7 0.6,0 1.1,0 1.7,0.1 0,0.6 0,1.1 -0.1,1.7 0.6,0 1.1,0 1.7,0.1 0,0.6 0,1.1 -0.1,1.7 0.6,0 1.1,0 1.7,0.1 0,0.6 0,1.1 -0.1,1.7 0.6,0 1.1,0 1.7,0.1 0,0.6 0,1.1 -0.1,1.7 0.6,0 1.1,0 1.7,0.1 0,0.6 0,1.1 -0.1,1.7 1.2,0 2.3,0.1 3.4,0.1 0.4,-10.8 0.8,-21.5 1.2,-32.3 -0.8,-0.1 -1.9,-0.1 -3,-0.2 z m -1,27.8 c -0.8,0 -1.6,-0.1 -2.4,-0.1 0,-0.4 0,-0.8 0,-1.2 -0.4,0 -0.8,0 -1.2,0 0,-0.4 0,-0.8 0,-1.2 -0.4,0 -0.8,0 -1.2,0 0,-0.4 0,-0.8 0,-1.2 -0.4,0 -0.8,0 -1.2,0 0,-0.4 0,-0.8 0,-1.2 -0.4,0 -0.8,0 -1.2,0 0,-0.4 0,-0.8 0,-1.2 -0.4,0 -0.8,0 -1.2,0 0,-0.4 0,-0.8 0,-1.2 -2.9,-0.1 -7.4,-0.2 -10.3,-0.3 0.1,-2.9 0.2,-5.7 0.3,-8.6 2.8,0.1 7.4,0.2 10.3,0.3 0,-0.4 0,-0.8 0,-1.2 0.4,0 0.8,0 1.2,0 0,-0.4 0,-0.8 0,-1.2 0.4,0 0.8,0 1.2,0 0,-0.4 0,-0.8 0,-1.2 0.4,0 0.8,0 1.2,0 0,-0.4 0,-0.8 0,-1.2 0.4,0 0.8,0 1.2,0 0,-0.4 0,-0.8 0,-1.2 0.4,0 0.8,0 1.2,0 0,-0.4 0,-0.8 0,-1.2 0.8,0 1.6,0.1 2.5,0.1 0.2,7.5 -0.1,15.2 -0.4,23 z"
           class="st0" />
      </g>
      <g
         style="fill:#006000;fill-opacity:1"
         id="g56">
        <path
           style="fill:#006000;fill-opacity:1"
           id="path50"
           d="m 56.2,240.1 c -0.2,0 -0.3,0 -0.5,0 0,0.6 0,1.1 -0.1,1.7 -0.6,0 -1.1,0 -1.7,-0.1 0,0.6 0,1.1 -0.1,1.7 -0.6,0 -1.1,0 -1.7,-0.1 0,0.6 0,1.1 -0.1,1.7 -0.6,0 -1.1,0 -1.7,-0.1 0,0.6 0,1.1 -0.1,1.7 -0.6,0 -1.1,0 -1.7,-0.1 0,0.6 0,1.1 -0.1,1.7 -0.4,0 -0.8,0 -1.2,0 v 1.7 c 0.4,0 0.8,0 1.1,0 0,-0.4 0,-0.8 0,-1.2 0.4,0 0.8,0 1.2,0 0,-0.4 0,-0.8 0,-1.2 0.4,0 0.8,0 1.2,0 0,-0.4 0,-0.8 0,-1.2 0.4,0 0.8,0 1.2,0 0,-0.4 0,-0.8 0,-1.2 0.4,0 0.8,0 1.2,0 0,-0.4 0,-0.8 0,-1.2 0.4,0 0.8,0 1.2,0 0,-0.4 0,-0.8 0,-1.2 0.4,0 0.8,0 1.2,0 v -2.6 z"
           class="st0" />
        <path
           style="fill:#006000;fill-opacity:1"
           id="path52"
           d="m 59.8,254.3 c -0.1,-0.1 -0.2,-0.2 -0.3,-0.4 -0.5,0.4 -0.9,0.7 -1.3,1 -0.4,-0.5 -0.7,-0.9 -1,-1.3 -0.5,0.4 -0.9,0.7 -1.4,1 -0.4,-0.5 -0.7,-0.9 -1,-1.3 -0.5,0.4 -0.9,0.7 -1.3,1 -0.4,-0.5 -0.7,-0.9 -1,-1.4 -0.5,0.4 -0.9,0.7 -1.3,1 -0.4,-0.5 -0.7,-0.9 -1,-1.3 -0.4,0.3 -0.9,0.7 -1.3,1 -0.2,-0.3 -0.5,-0.6 -0.7,-0.9 l -1.3,1.1 c 0.2,0.3 0.5,0.6 0.7,0.9 0.3,-0.3 0.6,-0.5 1,-0.7 0.2,0.3 0.5,0.6 0.7,1 0.3,-0.3 0.6,-0.5 1,-0.7 0.3,0.3 0.5,0.6 0.8,1 0.3,-0.3 0.6,-0.5 1,-0.7 0.3,0.3 0.5,0.6 0.8,1 0.3,-0.3 0.6,-0.5 1,-0.8 0.3,0.3 0.5,0.6 0.7,1 0.3,-0.3 0.6,-0.5 1,-0.7 0.3,0.3 0.5,0.6 0.8,1 0.3,-0.3 0.6,-0.5 1,-0.7 0.3,0.3 0.5,0.7 0.8,1 z"
           class="st0" />
        <path
           style="fill:#006000;fill-opacity:1"
           id="path54"
           d="m 56.2,269.1 v -2.9 c -0.7,0 -1.4,-0.1 -2.1,-0.1 0,-0.4 0,-0.8 0,-1.2 -0.4,0 -0.8,0 -1.2,0 0,-0.4 0,-0.8 0,-1.2 -0.4,0 -0.8,0 -1.2,0 0,-0.4 0,-0.8 0,-1.2 -0.4,0 -0.8,0 -1.2,0 0,-0.4 0,-0.8 0,-1.2 -0.4,0 -0.8,0 -1.2,0 0,-0.4 0,-0.8 0,-1.2 -0.4,0 -0.8,0 -1.2,0 0,-0.4 0,-0.8 0,-1.2 -0.3,0 -0.5,0 -0.8,0 v 1.7 c 0.2,0 0.5,0 0.7,0 0,0.6 0,1.1 -0.1,1.7 0.6,0 1.1,0 1.7,0.1 0,0.6 0,1.1 -0.1,1.7 0.6,0 1.1,0 1.7,0.1 0,0.6 0,1.1 -0.1,1.7 0.6,0 1.1,0 1.7,0.1 0,0.6 0,1.1 -0.1,1.7 0.6,0 1.1,0 1.7,0.1 0,0.6 0,1.1 -0.1,1.7 0.9,-0.5 1.4,-0.5 1.9,-0.4 z"
           class="st0" />
      </g>
    </g>
  </g>
</svg>
