<?xml version="1.0" encoding="UTF-8" standalone="no"?>
<svg
   xmlns:dc="http://purl.org/dc/elements/1.1/"
   xmlns:cc="http://creativecommons.org/ns#"
   xmlns:rdf="http://www.w3.org/1999/02/22-rdf-syntax-ns#"
   xmlns:svg="http://www.w3.org/2000/svg"
   xmlns="http://www.w3.org/2000/svg"
   xmlns:sodipodi="http://sodipodi.sourceforge.net/DTD/sodipodi-0.dtd"
   xmlns:inkscape="http://www.inkscape.org/namespaces/inkscape"
   sodipodi:docname="avatar.svg"
   inkscape:version="1.0 (4035a4fb49, 2020-05-01)"
   id="svg309"
   version="1.1"
   viewBox="0 0 9.2339581 8.5195837"
   height="8.5195837mm"
   width="9.2339582mm">
  <defs
     id="defs303" />
  <sodipodi:namedview
     inkscape:window-maximized="0"
     inkscape:window-y="59"
     inkscape:window-x="2047"
     inkscape:window-height="1002"
     inkscape:window-width="1215"
     fit-margin-bottom="0"
     fit-margin-right="0"
     fit-margin-left="0"
     fit-margin-top="0"
     showgrid="false"
     inkscape:document-rotation="0"
     inkscape:current-layer="layer1"
     inkscape:document-units="mm"
     inkscape:cy="24.556673"
     inkscape:cx="18.59056"
     inkscape:zoom="15.839192"
     inkscape:pageshadow="2"
     inkscape:pageopacity="0.0"
     borderopacity="1.0"
     bordercolor="#666666"
     pagecolor="#ffffff"
     id="base" />
  <metadata
     id="metadata306">
    <rdf:RDF>
      <cc:Work
         rdf:about="">
        <dc:format>image/svg+xml</dc:format>
        <dc:type
           rdf:resource="http://purl.org/dc/dcmitype/StillImage" />
        <dc:title></dc:title>
      </cc:Work>
    </rdf:RDF>
  </metadata>
  <g
     transform="translate(-89.565238,-105.23235)"
     id="layer1"
     inkscape:groupmode="layer"
     inkscape:label="Calque 1">
    <g
       style="fill:#006000;fill-opacity:1;stroke-width:0.999999"
       transform="matrix(0.26458333,0,0,0.26458333,83.770863,74.037979)"
       id="g24">
      <g
         style="fill:#006000;fill-opacity:1;stroke-width:0.999999"
         id="g12">
        <path
           style="fill:#006000;fill-opacity:1;stroke-width:0.999999"
           class="st0"
           d="m 53.8,150.1 c -9.6,0 -19.3,0 -28.9,0 0,-0.3 0,-0.6 0,-0.9 -0.4,0 -0.8,0 -1.2,0 0,-0.3 0,-0.6 0,-0.9 -0.4,0 -0.8,0 -1.2,0 0,-7.3 0,-14.6 0,-21.8 0.4,0 0.8,0 1.2,0 0,-0.3 0,-0.6 0,-0.9 0.4,0 0.7,0 1.1,0 0,-0.3 0,-0.6 0,-0.9 9.6,0 19.3,0 28.9,0 0,0.3 0,0.6 0,0.9 0.4,0 0.8,0 1.2,0 0,0.3 0,0.6 0,0.9 0.4,0 0.8,0 1.2,0 0,7.3 0,14.6 0,21.8 -0.4,0 -0.8,0 -1.2,0 0,0.3 0,0.6 0,0.9 -0.4,0 -0.7,0 -1.1,0 0,0.4 0,0.7 0,0.9 z m 0,-23.5 c -9.7,0 -19.3,0 -28.9,0 0,7.3 0,14.5 0,21.8 9.6,0 19.2,0 28.9,0 0,-7.3 0,-14.5 0,-21.8 z"
           id="path10" />
      </g>
      <g
         style="fill:#006000;fill-opacity:1;stroke-width:0.999999"
         id="g22">
        <path
           style="fill:#006000;fill-opacity:1;stroke-width:0.999999"
           class="st0"
           d="m 51.1,120.3 c 0,-0.9 0,-1.6 0,-2.4 1,0 1.9,0 2.9,0 0,1.6 0,3.1 0,4.8 1,0 1.9,0 2.8,0 0,1.7 0,3.2 0,4.9 -11.6,0 -23.2,0 -34.9,0 0,-1.6 0,-3.1 0,-4.8 0.9,0 1.8,-0.1 2.9,-0.1 0,-1.6 0,-3.2 0,-4.8 1,0 1.9,0 2.9,0 0,0.8 0,1.6 0,2.4 7.8,0 15.5,0 23.4,0 z"
           id="path14" />
        <path
           style="fill:#006000;fill-opacity:1;stroke-width:0.999999"
           class="st0"
           d="m 31,142.7 c 5.7,0 11.3,0 17,0 0,0.7 0,1.4 0,2.1 -0.5,0 -1,0.1 -1.5,0.1 -4.5,0 -9,0 -13.6,0 -2.4,0 -2.5,-0.1 -1.9,-2.2 z"
           id="path16" />
        <path
           style="fill:#006000;fill-opacity:1;stroke-width:0.999999"
           class="st0"
           d="m 48.2,132.6 c 0,-0.8 0,-1.6 0,-2.4 0.9,0 1.8,0 2.8,0 0,0.8 0,1.5 0,2.4 -0.9,0 -1.8,0 -2.8,0 z"
           id="path18" />
        <path
           style="fill:#006000;fill-opacity:1;stroke-width:0.999999"
           class="st0"
           d="m 31,130.2 c 0,0.9 0,1.6 0,2.3 -0.9,0 -1.8,0 -2.8,0 0,-0.8 0,-1.5 0,-2.3 0.9,0 1.8,0 2.8,0 z"
           id="path20" />
      </g>
    </g>
  </g>
</svg>
