<?xml version="1.0" encoding="UTF-8" standalone="no"?>
<svg
   xmlns:dc="http://purl.org/dc/elements/1.1/"
   xmlns:cc="http://creativecommons.org/ns#"
   xmlns:rdf="http://www.w3.org/1999/02/22-rdf-syntax-ns#"
   xmlns:svg="http://www.w3.org/2000/svg"
   xmlns="http://www.w3.org/2000/svg"
   xmlns:sodipodi="http://sodipodi.sourceforge.net/DTD/sodipodi-0.dtd"
   xmlns:inkscape="http://www.inkscape.org/namespaces/inkscape"
   sodipodi:docname="backdrop.svg"
   inkscape:version="1.0 (4035a4fb49, 2020-05-01)"
   id="svg309"
   version="1.1"
   viewBox="0 0 10.451042 6.6675"
   height="6.6675mm"
   width="10.451042mm">
  <defs
     id="defs303" />
  <sodipodi:namedview
     inkscape:window-maximized="0"
     inkscape:window-y="28"
     inkscape:window-x="0"
     inkscape:window-height="1032"
     inkscape:window-width="958"
     fit-margin-bottom="0"
     fit-margin-right="0"
     fit-margin-left="0"
     fit-margin-top="0"
     showgrid="false"
     inkscape:document-rotation="0"
     inkscape:current-layer="layer1"
     inkscape:document-units="mm"
     inkscape:cy="126.64171"
     inkscape:cx="-67.209372"
     inkscape:zoom="1.4"
     inkscape:pageshadow="2"
     inkscape:pageopacity="0.0"
     borderopacity="1.0"
     bordercolor="#666666"
     pagecolor="#ffffff"
     id="base" />
  <metadata
     id="metadata306">
    <rdf:RDF>
      <cc:Work
         rdf:about="">
        <dc:format>image/svg+xml</dc:format>
        <dc:type
           rdf:resource="http://purl.org/dc/dcmitype/StillImage" />
        <dc:title></dc:title>
      </cc:Work>
    </rdf:RDF>
  </metadata>
  <g
     transform="translate(-83.97686,-107.0353)"
     id="layer1"
     inkscape:groupmode="layer"
     inkscape:label="Calque 1">
    <path
       style="fill:#006000;stroke-width:0.264583"
       class="st0"
       d="m 93.713527,113.7028 c -2.989792,0 -5.979584,0 -8.995834,0 0,-0.0794 0,-0.15875 0,-0.23813 -0.132291,0 -0.238125,0 -0.370416,0 0,-0.0794 0,-0.15875 0,-0.23812 -0.132292,0 -0.238125,0 -0.370417,0 0,-1.905 0,-3.81 0,-5.715 0.105833,0 0.238125,0 0.370417,0 0,-0.0794 0,-0.15875 0,-0.23813 0.132291,0 0.238125,0 0.343958,0 0,-0.0794 0,-0.15875 0,-0.23812 2.989792,0 5.979583,0 8.995833,0 0,0.0794 0,0.15875 0,0.23812 0.132292,0 0.238125,0 0.370417,0 0,0.0794 0,0.15875 0,0.23813 0.132292,0 0.238125,0 0.370417,0 0,1.905 0,3.81 0,5.715 -0.105834,0 -0.238125,0 -0.370417,0 0,0.0794 0,0.15875 0,0.23812 -0.132292,0 -0.238125,0 -0.343958,0 0,0.10584 0,0.18521 0,0.23813 z m 0,-6.13834 c -2.989792,0 -5.979584,0 -8.969375,0 0,1.905 0,3.78355 0,5.68855 2.989791,0 5.979583,0 8.969375,0 0,-1.905 0,-3.78355 0,-5.68855 z"
       id="path6" />
  </g>
</svg>
