<?xml version="1.0" encoding="UTF-8" standalone="no"?>
<svg
   xmlns:dc="http://purl.org/dc/elements/1.1/"
   xmlns:cc="http://creativecommons.org/ns#"
   xmlns:rdf="http://www.w3.org/1999/02/22-rdf-syntax-ns#"
   xmlns:svg="http://www.w3.org/2000/svg"
   xmlns="http://www.w3.org/2000/svg"
   xmlns:sodipodi="http://sodipodi.sourceforge.net/DTD/sodipodi-0.dtd"
   xmlns:inkscape="http://www.inkscape.org/namespaces/inkscape"
   sodipodi:docname="change-nickname2.svg"
   inkscape:version="1.0.2 (e86c870879, 2021-01-15)"
   id="svg309"
   version="1.1"
   viewBox="0 0 10.34521 6.0060386"
   height="6.0060382mm"
   width="10.345209mm">
  <defs
     id="defs303" />
  <sodipodi:namedview
     inkscape:window-maximized="1"
     inkscape:window-y="28"
     inkscape:window-x="1920"
     inkscape:window-height="1029"
     inkscape:window-width="1920"
     fit-margin-bottom="0"
     fit-margin-right="0"
     fit-margin-left="0"
     fit-margin-top="0"
     showgrid="false"
     inkscape:document-rotation="0"
     inkscape:current-layer="layer1"
     inkscape:document-units="mm"
     inkscape:cy="5.5506125"
     inkscape:cx="-102.63024"
     inkscape:zoom="2.7359919"
     inkscape:pageshadow="2"
     inkscape:pageopacity="0.0"
     borderopacity="1.0"
     bordercolor="#666666"
     pagecolor="#ffffff"
     id="base" />
  <metadata
     id="metadata306">
    <rdf:RDF>
      <cc:Work
         rdf:about="">
        <dc:format>image/svg+xml</dc:format>
        <dc:type
           rdf:resource="http://purl.org/dc/dcmitype/StillImage" />
        <dc:title></dc:title>
      </cc:Work>
    </rdf:RDF>
  </metadata>
  <g
     transform="translate(-111.76721,-110.89321)"
     id="layer1"
     inkscape:groupmode="layer"
     inkscape:label="Calque 1">
    <g
       transform="matrix(0.26458333,0,0,0.26458333,132.90742,40.990288)"
       id="g690">
      <rect
         height="1.4"
         width="1.3"
         class="st11"
         y="265.60001"
         x="-43.5"
         id="rect670" />
      <rect
         height="1.4"
         width="1.3"
         class="st11"
         y="265.60001"
         x="-78.5"
         id="rect672" />
      <rect
         height="1.4"
         width="1.3"
         class="st11"
         y="276.20001"
         x="-43.5"
         id="rect674" />
      <polygon
         points="-56.5,284.1 -55.2,284.1 -55.2,282.7 -56.5,282.7 -56.5,281.3 -57.9,281.3 -57.9,279.1 -57.9,277.6 -59.2,277.6 -77.2,277.6 -77.2,279.1 -59.2,279.1 -59.2,281.3 -57.9,281.3 -57.9,282.7 -56.5,282.7 "
         class="st11"
         id="polygon676" />
      <rect
         height="1.4"
         width="1.3"
         class="st11"
         y="285.5"
         x="-51.099998"
         id="rect678" />
      <rect
         height="1.4"
         width="1.3"
         class="st11"
         y="276.20001"
         x="-78.5"
         id="rect680" />
      <rect
         height="9.1000004"
         width="1.3"
         class="st11"
         y="267"
         x="-79.900002"
         id="rect682" />
      <rect
         height="9.1000004"
         width="1.3"
         class="st11"
         y="267"
         x="-42.099998"
         id="rect684" />
      <rect
         height="1.4"
         width="33.799999"
         class="st11"
         y="264.20001"
         x="-77.199997"
         id="rect686" />
      <polygon
         points="-52.5,279 -43.5,279 -43.5,277.6 -53.8,277.6 -53.8,281.3 -52.5,281.3 -52.5,284.1 -55.2,284.1 -55.2,285.5 -52.5,285.5 -51.3,285.5 -51.1,285.5 -51.1,281.3 -52.5,281.3 "
         class="st11"
         id="polygon688" />
    </g>
  </g>
</svg>
