<?xml version="1.0" encoding="utf-8"?>
<!-- Generator: Adobe Illustrator 21.0.0, SVG Export Plug-In . SVG Version: 6.00 Build 0)  -->
<svg version="1.1"
	 id="svg309" inkscape:version="1.0.2 (e86c870879, 2021-01-15)" sodipodi:docname="brring-to-front.svg" xmlns:cc="http://creativecommons.org/ns#" xmlns:dc="http://purl.org/dc/elements/1.1/" xmlns:inkscape="http://www.inkscape.org/namespaces/inkscape" xmlns:rdf="http://www.w3.org/1999/02/22-rdf-syntax-ns#" xmlns:sodipodi="http://sodipodi.sourceforge.net/DTD/sodipodi-0.dtd" xmlns:svg="http://www.w3.org/2000/svg"
	 xmlns="http://www.w3.org/2000/svg" xmlns:xlink="http://www.w3.org/1999/xlink" x="0px" y="0px" viewBox="0 0 15.3 15.6"
	 style="enable-background:new 0 0 15.3 15.6;" xml:space="preserve">
<style type="text/css">
	.st0{fill:#DB3737;}
</style>
<sodipodi:namedview  bordercolor="#666666" borderopacity="1.0" fit-margin-bottom="0" fit-margin-left="0" fit-margin-right="0" fit-margin-top="0" id="base" inkscape:current-layer="layer1" inkscape:cx="-71.010477" inkscape:cy="39.522393" inkscape:document-rotation="0" inkscape:document-units="mm" inkscape:pageopacity="0.0" inkscape:pageshadow="2" inkscape:window-height="1029" inkscape:window-maximized="1" inkscape:window-width="1920" inkscape:window-x="1920" inkscape:window-y="28" inkscape:zoom="2.7359919" pagecolor="#ffffff" showgrid="false">
	</sodipodi:namedview>
<g>
	<g>
		<g>
			<g>
				<path class="st0" d="M5.4,2.8c0-0.5,0-0.9,0-1.4c1.4,0,2.9,0,4.3,0c0,0.5,0,0.9,0,1.4l0,0C8.3,2.8,6.8,2.8,5.4,2.8L5.4,2.8z"/>
				<path class="st0" d="M2.6,9.9c-0.5,0-0.9,0-1.4,0c0-1.4,0-2.9,0-4.3c0.5,0,0.9,0,1.4,0l0,0C2.6,7.1,2.6,8.5,2.6,9.9L2.6,9.9z"/>
				<path class="st0" d="M12.6,5.7c0.5,0,0.9,0,1.4,0c0,1.4,0,2.9,0,4.3c-0.5,0-0.9,0-1.4,0l0,0C12.6,8.5,12.6,7.1,12.6,5.7
					L12.6,5.7z"/>
				<path class="st0" d="M9.7,12.8c0,0.5,0,0.9,0,1.4c-1.4,0-2.9,0-4.3,0c0-0.5,0-0.9,0-1.4l0,0C6.8,12.8,8.3,12.8,9.7,12.8
					L9.7,12.8z"/>
				<path class="st0" d="M2.6,5.7c0-0.8,0-1.7,0-2.5c0-0.1,0-0.2,0-0.3c0.1,0,0.1,0,0.1,0c0.8,0,1.8,0,2.6,0h0.1l0,0
					c0,0.5,0,0.9,0,1.4c-0.5,0-0.9,0-1.4,0c0,0.5,0,0.9,0,1.4C3.6,5.7,3.1,5.7,2.6,5.7L2.6,5.7z"/>
				<path class="st0" d="M9.7,2.8c0.8,0,1.6,0,2.4,0c0.2,0,0.3,0,0.5,0c0,0.9,0,1.9,0,2.9l0,0c-0.5,0-0.9,0-1.4,0c0-0.5,0-0.9,0-1.4
					c-0.5,0-0.9,0-1.4,0C9.7,3.7,9.7,3.3,9.7,2.8L9.7,2.8z"/>
				<path class="st0" d="M5.4,12.8c-0.8,0-1.7,0-2.5,0c-0.1,0-0.3,0-0.3,0c0-0.1,0-0.2,0-0.3c0-0.8,0-1.7,0-2.5V9.9l0,0
					c0.5,0,0.9,0,1.4,0c0,0.5,0,0.9,0,1.4c0.5,0,0.9,0,1.4,0C5.4,11.8,5.4,12.3,5.4,12.8L5.4,12.8z"/>
				<path class="st0" d="M12.6,9.9c0,0.9,0,1.9,0,2.8l0,0l0,0c-0.9,0-1.9,0-2.8,0l0,0c0-0.5,0-0.9,0-1.4c0.5,0,0.9,0,1.4,0
					c0-0.5,0-0.9,0-1.4C11.7,9.9,12.1,9.9,12.6,9.9L12.6,9.9z"/>
			</g>
		</g>
	</g>
	<g>
		<rect x="7.9" y="6.6" class="st0" width="1.3" height="1.4"/>
		<rect x="5.3" y="9.4" class="st0" width="1.3" height="1.4"/>
		<rect x="6.6" y="8" class="st0" width="1.3" height="1.4"/>
		<rect x="9.2" y="5.2" class="st0" width="1.3" height="1.4"/>
	</g>
	<g>
		<rect x="14" y="0" class="st0" width="1.3" height="1.4"/>
		<rect x="12.6" y="1.4" class="st0" width="1.3" height="1.4"/>
	</g>
	<g>
		<rect x="0" y="14.2" class="st0" width="1.3" height="1.4"/>
		<rect x="1.3" y="12.7" class="st0" width="1.3" height="1.4"/>
	</g>
</g>
</svg>
