<svg id="svg309" xmlns="http://www.w3.org/2000/svg" viewBox="0 0 9.58 12.2"><defs><style>.cls-1{fill:#017100;}</style></defs><title>Close Setting</title><path class="cls-1" d="M0,4.77V2H1.33V4.77Zm0,9.46V11.49H1.33v2.74ZM1.33,6.14V4.77H2.7V6.14Zm0,5.48V10.25H2.7v1.37ZM2.7,7.51V6.14H4.07V7.51Zm0,2.74V8.88H4.07v1.37ZM4.07,8.88V7.51H5.43V8.88ZM5.43,7.51V6.14H6.8V7.51Zm0,2.74V8.88H6.8v1.37ZM6.8,6.14V4.77H8.17V6.14Zm0,5.48V10.25H8.17v1.37ZM8.17,4.77V2H9.54V4.77Zm0,9.46V11.49H9.54v2.74Z" transform="translate(0.04 -2.03)"/></svg>