<?xml version="1.0" encoding="utf-8"?>
<!-- Generator: Adobe Illustrator 21.0.0, SVG Export Plug-In . SVG Version: 6.00 Build 0)  -->
<svg version="1.1" id="Layer_1" xmlns="http://www.w3.org/2000/svg" xmlns:xlink="http://www.w3.org/1999/xlink" x="0px" y="0px"
	 viewBox="0 0 24 24" style="enable-background:new 0 0 24 24;" xml:space="preserve">
<style type="text/css">
	.st0{fill:#FFFFFF;}
	.st1{fill:#017100;}
	.st2{fill:none;}
</style>
<title></title>
<g id="icomoon-ignore">
</g>
<g>
	<path id="path987" d="M3.4,22.6c0-5.7,0-11.4,0-17.2c0.2,0,0.3,0,0.5,0c0-0.3,0-0.5,0-0.8c0.2,0,0.3,0,0.5,0c0-0.3,0-0.5,0-0.8
		C8,4,11.7,4,15.2,4c0,0.2,0,0.5,0,0.8c0.2,0,0.3,0,0.5,0c0,0.3,0,0.5,0,0.7c0.2,0,0.3,0,0.5,0c0,5.7,0,11.4,0,17.2
		c-0.2,0-0.3,0-0.5,0c0,0.3,0,0.5,0,0.8c-0.2,0-0.3,0-0.5,0c0,0.3,0,0.5,0,0.8c-3.7,0-7.3,0-10.9,0c0-0.2,0-0.5,0-0.8
		c-0.2,0-0.3,0-0.5,0c0-0.3,0-0.5,0-0.7C3.7,22.6,3.5,22.6,3.4,22.6z M15.1,22.6c0-5.7,0-11.4,0-17.2c-3.7,0-7.2,0-10.9,0
		c0,5.7,0,11.4,0,17.2C7.9,22.6,11.5,22.6,15.1,22.6z"/>
	<rect id="rect989" x="4.3" y="5.5" class="st0" width="10.9" height="17.2"/>
	<path id="path941" d="M5.7,20.9c0-5.7,0-11.4,0-17.2c0.2,0,0.3,0,0.5,0c0-0.3,0-0.5,0-0.8c0.2,0,0.3,0,0.5,0c0-0.3,0-0.5,0-0.8
		c3.7,0,7.3,0,10.9,0c0,0.2,0,0.5,0,0.8c0.2,0,0.3,0,0.5,0c0,0.3,0,0.5,0,0.7c0.2,0,0.3,0,0.5,0c0,5.7,0,11.4,0,17.2
		c-0.2,0-0.3,0-0.5,0c0,0.3,0,0.5,0,0.8c-0.2,0-0.3,0-0.5,0c0,0.3,0,0.5,0,0.8c-3.7,0-7.3,0-10.9,0c0-0.2,0-0.5,0-0.8
		c-0.2,0-0.3,0-0.5,0c0-0.3,0-0.5,0-0.7C6,20.9,5.8,20.9,5.7,20.9z M17.4,20.9c0-5.7,0-11.4,0-17.2c-3.7,0-7.2,0-10.9,0
		c0,5.7,0,11.4,0,17.2C10.2,20.9,13.7,20.9,17.4,20.9z"/>
	<rect id="rect945" x="6.5" y="3.7" class="st1" width="10.9" height="17.2"/>
	<path id="path949" d="M7.8,18.7c0-5.7,0-11.4,0-17.2c0.2,0,0.3,0,0.5,0c0-0.3,0-0.5,0-0.8c0.2,0,0.3,0,0.5,0c0-0.3,0-0.5,0-0.8
		c3.7,0,7.3,0,10.9,0c0,0.2,0,0.5,0,0.8c0.2,0,0.3,0,0.5,0c0,0.3,0,0.5,0,0.7c0.2,0,0.3,0,0.5,0c0,5.7,0,11.4,0,17.2
		c-0.2,0-0.3,0-0.5,0c0,0.3,0,0.5,0,0.8c-0.2,0-0.3,0-0.5,0c0,0.3,0,0.5,0,0.8c-3.7,0-7.3,0-10.9,0c0-0.2,0-0.5,0-0.8
		c-0.2,0-0.3,0-0.5,0c0-0.3,0-0.5,0-0.7C8.1,18.7,8,18.7,7.8,18.7z M19.5,18.7c0-5.7,0-11.4,0-17.2c-3.7,0-7.2,0-10.9,0
		c0,5.7,0,11.4,0,17.2C12.3,18.7,16,18.7,19.5,18.7z"/>
	<rect id="rect953" x="8.8" y="1.5" class="st0" width="10.9" height="17.2"/>
</g>
<line class="st2" x1="12.4" y1="7.4" x2="12.3" y2="7.5"/>
</svg>
