<?xml version="1.0" encoding="utf-8"?>
<!-- Generator: Adobe Illustrator 21.0.0, SVG Export Plug-In . SVG Version: 6.00 Build 0)  -->
<svg version="1.1"
	 id="svg309" inkscape:version="1.0.2 (e86c870879, 2021-01-15)" sodipodi:docname="brring-to-front.svg" xmlns:cc="http://creativecommons.org/ns#" xmlns:dc="http://purl.org/dc/elements/1.1/" xmlns:inkscape="http://www.inkscape.org/namespaces/inkscape" xmlns:rdf="http://www.w3.org/1999/02/22-rdf-syntax-ns#" xmlns:sodipodi="http://sodipodi.sourceforge.net/DTD/sodipodi-0.dtd" xmlns:svg="http://www.w3.org/2000/svg"
	 xmlns="http://www.w3.org/2000/svg" xmlns:xlink="http://www.w3.org/1999/xlink" x="0px" y="0px" viewBox="0 0 9.5 16.7"
	 style="enable-background:new 0 0 9.5 16.7;" xml:space="preserve">
<style type="text/css">
	.st0{fill:#017100;}
	.st1{fill:#EEEEEC;}
</style>
<sodipodi:namedview  bordercolor="#666666" borderopacity="1.0" fit-margin-bottom="0" fit-margin-left="0" fit-margin-right="0" fit-margin-top="0" id="base" inkscape:current-layer="layer1" inkscape:cx="-71.010477" inkscape:cy="39.522393" inkscape:document-rotation="0" inkscape:document-units="mm" inkscape:pageopacity="0.0" inkscape:pageshadow="2" inkscape:window-height="1029" inkscape:window-maximized="1" inkscape:window-width="1920" inkscape:window-x="1920" inkscape:window-y="28" inkscape:zoom="2.7359919" pagecolor="#ffffff" showgrid="false">
	</sodipodi:namedview>
<circle class="st0" cx="4.8" cy="8.3" r="4.7"/>
<g>
	<g>
		<g>
			<g>
				<path class="st1" d="M5.5,8.1c0-0.2,0-0.4,0-0.6c0.2,0,0.5,0,0.7,0c0,0.2,0,0.4,0,0.6C6,8.1,5.8,8.1,5.5,8.1z"/>
				<path class="st1" d="M4,7.4C4,7.7,4,7.8,4,8C3.8,8,3.5,8,3.3,8c0-0.2,0-0.4,0-0.6C3.5,7.4,3.7,7.4,4,7.4z"/>
			</g>
		</g>
	</g>
	<g>
		<g>
			<path class="st1" d="M5.4,9.9c0,0.1,0,0.2,0,0.4c-0.4,0-0.8,0-1.2,0c0-0.1,0-0.3,0-0.4l0,0C4.6,9.9,5,9.9,5.4,9.9L5.4,9.9z"/>
			<path class="st1" d="M6.1,9.2c0,0.2,0,0.4,0,0.6c0,0,0,0.1,0,0.1c-0.3,0-0.5,0-0.8,0l0,0c0-0.1,0-0.2,0-0.4c0.1,0,0.2,0,0.4,0
				c0-0.1,0-0.3,0-0.4C5.9,9.2,6,9.2,6.1,9.2L6.1,9.2z"/>
			<path class="st1" d="M4.2,9.9c-0.2,0-0.5,0-0.8,0l0,0l0,0c0-0.2,0-0.5,0-0.8l0,0c0.1,0,0.2,0,0.4,0c0,0.1,0,0.2,0,0.4
				c0.1,0,0.3,0,0.4,0C4.2,9.6,4.2,9.8,4.2,9.9L4.2,9.9z"/>
		</g>
	</g>
	<g>
		<g>
			<path class="st1" d="M3.6,5.7c0-0.3,0-0.5,0-0.8c0.8,0,1.6,0,2.3,0c0,0.3,0,0.5,0,0.8l0,0C5.1,5.7,4.4,5.7,3.6,5.7L3.6,5.7z"/>
			<path class="st1" d="M2.1,9.6c-0.3,0-0.5,0-0.8,0c0-0.8,0-1.6,0-2.3c0.3,0,0.5,0,0.8,0l0,0C2.1,8.1,2.1,8.8,2.1,9.6L2.1,9.6z"/>
			<path class="st1" d="M7.5,7.3c0.3,0,0.5,0,0.8,0c0,0.8,0,1.6,0,2.3c-0.3,0-0.5,0-0.8,0l0,0C7.5,8.8,7.5,8.1,7.5,7.3L7.5,7.3z"/>
			<path class="st1" d="M5.9,11.1c0,0.3,0,0.5,0,0.8c-0.8,0-1.6,0-2.3,0c0-0.3,0-0.5,0-0.8l0,0C4.4,11.1,5.1,11.1,5.9,11.1L5.9,11.1
				z"/>
			<path class="st1" d="M2.1,7.3c0-0.4,0-0.9,0-1.4c0,0,0-0.1,0-0.2c0,0,0,0,0,0c0.4,0,1,0,1.4,0h0l0,0c0,0.3,0,0.5,0,0.8
				c-0.3,0-0.5,0-0.8,0c0,0.3,0,0.5,0,0.8C2.6,7.3,2.3,7.3,2.1,7.3L2.1,7.3z"/>
			<path class="st1" d="M5.9,5.7c0.4,0,0.9,0,1.3,0c0.1,0,0.2,0,0.3,0c0,0.5,0,1,0,1.6l0,0c-0.3,0-0.5,0-0.8,0c0-0.3,0-0.5,0-0.8
				c-0.3,0-0.5,0-0.8,0C5.9,6.2,5.9,6,5.9,5.7L5.9,5.7z"/>
			<path class="st1" d="M3.6,11.1c-0.4,0-0.9,0-1.3,0c0,0-0.1,0-0.2,0c0,0,0-0.1,0-0.1c0-0.4,0-0.9,0-1.4v0l0,0c0.3,0,0.5,0,0.8,0
				c0,0.3,0,0.5,0,0.8c0.3,0,0.5,0,0.8,0C3.6,10.6,3.6,10.8,3.6,11.1L3.6,11.1z"/>
			<path class="st1" d="M7.5,9.6c0,0.5,0,1,0,1.5l0,0l0,0c-0.5,0-1,0-1.5,0l0,0c0-0.3,0-0.5,0-0.8c0.3,0,0.5,0,0.8,0
				c0-0.3,0-0.5,0-0.8C7,9.6,7.2,9.6,7.5,9.6L7.5,9.6z"/>
		</g>
	</g>
</g>
</svg>
