<?xml version="1.0" encoding="UTF-8" standalone="no"?>
<svg
   xmlns:dc="http://purl.org/dc/elements/1.1/"
   xmlns:cc="http://creativecommons.org/ns#"
   xmlns:rdf="http://www.w3.org/1999/02/22-rdf-syntax-ns#"
   xmlns:svg="http://www.w3.org/2000/svg"
   xmlns="http://www.w3.org/2000/svg"
   xmlns:sodipodi="http://sodipodi.sourceforge.net/DTD/sodipodi-0.dtd"
   xmlns:inkscape="http://www.inkscape.org/namespaces/inkscape"
   sodipodi:docname="multi-frame.svg"
   inkscape:version="1.0.2 (e86c870879, 2021-01-15)"
   id="svg309"
   version="1.1"
   viewBox="0 0 4.8418802 6.7733307"
   height="6.7733302mm"
   width="4.8418798mm">
  <defs
     id="defs303" />
  <sodipodi:namedview
     inkscape:window-maximized="1"
     inkscape:window-y="28"
     inkscape:window-x="1920"
     inkscape:window-height="1029"
     inkscape:window-width="1920"
     fit-margin-bottom="0"
     fit-margin-right="0"
     fit-margin-left="0"
     fit-margin-top="0"
     showgrid="false"
     inkscape:document-rotation="0"
     inkscape:current-layer="layer1"
     inkscape:document-units="mm"
     inkscape:cy="-70.378186"
     inkscape:cx="-177.25601"
     inkscape:zoom="2.7359919"
     inkscape:pageshadow="2"
     inkscape:pageopacity="0.0"
     borderopacity="1.0"
     bordercolor="#666666"
     pagecolor="#ffffff"
     id="base" />
  <metadata
     id="metadata306">
    <rdf:RDF>
      <cc:Work
         rdf:about="">
        <dc:format>image/svg+xml</dc:format>
        <dc:type
           rdf:resource="http://purl.org/dc/dcmitype/StillImage" />
        <dc:title></dc:title>
      </cc:Work>
    </rdf:RDF>
  </metadata>
  <g
     transform="translate(-131.51196,-130.9827)"
     id="layer1"
     inkscape:groupmode="layer"
     inkscape:label="Calque 1">
    <path
       d="m 131.51196,137.35916 c 0,-1.61396 0,-3.22792 0,-4.84188 0.0529,0 0.0794,0 0.1323,0 0,-0.0794 0,-0.13229 0,-0.21167 0.0529,0 0.0794,0 0.13229,0 0,-0.0794 0,-0.13229 0,-0.21166 1.03187,0 2.06375,0 3.06916,0 0,0.0529 0,0.13229 0,0.21166 0.0529,0 0.0794,0 0.1323,0 0,0.0794 0,0.1323 0,0.18521 0.0529,0 0.0794,0 0.13229,0 0,1.61396 0,3.22792 0,4.84188 -0.0529,0 -0.0794,0 -0.13229,0 0,0.0794 0,0.13229 0,0.21166 -0.0529,0 -0.0794,0 -0.1323,0 0,0.0794 0,0.1323 0,0.21167 -1.03187,0 -2.06375,0 -3.06916,0 0,-0.0529 0,-0.13229 0,-0.21167 -0.0529,0 -0.0794,0 -0.13229,0 0,-0.0794 0,-0.13229 0,-0.1852 -0.0529,0 -0.10584,0 -0.1323,0 z m 3.3073,0 c 0,-1.61396 0,-3.22792 0,-4.84188 -1.03188,0 -2.0373,0 -3.06917,0 0,1.61396 0,3.22792 0,4.84188 1.03187,0 2.03729,0 3.06917,0 z"
       id="path987"
       style="stroke-width:0.264583" />
    <rect fill="#3099da"
       height="4.8418746"
       width="3.0691667"
       class="st1"
       y="132.51727"
       x="131.75008"
       id="rect989"
       style="fill:#ffffff;stroke-width:0.264583" />
    <path
       d="m 132.14696,136.85645 c 0,-1.61396 0,-3.22792 0,-4.84188 0.0529,0 0.0794,0 0.1323,0 0,-0.0794 0,-0.13229 0,-0.21166 0.0529,0 0.0794,0 0.13229,0 0,-0.0794 0,-0.1323 0,-0.21167 1.03187,0 2.06375,0 3.06916,0 0,0.0529 0,0.13229 0,0.21167 0.0529,0 0.0794,0 0.1323,0 0,0.0794 0,0.13229 0,0.1852 0.0529,0 0.0794,0 0.13229,0 0,1.61396 0,3.22792 0,4.84188 -0.0529,0 -0.0794,0 -0.13229,0 0,0.0794 0,0.13229 0,0.21167 -0.0529,0 -0.0794,0 -0.1323,0 0,0.0794 0,0.13229 0,0.21166 -1.03187,0 -2.06375,0 -3.06916,0 0,-0.0529 0,-0.13229 0,-0.21166 -0.0529,0 -0.0794,0 -0.13229,0 0,-0.0794 0,-0.1323 0,-0.18521 -0.0529,0 -0.10584,0 -0.1323,0 z m 3.3073,0 c 0,-1.61396 0,-3.22792 0,-4.84188 -1.03188,0 -2.0373,0 -3.06917,0 0,1.61396 0,3.22792 0,4.84188 1.03187,0 2.03729,0 3.06917,0 z"
       id="path941"
       style="stroke-width:0.264583" />
    <rect fill="#3099da"
       height="4.8418746"
       width="3.0691667"
       class="st2"
       y="132.01457"
       x="132.38509"
       id="rect945"
       style="fill:#017100;stroke-width:0.264583" />
    <path
       d="m 132.75551,136.24791 c 0,-1.61396 0,-3.22792 0,-4.84188 0.0529,0 0.0794,0 0.13229,0 0,-0.0794 0,-0.13229 0,-0.21167 0.0529,0 0.0794,0 0.13229,0 0,-0.0794 0,-0.13229 0,-0.21166 1.03187,0 2.06375,0 3.06917,0 0,0.0529 0,0.13229 0,0.21166 0.0529,0 0.0794,0 0.13229,0 0,0.0794 0,0.1323 0,0.18521 0.0529,0 0.0794,0 0.13229,0 0,1.61396 0,3.22792 0,4.84188 -0.0529,0 -0.0794,0 -0.13229,0 0,0.0794 0,0.13229 0,0.21166 -0.0529,0 -0.0794,0 -0.13229,0 0,0.0794 0,0.1323 0,0.21167 -1.03188,0 -2.06375,0 -3.06917,0 0,-0.0529 0,-0.13229 0,-0.21167 -0.0529,0 -0.0794,0 -0.13229,0 0,-0.0794 0,-0.13229 0,-0.1852 -0.0529,0 -0.0794,0 -0.13229,0 z m 3.30729,0 c 0,-1.61396 0,-3.22792 0,-4.84188 -1.03188,0 -2.03729,0 -3.06917,0 0,1.61396 0,3.22792 0,4.84188 1.03188,0 2.06375,0 3.06917,0 z"
       id="path949"
       style="stroke-width:0.264583" />
    <rect fill="#3099da"
       height="4.8418746"
       width="3.0691667"
       class="st1"
       y="131.40602"
       x="133.02008"
       id="rect953"
       style="fill:#ffffff;stroke-width:0.264583" />
  </g>
</svg>
