<?xml version="1.0" encoding="utf-8"?>
<!-- Generator: Adobe Illustrator 21.0.0, SVG Export Plug-In . SVG Version: 6.00 Build 0)  -->
<svg version="1.1" id="Layer_1" xmlns="http://www.w3.org/2000/svg" xmlns:xlink="http://www.w3.org/1999/xlink" x="0px" y="0px"
	 viewBox="0 0 24 24" style="enable-background:new 0 0 24 24;" xml:space="preserve">
<style type="text/css">
	.st0{fill:#017100;}
</style>
<title></title>
<g id="icomoon-ignore">
</g>
<g>
	<g>
		<path class="st0" d="M7.3,12.5c-0.6,0-1.1,0-1.8,0c0-0.3,0-0.5,0-0.7c0-0.2-0.1-0.3-0.2-0.2c-0.2,0-0.4,0-0.6,0c0-0.3,0-0.6,0-1
			c-0.3,0-0.6,0-0.8,0c0-0.3,0-0.6,0-1c-0.3,0-0.6,0-0.8,0c0-0.3,0-0.6,0-1c-0.3,0-0.6,0-0.8,0c0-0.6,0-1.3,0-1.9c2.3,0,4.6,0,6.8,0
			c0-0.3,0-0.6,0-1c0.3,0,0.6,0,0.8,0c0-1,0-1.9,0-2.9c0.3,0,0.6,0,0.8,0c0-0.6,0-1.3,0-1.9c0.3,0,0.6,0,0.8,0l0,0
			c0,0.1,0,0.1,0,0.1c0,0.8,0,1.8,0,2.6c0,0.1,0,0.1,0,0.2c-0.3,0-0.5,0-0.8,0c0,1,0,1.9,0,2.9c-0.3,0-0.6,0-0.8,0c0,0.3,0,0.6,0,1
			c-2,0-4,0-6,0c0,0.3,0,0.6,0,1c0.3,0,0.5,0,0.8,0c0,0.3,0,0.6,0,1c0.3,0,0.5,0,0.7,0c0.2,0,0.2,0.1,0.2,0.2c0,0.3,0,0.5,0,0.8
			c0.3,0,0.6,0,0.8,0c0,0.3,0,0.6,0,1c0.3,0,0.5,0,0.7,0c0.2,0,0.2,0.1,0.2,0.2C7.3,12,7.3,12.2,7.3,12.5L7.3,12.5z"/>
		<path class="st0" d="M12.4,0.9c0.3,0,0.5,0,0.8,0c0,0.6,0,1.2,0,1.9c0.3,0,0.6,0,0.8,0c0,1,0,1.9,0,2.9c0.3,0,0.6,0,0.8,0
			c0,0.3,0,0.6,0,1c2.3,0,4.6,0,6.8,0c0,0.6,0,1.3,0,1.9c-0.3,0-0.5,0-0.8,0c0,0.3,0,0.6,0,1c-0.3,0-0.6,0-0.8,0c0,0.3,0,0.6,0,1
			c-0.3,0-0.6,0-0.8,0c0,0.3,0,0.6,0,1c-0.3,0-0.6,0-0.8,0c0,0.3,0,0.6,0,1c-0.6,0-1.2,0-1.8,0l0,0c0-0.3,0-0.5,0-0.7
			s0.1-0.3,0.2-0.2c0.2,0,0.4,0,0.6,0c0-0.3,0-0.6,0-1c0.3,0,0.6,0,0.8,0c0-0.3,0-0.5,0-0.7c0-0.2,0.1-0.2,0.2-0.2
			c0.2,0,0.4,0,0.7,0c0-0.3,0-0.6,0-1c0.3,0,0.6,0,0.8,0c0-0.3,0-0.6,0-1c-2,0-4,0-6,0c0-0.3,0-0.6,0-1c-0.3,0-0.6,0-0.9,0
			c0-1,0-1.9,0-2.9c-0.3,0-0.5,0-0.8,0C12.4,2.8,12.4,1.9,12.4,0.9L12.4,0.9z"/>
		<path class="st0" d="M11.5,0.9c0-0.3,0-0.6,0-1c0.3,0,0.6,0,0.9,0c0,0.3,0,0.6,0,1l0,0C12.1,0.9,11.8,0.9,11.5,0.9L11.5,0.9z"/>
	</g>
	<g>
		<path class="st0" d="M16.7,11.5c0.6,0,1.1,0,1.8,0c0,0.3,0,0.5,0,0.7c0,0.2,0.1,0.3,0.2,0.2c0.2,0,0.4,0,0.6,0c0,0.3,0,0.6,0,1
			c0.3,0,0.6,0,0.8,0c0,0.3,0,0.6,0,1c0.3,0,0.6,0,0.8,0c0,0.3,0,0.6,0,1c0.3,0,0.6,0,0.8,0c0,0.6,0,1.3,0,1.9c-2.3,0-4.6,0-6.8,0
			c0,0.3,0,0.6,0,1c-0.3,0-0.6,0-0.8,0c0,1,0,1.9,0,2.9c-0.3,0-0.6,0-0.8,0c0,0.6,0,1.3,0,1.9c-0.3,0-0.6,0-0.8,0l0,0
			c0-0.1,0-0.1,0-0.1c0-0.8,0-1.8,0-2.6c0-0.1,0-0.1,0-0.2c0.3,0,0.5,0,0.8,0c0-1,0-1.9,0-2.9c0.3,0,0.6,0,0.8,0c0-0.3,0-0.6,0-1
			c2,0,4,0,6,0c0-0.3,0-0.6,0-1c-0.3,0-0.5,0-0.8,0c0-0.3,0-0.6,0-1c-0.3,0-0.5,0-0.7,0c-0.2,0-0.2-0.1-0.2-0.2c0-0.3,0-0.5,0-0.8
			c-0.3,0-0.6,0-0.8,0c0-0.3,0-0.6,0-1c-0.3,0-0.5,0-0.7,0c-0.2,0-0.2-0.1-0.2-0.2C16.7,12,16.7,11.8,16.7,11.5L16.7,11.5z"/>
		<path class="st0" d="M11.5,23c-0.3,0-0.5,0-0.8,0c0-0.6,0-1.2,0-1.9c-0.3,0-0.6,0-0.8,0c0-1,0-1.9,0-2.9c-0.3,0-0.6,0-0.8,0
			c0-0.3,0-0.6,0-1c-2.3,0-4.6,0-6.8,0c0-0.6,0-1.3,0-1.9c0.3,0,0.5,0,0.8,0c0-0.3,0-0.6,0-1c0.3,0,0.6,0,0.8,0c0-0.3,0-0.6,0-1
			c0.3,0,0.6,0,0.8,0c0-0.3,0-0.6,0-1c0.3,0,0.6,0,0.8,0c0-0.3,0-0.6,0-1c0.6,0,1.2,0,1.8,0l0,0c0,0.3,0,0.5,0,0.7s-0.1,0.3-0.2,0.2
			c-0.2,0-0.4,0-0.6,0c0,0.3,0,0.6,0,1c-0.3,0-0.6,0-0.8,0c0,0.3,0,0.5,0,0.7c0,0.2-0.1,0.2-0.2,0.2c-0.2,0-0.4,0-0.7,0
			c0,0.3,0,0.6,0,1c-0.3,0-0.6,0-0.8,0c0,0.3,0,0.6,0,1c2,0,4,0,6,0c0,0.3,0,0.6,0,1c0.3,0,0.6,0,0.9,0c0,1,0,1.9,0,2.9
			c0.3,0,0.5,0,0.8,0C11.5,21.1,11.5,22.1,11.5,23L11.5,23z"/>
		<path class="st0" d="M12.4,23c0,0.3,0,0.6,0,1c-0.3,0-0.6,0-0.9,0c0-0.3,0-0.6,0-1l0,0C11.8,23,12.2,23,12.4,23L12.4,23z"/>
	</g>
</g>
</svg>
