<?xml version="1.0" encoding="UTF-8" standalone="no"?>
<svg
   xmlns:dc="http://purl.org/dc/elements/1.1/"
   xmlns:cc="http://creativecommons.org/ns#"
   xmlns:rdf="http://www.w3.org/1999/02/22-rdf-syntax-ns#"
   xmlns:svg="http://www.w3.org/2000/svg"
   xmlns="http://www.w3.org/2000/svg"
   xmlns:sodipodi="http://sodipodi.sourceforge.net/DTD/sodipodi-0.dtd"
   xmlns:inkscape="http://www.inkscape.org/namespaces/inkscape"
   sodipodi:docname="props.svg"
   inkscape:version="1.0 (4035a4fb49, 2020-05-01)"
   id="svg309"
   version="1.1"
   viewBox="0 0 9.8424996 11.959167"
   height="11.959167mm"
   width="9.8424997mm">
  <defs
     id="defs303" />
  <sodipodi:namedview
     inkscape:window-maximized="0"
     inkscape:window-y="48"
     inkscape:window-x="2040"
     inkscape:window-height="1002"
     inkscape:window-width="1215"
     fit-margin-bottom="0"
     fit-margin-right="0"
     fit-margin-left="0"
     fit-margin-top="0"
     showgrid="false"
     inkscape:document-rotation="0"
     inkscape:current-layer="layer1"
     inkscape:document-units="mm"
     inkscape:cy="25.690933"
     inkscape:cx="18.881545"
     inkscape:zoom="15.839192"
     inkscape:pageshadow="2"
     inkscape:pageopacity="0.0"
     borderopacity="1.0"
     bordercolor="#666666"
     pagecolor="#ffffff"
     id="base" />
  <metadata
     id="metadata306">
    <rdf:RDF>
      <cc:Work
         rdf:about="">
        <dc:format>image/svg+xml</dc:format>
        <dc:type
           rdf:resource="http://purl.org/dc/dcmitype/StillImage" />
        <dc:title></dc:title>
      </cc:Work>
    </rdf:RDF>
  </metadata>
  <g
     transform="translate(-89.488248,-104.93225)"
     id="layer1"
     inkscape:groupmode="layer"
     inkscape:label="Calque 1">
    <g
       style="fill:#006000;fill-opacity:1"
       transform="matrix(0.26458333,0,0,0.26458333,84.54054,59.609123)"
       id="g1785">
      <path
         style="fill:#006000;fill-opacity:1"
         class="st0"
         d="m 28.4,194.9 c -1.1,0 -2.1,0 -3.3,0 0,-0.5 0,-0.9 0,-1.4 0,-0.4 -0.1,-0.5 -0.4,-0.4 -0.4,0 -0.8,0 -1.2,0 0,-0.6 0,-1.2 0,-1.8 -0.6,0 -1.1,0 -1.6,0 0,-0.6 0,-1.2 0,-1.8 -0.6,0 -1.1,0 -1.6,0 0,-0.6 0,-1.2 0,-1.8 -0.5,0 -1.1,0 -1.6,0 0,-1.2 0,-2.4 0,-3.6 4.3,0 8.6,0 12.9,0 0,-0.6 0,-1.2 0,-1.8 0.6,0 1.1,0 1.6,0 0,-1.8 0,-3.6 0,-5.4 0.6,0 1.1,0 1.6,0 0,-1.2 0,-2.4 0,-3.6 0.6,0 1.1,0 1.6,0 v 0 c 0,0.1 0,0.1 0,0.2 0,1.6 0,3.3 0,4.9 0,0.1 0,0.2 0,0.3 -0.5,0 -1,0 -1.6,0 0,1.8 0,3.6 0,5.4 -0.5,0 -1.1,0 -1.6,0 0,0.6 0,1.2 0,1.8 -3.8,0 -7.6,0 -11.3,0 0,0.6 0,1.2 0,1.8 0.5,0 1,0 1.6,0 0,0.6 0,1.2 0,1.8 0.5,0 0.9,0 1.3,0 0.3,0 0.3,0.1 0.3,0.4 0,0.5 0,0.9 0,1.5 0.6,0 1.1,0 1.6,0 0,0.6 0,1.2 0,1.8 0.5,0 0.9,0 1.3,0 0.3,0 0.4,0.1 0.4,0.4 0,0.3 0,0.8 0,1.3 z"
         id="path28" />
      <path
         style="fill:#006000;fill-opacity:1"
         class="st0"
         d="m 38.1,173.1 c 0.5,0 1,0 1.6,0 0,1.2 0,2.3 0,3.6 0.6,0 1.1,0 1.6,0 0,1.8 0,3.6 0,5.4 0.6,0 1.1,0 1.6,0 0,0.6 0,1.2 0,1.8 4.3,0 8.6,0 12.9,0 0,1.2 0,2.4 0,3.6 -0.5,0 -1,0 -1.6,0 0,0.6 0,1.2 0,1.8 -0.6,0 -1.1,0 -1.6,0 0,0.6 0,1.2 0,1.8 -0.6,0 -1.1,0 -1.6,0 0,0.6 0,1.2 0,1.8 -0.5,0 -1.1,0 -1.6,0 0,0.6 0,1.2 0,1.8 -1.1,0 -2.2,0 -3.3,0 v 0 c 0,-0.5 0,-1 0,-1.4 0,-0.4 0.1,-0.5 0.4,-0.4 0.4,0 0.8,0 1.2,0 0,-0.6 0,-1.2 0,-1.8 0.6,0 1.1,0 1.6,0 0,-0.5 0,-1 0,-1.4 0,-0.3 0.1,-0.4 0.4,-0.4 0.4,0 0.8,0 1.3,0 0,-0.6 0,-1.2 0,-1.8 0.6,0 1.1,0 1.6,0 0,-0.6 0,-1.2 0,-1.8 -3.8,0 -7.5,0 -11.3,0 0,-0.6 0,-1.2 0,-1.8 -0.6,0 -1.1,0 -1.7,0 0,-1.8 0,-3.6 0,-5.4 -0.5,0 -1,0 -1.6,0 0.1,-1.8 0.1,-3.6 0.1,-5.4 z"
         id="path30" />
      <path
         style="fill:#006000;fill-opacity:1"
         class="st0"
         d="m 36.4,173.1 c 0,-0.6 0,-1.2 0,-1.8 0.6,0 1.1,0 1.7,0 0,0.6 0,1.2 0,1.8 v 0 c -0.6,0 -1.1,0 -1.7,0 z"
         id="path32" />
      <path
         style="fill:#006000;fill-opacity:1"
         class="st0"
         d="m 46.2,193 c 1.1,0 2.1,0 3.3,0 0,0.5 0,0.9 0,1.4 0,0.4 0.1,0.5 0.4,0.4 0.4,0 0.8,0 1.2,0 0,0.6 0,1.2 0,1.8 0.6,0 1.1,0 1.6,0 0,0.6 0,1.2 0,1.8 0.6,0 1.1,0 1.6,0 0,0.6 0,1.2 0,1.8 0.5,0 1.1,0 1.6,0 0,1.2 0,2.4 0,3.6 -4.3,0 -8.6,0 -12.9,0 0,0.6 0,1.2 0,1.8 -0.6,0 -1.1,0 -1.6,0 0,1.8 0,3.6 0,5.4 -0.6,0 -1.1,0 -1.6,0 0,1.2 0,2.4 0,3.6 -0.6,0 -1.1,0 -1.6,0 v 0 c 0,-0.1 0,-0.1 0,-0.2 0,-1.6 0,-3.3 0,-4.9 0,-0.1 0,-0.2 0,-0.3 0.5,0 1,0 1.6,0 0,-1.8 0,-3.6 0,-5.4 0.5,0 1.1,0 1.6,0 0,-0.6 0,-1.2 0,-1.8 3.8,0 7.6,0 11.3,0 0,-0.6 0,-1.2 0,-1.8 -0.5,0 -1,0 -1.6,0 0,-0.6 0,-1.2 0,-1.8 -0.5,0 -0.9,0 -1.3,0 -0.3,0 -0.3,-0.1 -0.3,-0.4 0,-0.5 0,-0.9 0,-1.5 -0.6,0 -1.1,0 -1.6,0 0,-0.6 0,-1.2 0,-1.8 -0.5,0 -0.9,0 -1.3,0 -0.3,0 -0.4,-0.1 -0.4,-0.4 0,-0.3 0,-0.8 0,-1.3 z"
         id="path36" />
      <path
         style="fill:#006000;fill-opacity:1"
         class="st0"
         d="m 36.4,214.7 c -0.5,0 -1,0 -1.6,0 0,-1.2 0,-2.3 0,-3.6 -0.6,0 -1.1,0 -1.6,0 0,-1.8 0,-3.6 0,-5.4 -0.6,0 -1.1,0 -1.6,0 0,-0.6 0,-1.2 0,-1.8 -4.3,0 -8.6,0 -12.9,0 0,-1.2 0,-2.4 0,-3.6 0.5,0 1,0 1.6,0 0,-0.6 0,-1.2 0,-1.8 0.6,0 1.1,0 1.6,0 0,-0.6 0,-1.2 0,-1.8 0.6,0 1.1,0 1.6,0 0,-0.6 0,-1.2 0,-1.8 0.5,0 1.1,0 1.6,0 0,-0.6 0,-1.2 0,-1.8 1.1,0 2.2,0 3.3,0 v 0 c 0,0.5 0,1 0,1.4 0,0.4 -0.1,0.5 -0.4,0.4 -0.4,0 -0.8,0 -1.2,0 0,0.6 0,1.2 0,1.8 -0.6,0 -1.1,0 -1.6,0 0,0.5 0,1 0,1.4 0,0.3 -0.1,0.4 -0.4,0.4 -0.4,0 -0.8,0 -1.3,0 0,0.6 0,1.2 0,1.8 -0.6,0 -1.1,0 -1.6,0 0,0.6 0,1.2 0,1.8 3.8,0 7.5,0 11.3,0 0,0.6 0,1.2 0,1.8 0.6,0 1.1,0 1.7,0 0,1.8 0,3.6 0,5.4 0.5,0 1,0 1.6,0 -0.1,1.8 -0.1,3.6 -0.1,5.4 z"
         id="path38" />
      <path
         style="fill:#006000;fill-opacity:1"
         class="st0"
         d="m 38.1,214.7 c 0,0.6 0,1.2 0,1.8 -0.6,0 -1.1,0 -1.7,0 0,-0.6 0,-1.2 0,-1.8 v 0 c 0.6,0 1.2,0 1.7,0 z"
         id="path40" />
    </g>
  </g>
</svg>
