<?xml version="1.0" encoding="utf-8"?>
<!-- Generator: Adobe Illustrator 21.0.0, SVG Export Plug-In . SVG Version: 6.00 Build 0)  -->
<svg version="1.1"
	 id="svg309" inkscape:version="1.0.2 (e86c870879, 2021-01-15)" sodipodi:docname="brring-to-front.svg" xmlns:cc="http://creativecommons.org/ns#" xmlns:dc="http://purl.org/dc/elements/1.1/" xmlns:inkscape="http://www.inkscape.org/namespaces/inkscape" xmlns:rdf="http://www.w3.org/1999/02/22-rdf-syntax-ns#" xmlns:sodipodi="http://sodipodi.sourceforge.net/DTD/sodipodi-0.dtd" xmlns:svg="http://www.w3.org/2000/svg"
	 xmlns="http://www.w3.org/2000/svg" xmlns:xlink="http://www.w3.org/1999/xlink" x="0px" y="0px" viewBox="0 0 12.1 11.9"
	 style="enable-background:new 0 0 12.1 11.9;" xml:space="preserve">
<style type="text/css">
	.st0{fill:#DB3737;}
	.st1{fill:none;}
</style>
<sodipodi:namedview  bordercolor="#666666" borderopacity="1.0" fit-margin-bottom="0" fit-margin-left="0" fit-margin-right="0" fit-margin-top="0" id="base" inkscape:current-layer="layer1" inkscape:cx="-71.010477" inkscape:cy="39.522393" inkscape:document-rotation="0" inkscape:document-units="mm" inkscape:pageopacity="0.0" inkscape:pageshadow="2" inkscape:window-height="1029" inkscape:window-maximized="1" inkscape:window-width="1920" inkscape:window-x="1920" inkscape:window-y="28" inkscape:zoom="2.7359919" pagecolor="#ffffff" showgrid="false">
	</sodipodi:namedview>
<g>
	<g>
		<g>
			<rect x="1.1" y="10.8" class="st0" width="9.8" height="1.1"/>
			<rect x="1.1" y="0" class="st0" width="9.8" height="1.1"/>
			<rect x="0" y="1" class="st0" width="1.1" height="9.8"/>
			<rect x="11" y="1" class="st0" width="1.1" height="9.8"/>
			<line class="st1" x1="11.9" y1="10.7" x2="10.9" y2="10.7"/>
		</g>
	</g>
	<g>
		<g>
			<g>
				<rect x="7.2" y="7.1" class="st0" width="0.8" height="0.8"/>
				<rect x="4" y="7.1" class="st0" width="0.8" height="0.8"/>
				<rect x="4.9" y="6.4" class="st0" width="0.8" height="0.8"/>
				<rect x="7.2" y="3.9" class="st0" width="0.8" height="0.8"/>
				<polygon class="st0" points="7.2,5.5 7.2,4.7 6.4,4.7 6.4,5.5 5.7,5.5 5.7,6.4 6.4,6.4 6.4,7.1 7.2,7.1 7.2,6.4 6.5,6.4 
					6.5,5.5 				"/>
				<rect x="4.9" y="4.7" class="st0" width="0.8" height="0.8"/>
				<rect x="4" y="3.9" class="st0" width="0.8" height="0.8"/>
			</g>
		</g>
	</g>
</g>
</svg>
