<?xml version="1.0" encoding="utf-8"?>
<!-- Generator: Adobe Illustrator 21.0.0, SVG Export Plug-In . SVG Version: 6.00 Build 0)  -->
<svg version="1.1"
	 id="svg309" inkscape:version="1.0.2 (e86c870879, 2021-01-15)" sodipodi:docname="brring-to-front.svg" xmlns:cc="http://creativecommons.org/ns#" xmlns:dc="http://purl.org/dc/elements/1.1/" xmlns:inkscape="http://www.inkscape.org/namespaces/inkscape" xmlns:rdf="http://www.w3.org/1999/02/22-rdf-syntax-ns#" xmlns:sodipodi="http://sodipodi.sourceforge.net/DTD/sodipodi-0.dtd" xmlns:svg="http://www.w3.org/2000/svg"
	 xmlns="http://www.w3.org/2000/svg" xmlns:xlink="http://www.w3.org/1999/xlink" x="0px" y="0px" viewBox="0 0 15.3 15.6"
	 style="enable-background:new 0 0 15.3 15.6;" xml:space="preserve">
<style type="text/css">
	.st0{fill:#017100;}
</style>
<sodipodi:namedview  bordercolor="#666666" borderopacity="1.0" fit-margin-bottom="0" fit-margin-left="0" fit-margin-right="0" fit-margin-top="0" id="base" inkscape:current-layer="layer1" inkscape:cx="-71.010477" inkscape:cy="39.522393" inkscape:document-rotation="0" inkscape:document-units="mm" inkscape:pageopacity="0.0" inkscape:pageshadow="2" inkscape:window-height="1029" inkscape:window-maximized="1" inkscape:window-width="1920" inkscape:window-x="1920" inkscape:window-y="28" inkscape:zoom="2.7359919" pagecolor="#ffffff" showgrid="false">
	</sodipodi:namedview>
<g>
	<g>
		<path class="st0" d="M12.1,9.3h-1.3V8H4.5v1.3H3.2v4.9H1.3V1.4H0v12.9h1.3v1.4H14v-1.4h-1.9V9.3z M4.5,9.3h6.3v4.9H4.5V9.3z"/>
		<path class="st0" d="M14,1.4V0H1.4v1.4h1.8v2.5h1.3v1.3h6.3V3.9h1.3V1.4L14,1.4l0,12.9h1.3V1.4H14z M10.8,3.8H4.5V1.4h6.3V3.8z"/>
	</g>
	<g>
		<g>
			<g>
				<polygon class="st0" points="9.4,2 10,1.5 10.5,2 10,2.6 				"/>
			</g>
		</g>
		<g>
			<g>
				<polygon class="st0" points="9.5,3.1 10,2.6 10.5,3.1 10,3.6 				"/>
			</g>
		</g>
		<g>
			<g>
				<polygon class="st0" points="8.4,3.1 8.9,2.6 9.5,3.1 8.9,3.6 				"/>
			</g>
		</g>
		<g>
			<g>
				<polygon class="st0" points="8.4,2 8.9,1.5 9.4,2 8.9,2.6 				"/>
			</g>
		</g>
	</g>
</g>
</svg>
