<?xml version="1.0" encoding="utf-8"?>
<!-- Generator: Adobe Illustrator 21.0.0, SVG Export Plug-In . SVG Version: 6.00 Build 0)  -->
<svg version="1.1"
	 id="svg3121" inkscape:version="1.0.2 (e86c870879, 2021-01-15)" sodipodi:docname="pause-play-button.svg" xmlns:cc="http://creativecommons.org/ns#" xmlns:dc="http://purl.org/dc/elements/1.1/" xmlns:inkscape="http://www.inkscape.org/namespaces/inkscape" xmlns:rdf="http://www.w3.org/1999/02/22-rdf-syntax-ns#" xmlns:sodipodi="http://sodipodi.sourceforge.net/DTD/sodipodi-0.dtd" xmlns:svg="http://www.w3.org/2000/svg"
	 xmlns="http://www.w3.org/2000/svg" xmlns:xlink="http://www.w3.org/1999/xlink" x="0px" y="0px" viewBox="0 0 11 17.5"
	 style="enable-background:new 0 0 11 17.5;" xml:space="preserve">
<style type="text/css">
	.st0{fill:#017100;}
	.st1{fill:#7E827E;}
</style>
<sodipodi:namedview  bordercolor="#666666" borderopacity="1.0" fit-margin-bottom="0" fit-margin-left="0" fit-margin-right="0" fit-margin-top="0" id="base" inkscape:current-layer="layer1" inkscape:cx="128.23948" inkscape:cy="82.70632" inkscape:document-rotation="0" inkscape:document-units="mm" inkscape:pageopacity="0.0" inkscape:pageshadow="2" inkscape:window-height="961" inkscape:window-maximized="0" inkscape:window-width="1545" inkscape:window-x="2028" inkscape:window-y="144" inkscape:zoom="0.98994949" pagecolor="#ffffff" showgrid="false">
	</sodipodi:namedview>
<g>
	<rect x="1.8" y="16" class="st1" width="7.3" height="1.5"/>
	<rect x="1.8" class="st1" width="7.3" height="1.5"/>
	<rect x="0.2" y="1.3" class="st1" width="1.5" height="14.7"/>
	<rect x="9" y="1.3" class="st1" width="1.5" height="14.7"/>
	<rect x="2.2" y="1.9" class="st1" width="6.6" height="6.5"/>
	<g>
		<path class="st1" d="M18.2,14.4h-0.5v-1.5h0.5V14.4z M18.7,12.9h-0.5v-0.5h0.5V12.9z M19.7,14.9h-1.5v-0.5h1.5V14.9z M20.2,14.4
			h-0.5v-1.5h0.5V14.4z M21.7,12.9h-1.5v-0.5h1.5V12.9z M21.7,14.9h-0.5v-0.5h0.5V14.9z M22.2,14.4h-0.5v-1.5h0.5V14.4z"/>
		<path class="st1" d="M19.7,11.3h-0.5V9.8h0.5V11.3z M20.2,9.8h-0.5V9.3h0.5V9.8z M21.7,11.8h-2v-0.5h2V11.8z M21.7,9.8h-0.5V9.3
			h0.5V9.8z M22.2,11.3h-0.5V9.8h0.5V11.3z"/>
	</g>
</g>
</svg>
