<?xml version="1.0" encoding="utf-8"?>
<!-- Generator: Adobe Illustrator 21.0.0, SVG Export Plug-In . SVG Version: 6.00 Build 0)  -->
<svg version="1.1"
	 id="svg3121" inkscape:version="1.0.2 (e86c870879, 2021-01-15)" sodipodi:docname="pause-play-button.svg" xmlns:cc="http://creativecommons.org/ns#" xmlns:dc="http://purl.org/dc/elements/1.1/" xmlns:inkscape="http://www.inkscape.org/namespaces/inkscape" xmlns:rdf="http://www.w3.org/1999/02/22-rdf-syntax-ns#" xmlns:sodipodi="http://sodipodi.sourceforge.net/DTD/sodipodi-0.dtd" xmlns:svg="http://www.w3.org/2000/svg"
	 xmlns="http://www.w3.org/2000/svg" xmlns:xlink="http://www.w3.org/1999/xlink" x="0px" y="0px" viewBox="0 0 11 17.5"
	 style="enable-background:new 0 0 11 17.5;" xml:space="preserve">
<style type="text/css">
	.st0{fill:#017100;}
	.st1{fill:#7E827E;}
</style>
<sodipodi:namedview  bordercolor="#666666" borderopacity="1.0" fit-margin-bottom="0" fit-margin-left="0" fit-margin-right="0" fit-margin-top="0" id="base" inkscape:current-layer="layer1" inkscape:cx="128.23948" inkscape:cy="82.70632" inkscape:document-rotation="0" inkscape:document-units="mm" inkscape:pageopacity="0.0" inkscape:pageshadow="2" inkscape:window-height="961" inkscape:window-maximized="0" inkscape:window-width="1545" inkscape:window-x="2028" inkscape:window-y="144" inkscape:zoom="0.98994949" pagecolor="#ffffff" showgrid="false">
	</sodipodi:namedview>
<g>
	<rect x="1.8" y="16" class="st0" width="7.3" height="1.5"/>
	<rect x="1.8" class="st0" width="7.3" height="1.5"/>
	<rect x="0.2" y="1.3" class="st0" width="1.5" height="14.7"/>
	<rect x="9" y="1.3" class="st0" width="1.5" height="14.7"/>
	<rect x="2.2" y="8.7" class="st0" width="6.6" height="6.5"/>
	<g>
		<path d="M3.7,6.8H3.2V5.3h0.5V6.8z M4.2,5.3H3.7V4.8h0.5V5.3z M5.2,7.3H3.7V6.8h1.5V7.3z M5.7,6.8H5.2V5.3h0.5V6.8z M7.2,5.3H5.7
			V4.8h1.5V5.3z M7.2,7.3H6.7V6.8h0.5V7.3z M7.7,6.8H7.2V5.3h0.5V6.8z"/>
		<path d="M5.2,3.7h2v0.5H3.7V3.7h1V3.2h0.5V3.7z M7.7,3.7H7.2V3.2h0.5V3.7z"/>
	</g>
</g>
</svg>
