<?xml version="1.0" encoding="UTF-8" standalone="no"?>
<svg
   xmlns:dc="http://purl.org/dc/elements/1.1/"
   xmlns:cc="http://creativecommons.org/ns#"
   xmlns:rdf="http://www.w3.org/1999/02/22-rdf-syntax-ns#"
   xmlns:svg="http://www.w3.org/2000/svg"
   xmlns="http://www.w3.org/2000/svg"
   xmlns:sodipodi="http://sodipodi.sourceforge.net/DTD/sodipodi-0.dtd"
   xmlns:inkscape="http://www.inkscape.org/namespaces/inkscape"
   sodipodi:docname="streams.svg"
   inkscape:version="1.0 (4035a4fb49, 2020-05-01)"
   id="svg309"
   version="1.1"
   viewBox="0 0 11.112501 5.6091669"
   height="5.6091666mm"
   width="11.1125mm">
  <defs
     id="defs303" />
  <sodipodi:namedview
     inkscape:window-maximized="0"
     inkscape:window-y="48"
     inkscape:window-x="2040"
     inkscape:window-height="1002"
     inkscape:window-width="1215"
     fit-margin-bottom="0"
     fit-margin-right="0"
     fit-margin-left="0"
     fit-margin-top="0"
     showgrid="false"
     inkscape:document-rotation="0"
     inkscape:current-layer="layer1"
     inkscape:document-units="mm"
     inkscape:cy="11.546771"
     inkscape:cx="15.737403"
     inkscape:zoom="15.839192"
     inkscape:pageshadow="2"
     inkscape:pageopacity="0.0"
     borderopacity="1.0"
     bordercolor="#666666"
     pagecolor="#ffffff"
     id="base" />
  <metadata
     id="metadata306">
    <rdf:RDF>
      <cc:Work
         rdf:about="">
        <dc:format>image/svg+xml</dc:format>
        <dc:type
           rdf:resource="http://purl.org/dc/dcmitype/StillImage" />
        <dc:title></dc:title>
      </cc:Work>
    </rdf:RDF>
  </metadata>
  <g
     transform="translate(-91.611986,-104.34288)"
     id="layer1"
     inkscape:groupmode="layer"
     inkscape:label="Calque 1">
    <g
       style="fill:#006000;fill-opacity:1;stroke:none;stroke-opacity:1"
       transform="matrix(0.26458333,0,0,0.26458333,86.558444,24.09476)"
       id="g114">
      <g
         style="fill:#006000;fill-opacity:1;stroke:none;stroke-opacity:1"
         id="g76">
        <path
           style="fill:#006000;fill-opacity:1;stroke:none;stroke-opacity:1"
           id="path60"
           d="m 37.8,308.8 c 0,-0.6 0,-1.1 0,-1.7 1.7,0 3.4,0 5.1,0 0,0.6 0,1.1 0,1.7 v 0 c -1.7,0 -3.4,0 -5.1,0 z"
           class="st0" />
        <path
           style="fill:#006000;fill-opacity:1;stroke:none;stroke-opacity:1"
           id="path62"
           d="m 34.5,317.2 c -0.6,0 -1.1,0 -1.7,0 0,-1.7 0,-3.4 0,-5.1 0.6,0 1.1,0 1.7,0 v 0 c 0,1.8 0,3.5 0,5.1 z"
           class="st0" />
        <path
           style="fill:#006000;fill-opacity:1;stroke:none;stroke-opacity:1"
           id="path64"
           d="m 46.3,312.2 c 0.6,0 1.1,0 1.7,0 0,1.7 0,3.4 0,5.1 -0.6,0 -1.1,0 -1.7,0 v 0 c 0,-1.7 0,-3.4 0,-5.1 z"
           class="st0" />
        <path
           style="fill:#006000;fill-opacity:1;stroke:none;stroke-opacity:1"
           id="path66"
           d="m 42.9,320.6 c 0,0.6 0,1.1 0,1.7 -1.7,0 -3.4,0 -5.1,0 0,-0.6 0,-1.1 0,-1.7 v 0 c 1.7,0 3.4,0 5.1,0 z"
           class="st0" />
        <path
           style="fill:#006000;fill-opacity:1;stroke:none;stroke-opacity:1"
           id="path68"
           d="m 34.5,312.2 c 0,-1 0,-2 0,-3 0,-0.1 0,-0.2 0,-0.4 0.1,0 0.1,0 0.1,0 1,0 2.1,0 3.1,0 0,0 0.1,0 0.1,0 v 0 c 0,0.6 0,1.1 0,1.7 -0.6,0 -1.1,0 -1.7,0 0,0.6 0,1.1 0,1.7 -0.5,0 -1.1,0 -1.6,0 z"
           class="st0" />
        <path
           style="fill:#006000;fill-opacity:1;stroke:none;stroke-opacity:1"
           id="path70"
           d="m 42.9,308.8 c 0.9,0 1.9,0 2.8,0 0.2,0 0.4,0 0.6,0 0,1.1 0,2.2 0,3.4 v 0 c -0.6,0 -1.1,0 -1.7,0 0,-0.6 0,-1.1 0,-1.7 -0.6,0 -1.1,0 -1.7,0 0,-0.6 0,-1.1 0,-1.7 z"
           class="st0" />
        <path
           style="fill:#006000;fill-opacity:1;stroke:none;stroke-opacity:1"
           id="path72"
           d="m 37.8,320.6 c -1,0 -2,0 -2.9,0 -0.1,0 -0.3,0 -0.4,0 0,-0.1 0,-0.2 0,-0.3 0,-1 0,-2 0,-3 0,0 0,-0.1 0,-0.1 v 0 c 0.6,0 1.1,0 1.7,0 0,0.6 0,1.1 0,1.7 0.6,0 1.1,0 1.7,0 -0.1,0.6 -0.1,1.1 -0.1,1.7 z"
           class="st0" />
        <path
           style="fill:#006000;fill-opacity:1;stroke:none;stroke-opacity:1"
           id="path74"
           d="m 46.3,317.2 c 0,1.1 0,2.2 0,3.3 0,0 0,0 0,0 0,0 0,0 0,0 -1.1,0 -2.2,0 -3.3,0 v 0 c 0,-0.6 0,-1.1 0,-1.7 0.6,0 1.1,0 1.7,0 0,-0.6 0,-1.1 0,-1.7 0.5,0.1 1,0.1 1.6,0.1 z"
           class="st0" />
      </g>
      <g
         style="fill:#006000;fill-opacity:1;stroke:none;stroke-opacity:1"
         id="g86">
        <g
           style="fill:#006000;fill-opacity:1;stroke:none;stroke-opacity:1"
           id="g84">
          <path
             style="fill:#006000;fill-opacity:1;stroke:none;stroke-opacity:1"
             id="path78"
             d="m 51.4,311 c 0.7,0 1.4,0 2.2,0 0,2.2 0,4.4 0,6.6 -0.7,0 -1.5,0 -2.2,0 v 0 c 0,-2.2 0,-4.4 0,-6.6 z"
             class="st0" />
          <path
             style="fill:#006000;fill-opacity:1;stroke:none;stroke-opacity:1"
             id="path80"
             d="m 47,306.7 c 1.2,0 2.4,0 3.6,0 0.2,0 0.5,0 0.7,0 0,1.5 0,2.9 0,4.4 v 0 c -0.7,0 -1.4,0 -2.2,0 0,-0.7 0,-1.4 0,-2.2 -0.7,0 -1.5,0 -2.2,0 0.1,-0.8 0.1,-1.5 0.1,-2.2 z"
             class="st0" />
          <path
             style="fill:#006000;fill-opacity:1;stroke:none;stroke-opacity:1"
             id="path82"
             d="m 51.4,317.6 c 0,1.4 0,2.9 0,4.3 0,0 0,0 0,0.1 0,0 0,0 -0.1,0 -1.4,0 -2.9,0 -4.3,0 v 0 c 0,-0.7 0,-1.4 0,-2.2 0.7,0 1.4,0 2.2,0 0,-0.7 0,-1.5 0,-2.2 0.7,0 1.4,0 2.2,0 z"
             class="st0" />
        </g>
      </g>
      <g
         style="fill:#006000;fill-opacity:1;stroke:none;stroke-opacity:1"
         id="g96">
        <g
           style="fill:#006000;fill-opacity:1;stroke:none;stroke-opacity:1"
           id="g94">
          <path
             style="fill:#006000;fill-opacity:1;stroke:none;stroke-opacity:1"
             id="path88"
             d="m 29.4,317.6 c -0.7,0 -1.4,0 -2.2,0 0,-2.2 0,-4.4 0,-6.6 0.7,0 1.5,0 2.2,0 v 0 c 0,2.2 0,4.4 0,6.6 z"
             class="st0" />
          <path
             style="fill:#006000;fill-opacity:1;stroke:none;stroke-opacity:1"
             id="path90"
             d="m 33.7,321.9 c -1.2,0 -2.4,0 -3.6,0 -0.2,0 -0.5,0 -0.7,0 0,-1.5 0,-2.9 0,-4.4 v 0 c 0.7,0 1.4,0 2.2,0 0,0.7 0,1.4 0,2.2 0.7,0 1.5,0 2.2,0 -0.1,0.8 -0.1,1.5 -0.1,2.2 z"
             class="st0" />
          <path
             style="fill:#006000;fill-opacity:1;stroke:none;stroke-opacity:1"
             id="path92"
             d="m 29.4,311 c 0,-1.4 0,-2.9 0,-4.3 0,0 0,0 0,-0.1 0,0 0,0 0.1,0 1.4,0 2.9,0 4.3,0 v 0 c 0,0.7 0,1.4 0,2.2 -0.7,0 -1.4,0 -2.2,0 0,0.7 0,1.5 0,2.2 -0.8,0 -1.5,0 -2.2,0 z"
             class="st0" />
        </g>
      </g>
      <g
         style="fill:#006000;fill-opacity:1;stroke:none;stroke-opacity:1"
         id="g112">
        <path
           style="fill:#006000;fill-opacity:1;stroke:none;stroke-opacity:1"
           id="path98"
           d="m 22,318 c -1,0 -1.9,0 -2.9,0 0,-2.9 0,-5.8 0,-8.8 1,0 1.9,0 2.9,0 v 0 c -0.1,3 -0.1,5.9 0,8.8 z"
           class="st0" />
        <path
           style="fill:#006000;fill-opacity:1;stroke:none;stroke-opacity:1"
           id="path100"
           d="m 22,309.2 c 0,-1.7 0,-3.4 0,-5.2 0,-0.2 0,-0.4 0,-0.7 0.1,0 0.2,0 0.2,0 1.8,0 3.6,0 5.4,0 0,0 0.1,0 0.1,0 v 0 c 0,1 0,1.9 0,2.9 -1,0 -1.9,0 -2.9,0 0,1 0,1.9 0,2.9 -0.9,0.1 -1.9,0.1 -2.8,0.1 z"
           class="st0" />
        <path
           style="fill:#006000;fill-opacity:1;stroke:none;stroke-opacity:1"
           id="path102"
           d="m 27.8,323.8 c -1.7,0 -3.4,0 -5.1,0 -0.2,0 -0.5,0 -0.7,0 0,-0.2 0,-0.3 0,-0.5 0,-1.7 0,-3.4 0,-5.1 0,-0.1 0,-0.2 0,-0.2 v 0 c 1,0 1.9,0 2.9,0 0,1 0,1.9 0,2.9 1,0 1.9,0 2.9,0 0,1 0,2 0,2.9 z"
           class="st0" />
        <g
           style="fill:#006000;fill-opacity:1;stroke:none;stroke-opacity:1"
           id="g110">
          <path
             style="fill:#006000;fill-opacity:1;stroke:none;stroke-opacity:1"
             id="path104"
             d="m 58.2,309.9 c 1,0 1.9,0 2.9,0 0,2.9 0,5.8 0,8.8 -1,0 -1.9,0 -2.9,0 v 0 c 0,-2.9 0,-5.9 0,-8.8 z"
             class="st0" />
          <path
             style="fill:#006000;fill-opacity:1;stroke:none;stroke-opacity:1"
             id="path106"
             d="m 52.4,304.1 c 1.6,0 3.2,0 4.8,0 0.3,0 0.6,0 1,0 0,2 0,3.9 0,5.8 v 0 c -1,0 -1.9,0 -2.9,0 0,-1 0,-1.9 0,-2.9 -1,0 -1.9,0 -2.9,0 0,-1 0,-1.9 0,-2.9 z"
             class="st0" />
          <path
             style="fill:#006000;fill-opacity:1;stroke:none;stroke-opacity:1"
             id="path108"
             d="m 58.2,318.7 c 0,1.9 0,3.8 0,5.7 0,0 0,0.1 0,0.1 0,0 -0.1,0 -0.1,0 -1.9,0 -3.8,0 -5.7,0 v 0 c 0,-1 0,-1.9 0,-2.9 1,0 1.9,0 2.9,0 0,-1 0,-1.9 0,-2.9 1,0 2,0 2.9,0 z"
             class="st0" />
        </g>
      </g>
    </g>
  </g>
</svg>
