<?xml version="1.0" encoding="utf-8"?>
<!-- Generator: Adobe Illustrator 21.0.0, SVG Export Plug-In . SVG Version: 6.00 Build 0)  -->
<svg version="1.1" id="Layer_1" xmlns="http://www.w3.org/2000/svg" xmlns:xlink="http://www.w3.org/1999/xlink" x="0px" y="0px"
	 viewBox="0 0 24 24" style="enable-background:new 0 0 24 24;" xml:space="preserve">
<style type="text/css">
	.st0{fill:#017100;}
</style>
<title></title>
<g id="icomoon-ignore">
</g>
<g>
	<g>
		<path class="st0" d="M10.7,9c0-0.3,0-0.6,0-1c1,0,1.9,0,2.9,0c0,0.3,0,0.6,0,1l0,0C12.6,9,11.7,9,10.7,9L10.7,9z"/>
		<path class="st0" d="M8.8,13.8c-0.3,0-0.6,0-1,0c0-1,0-1.9,0-2.9c0.3,0,0.6,0,1,0l0,0C8.8,11.9,8.8,12.9,8.8,13.8L8.8,13.8z"/>
		<path class="st0" d="M15.5,10.9c0.3,0,0.6,0,1,0c0,1,0,1.9,0,2.9c-0.3,0-0.6,0-1,0l0,0C15.5,12.9,15.5,11.9,15.5,10.9L15.5,10.9z"
			/>
		<path class="st0" d="M13.6,15.7c0,0.3,0,0.6,0,1c-1,0-1.9,0-2.9,0c0-0.3,0-0.6,0-1l0,0C11.7,15.7,12.6,15.7,13.6,15.7L13.6,15.7z"
			/>
		<path class="st0" d="M8.8,10.9c0-0.6,0-1.1,0-1.7c0-0.1,0-0.1,0-0.2c0.1,0,0.1,0,0.1,0c0.6,0,1.2,0,1.8,0h0.1l0,0c0,0.3,0,0.6,0,1
			c-0.3,0-0.6,0-1,0c0,0.3,0,0.6,0,1C9.4,10.9,9.1,10.9,8.8,10.9L8.8,10.9z"/>
		<path class="st0" d="M13.6,9c0.5,0,1.1,0,1.6,0c0.1,0,0.2,0,0.3,0c0,0.6,0,1.3,0,1.9l0,0c-0.3,0-0.6,0-1,0c0-0.3,0-0.6,0-1
			c-0.3,0-0.6,0-1,0C13.6,9.6,13.6,9.3,13.6,9L13.6,9z"/>
		<path class="st0" d="M10.7,15.7c-0.6,0-1.1,0-1.7,0c-0.1,0-0.2,0-0.2,0c0-0.1,0-0.1,0-0.2c0-0.6,0-1.1,0-1.7v-0.1l0,0
			c0.3,0,0.6,0,1,0c0,0.3,0,0.6,0,1c0.3,0,0.6,0,1,0C10.7,15.1,10.7,15.4,10.7,15.7L10.7,15.7z"/>
		<path class="st0" d="M15.5,13.8c0,0.6,0,1.3,0,1.9l0,0l0,0c-0.6,0-1.3,0-1.9,0l0,0c0-0.3,0-0.6,0-1c0.3,0,0.6,0,1,0
			c0-0.3,0-0.6,0-1C14.9,13.8,15.2,13.8,15.5,13.8L15.5,13.8z"/>
	</g>
	<g>
		<g>
			<path class="st0" d="M18.5,10.2c0.4,0,0.8,0,1.3,0c0,1.3,0,2.5,0,3.8c-0.4,0-0.9,0-1.3,0l0,0C18.5,12.8,18.5,11.5,18.5,10.2
				L18.5,10.2z"/>
			<path class="st0" d="M15.9,7.8c0.7,0,1.4,0,2.1,0c0.1,0,0.3,0,0.4,0c0,0.9,0,1.7,0,2.5l0,0c-0.4,0-0.8,0-1.3,0c0-0.4,0-0.8,0-1.3
				c-0.4,0-0.9,0-1.3,0C15.9,8.6,15.9,8.2,15.9,7.8L15.9,7.8z"/>
			<path class="st0" d="M18.5,14c0,0.8,0,1.7,0,2.5c0,0,0,0,0,0.1c0,0,0,0-0.1,0c-0.8,0-1.7,0-2.5,0l0,0c0-0.4,0-0.8,0-1.3
				c0.4,0,0.8,0,1.3,0c0-0.4,0-0.9,0-1.3C17.6,14,18,14,18.5,14L18.5,14z"/>
		</g>
	</g>
	<g>
		<g>
			<path class="st0" d="M5.9,14c-0.4,0-0.8,0-1.3,0c0-1.3,0-2.5,0-3.8c0.4,0,0.9,0,1.3,0l0,0C5.9,11.5,5.9,12.8,5.9,14L5.9,14z"/>
			<path class="st0" d="M8.3,16.5c-0.7,0-1.4,0-2.1,0c-0.1,0-0.3,0-0.4,0c0-0.9,0-1.7,0-2.5l0,0c0.4,0,0.8,0,1.3,0
				c0,0.4,0,0.8,0,1.3c0.4,0,0.9,0,1.3,0C8.3,15.7,8.3,16.1,8.3,16.5L8.3,16.5z"/>
			<path class="st0" d="M5.9,10.2c0-0.8,0-1.7,0-2.5c0,0,0,0,0-0.1c0,0,0,0,0.1,0c0.8,0,1.7,0,2.5,0l0,0c0,0.4,0,0.8,0,1.3
				C8,9,7.6,9,7.1,9c0,0.4,0,0.9,0,1.3C6.7,10.2,6.3,10.2,5.9,10.2L5.9,10.2z"/>
		</g>
	</g>
	<g>
		<path class="st0" d="M1.7,14.2c-0.6,0-1.1,0-1.7,0c0-1.7,0-3.3,0-5c0.6,0,1.1,0,1.7,0l0,0C1.6,10.9,1.6,12.6,1.7,14.2L1.7,14.2z"
			/>
		<path class="st0" d="M1.7,9.2c0-1,0-1.9,0-3c0-0.1,0-0.2,0-0.4c0.1,0,0.1,0,0.1,0c1,0,2.1,0,3.1,0H5l0,0c0,0.6,0,1.1,0,1.7
			c-0.6,0-1.1,0-1.7,0c0,0.6,0,1.1,0,1.7C2.7,9.2,2.2,9.2,1.7,9.2L1.7,9.2z"/>
		<path class="st0" d="M5,17.6c-1,0-1.9,0-2.9,0c-0.1,0-0.3,0-0.4,0c0-0.1,0-0.2,0-0.3c0-1,0-1.9,0-2.9c0-0.1,0-0.1,0-0.1l0,0
			c0.6,0,1.1,0,1.7,0c0,0.6,0,1.1,0,1.7c0.6,0,1.1,0,1.7,0C5,16.5,5,17,5,17.6L5,17.6z"/>
		<g>
			<path class="st0" d="M22.3,9.6c0.6,0,1.1,0,1.7,0c0,1.7,0,3.3,0,5c-0.6,0-1.1,0-1.7,0l0,0C22.3,13,22.3,11.3,22.3,9.6L22.3,9.6z"
				/>
			<path class="st0" d="M19,6.3c0.9,0,1.8,0,2.7,0c0.2,0,0.3,0,0.6,0c0,1.1,0,2.2,0,3.3l0,0c-0.6,0-1.1,0-1.7,0c0-0.6,0-1.1,0-1.7
				c-0.6,0-1.1,0-1.7,0C19,7.4,19,6.9,19,6.3L19,6.3z"/>
			<path class="st0" d="M22.3,14.6c0,1.1,0,2.2,0,3.3V18h-0.1c-1.1,0-2.2,0-3.3,0l0,0c0-0.6,0-1.1,0-1.7c0.6,0,1.1,0,1.7,0
				c0-0.6,0-1.1,0-1.7C21.3,14.6,21.8,14.6,22.3,14.6L22.3,14.6z"/>
		</g>
	</g>
</g>
</svg>
