<?xml version="1.0" encoding="utf-8"?>
<!-- Generator: Adobe Illustrator 21.0.0, SVG Export Plug-In . SVG Version: 6.00 Build 0)  -->
<svg version="1.1"
	 id="svg309" inkscape:version="1.0.2 (e86c870879, 2021-01-15)" sodipodi:docname="brring-to-front.svg" xmlns:cc="http://creativecommons.org/ns#" xmlns:dc="http://purl.org/dc/elements/1.1/" xmlns:inkscape="http://www.inkscape.org/namespaces/inkscape" xmlns:rdf="http://www.w3.org/1999/02/22-rdf-syntax-ns#" xmlns:sodipodi="http://sodipodi.sourceforge.net/DTD/sodipodi-0.dtd" xmlns:svg="http://www.w3.org/2000/svg"
	 xmlns="http://www.w3.org/2000/svg" xmlns:xlink="http://www.w3.org/1999/xlink" x="0px" y="0px" viewBox="0 0 13.1 4.8"
	 style="enable-background:new 0 0 13.1 4.8;" xml:space="preserve">
<style type="text/css">
	.st0{fill:#017100;}
	.st1{fill:none;}
</style>
<sodipodi:namedview  bordercolor="#666666" borderopacity="1.0" fit-margin-bottom="0" fit-margin-left="0" fit-margin-right="0" fit-margin-top="0" id="base" inkscape:current-layer="layer1" inkscape:cx="-71.010477" inkscape:cy="39.522393" inkscape:document-rotation="0" inkscape:document-units="mm" inkscape:pageopacity="0.0" inkscape:pageshadow="2" inkscape:window-height="1029" inkscape:window-maximized="1" inkscape:window-width="1920" inkscape:window-x="1920" inkscape:window-y="28" inkscape:zoom="2.7359919" pagecolor="#ffffff" showgrid="false">
	</sodipodi:namedview>
<g>
	<g>
		<g>
			<rect x="0.3" y="3.3" class="st0" width="1.6" height="0.2"/>
			<rect x="0.3" y="1.5" class="st0" width="1.6" height="0.2"/>
			<rect x="0.1" y="1.6" class="st0" width="0.2" height="1.6"/>
			<rect x="1.9" y="1.6" class="st0" width="0.2" height="1.6"/>
			<line class="st1" x1="2" y1="3.3" x2="1.9" y2="3.3"/>
		</g>
	</g>
	<g>
		<rect x="3.9" y="3.8" class="st0" width="2.6" height="0.3"/>
		<rect x="3.9" y="0.9" class="st0" width="2.6" height="0.3"/>
		<rect x="3.6" y="1.2" class="st0" width="0.3" height="2.6"/>
		<rect x="6.5" y="1.2" class="st0" width="0.3" height="2.6"/>
		<line class="st1" x1="6.7" y1="3.8" x2="6.5" y2="3.8"/>
	</g>
	<g>
		<g>
			<rect x="8.8" y="4.4" class="st0" width="4" height="0.4"/>
			<rect x="8.8" y="0" class="st0" width="4" height="0.4"/>
			<rect x="8.3" y="0.4" class="st0" width="0.4" height="4"/>
			<rect x="12.8" y="0.4" class="st0" width="0.4" height="4"/>
			<line class="st1" x1="13.2" y1="4.4" x2="12.8" y2="4.4"/>
		</g>
	</g>
</g>
</svg>
