<?xml version="1.0" encoding="utf-8"?>
<!-- Generator: Adobe Illustrator 21.0.0, SVG Export Plug-In . SVG Version: 6.00 Build 0)  -->
<svg version="1.1" id="Layer_1" xmlns="http://www.w3.org/2000/svg" xmlns:xlink="http://www.w3.org/1999/xlink" x="0px" y="0px"
	 viewBox="0 0 24 24" style="enable-background:new 0 0 24 24;" xml:space="preserve">
<style type="text/css">
	.st0{fill:#017100;}
</style>
<title></title>
<g id="icomoon-ignore">
</g>
<g>
	<path class="st0" d="M22.4,19.7c-6.9,0-13.7,0-20.7,0c0-0.2,0-0.4,0-0.5c-0.3,0-0.5,0-0.9,0c0-0.2,0-0.4,0-0.5c-0.3,0-0.5,0-0.9,0
		c0-4.4,0-8.7,0-13.1c0.2,0,0.5,0,0.9,0c0-0.2,0-0.4,0-0.5c0.3,0,0.5,0,0.8,0c0-0.2,0-0.4,0-0.5c6.9,0,13.7,0,20.7,0
		c0,0.2,0,0.4,0,0.5c0.3,0,0.5,0,0.9,0c0,0.2,0,0.4,0,0.5c0.3,0,0.5,0,0.9,0c0,4.4,0,8.7,0,13.1c-0.2,0-0.5,0-0.9,0
		c0,0.2,0,0.4,0,0.5c-0.3,0-0.5,0-0.8,0C22.4,19.4,22.4,19.5,22.4,19.7z M22.4,5.6c-6.9,0-13.7,0-20.6,0c0,4.4,0,8.7,0,13.1
		c6.9,0,13.7,0,20.6,0C22.4,14.2,22.4,9.9,22.4,5.6z"/>
</g>
</svg>
