<?xml version="1.0" encoding="utf-8"?>
<!-- Generator: Adobe Illustrator 21.0.0, SVG Export Plug-In . SVG Version: 6.00 Build 0)  -->
<svg version="1.1" id="Layer_1" xmlns="http://www.w3.org/2000/svg" xmlns:xlink="http://www.w3.org/1999/xlink" x="0px" y="0px"
	 viewBox="0 0 24 24" style="enable-background:new 0 0 24 24;" xml:space="preserve">
<style type="text/css">
	.st0{fill:none;}
	.st1{fill:#017100;}
</style>
<title></title>
<g id="icomoon-ignore">
</g>
<line class="st0" x1="12" y1="11.9" x2="12" y2="12"/>
<g>
	<rect x="22.3" y="5.9" class="st1" width="0.8" height="0.9"/>
	<rect x="0.9" y="5.9" class="st1" width="0.8" height="0.9"/>
	<rect x="22.3" y="12.4" class="st1" width="0.8" height="0.9"/>
	<polygon class="st1" points="14.4,15.5 13.5,15.5 13.5,14.1 13.5,13.2 12.7,13.2 1.7,13.2 1.7,14.1 12.7,14.1 12.7,15.5 13.5,15.5 
		13.5,16.3 14.4,16.3 14.4,17.2 15.2,17.2 15.2,16.3 14.4,16.3 	"/>
	<rect x="17.7" y="18.1" class="st1" width="0.8" height="0.9"/>
	<rect x="0.9" y="12.4" class="st1" width="0.8" height="0.9"/>
	<rect y="6.7" class="st1" width="0.8" height="5.6"/>
	<rect x="23.2" y="6.7" class="st1" width="0.8" height="5.6"/>
	<rect x="1.7" y="5" class="st1" width="20.7" height="0.9"/>
	<polygon class="st1" points="16,13.2 16,13.2 16,15.5 16.8,15.5 16.8,17.2 15.2,17.2 15.2,18.1 16.8,18.1 17.6,18.1 17.7,18.1 
		17.7,15.5 16.8,15.5 16.8,14.1 22.3,14.1 22.3,13.2 	"/>
</g>
</svg>
