<?xml version="1.0" encoding="utf-8"?>
<!-- Generator: Adobe Illustrator 21.0.0, SVG Export Plug-In . SVG Version: 6.00 Build 0)  -->
<svg version="1.1" id="Layer_1" xmlns="http://www.w3.org/2000/svg" xmlns:xlink="http://www.w3.org/1999/xlink" x="0px" y="0px"
	 viewBox="0 0 24 24" style="enable-background:new 0 0 24 24;" xml:space="preserve">
<style type="text/css">
	.st0{fill:#017100;}
</style>
<title></title>
<g id="icomoon-ignore">
</g>
<g>
	<rect y="2.2" class="st0" width="24" height="1.4"/>
	<rect id="rect2990_1_" x="1.4" y="20.4" class="st0" width="1.4" height="1.4"/>
	<rect id="rect2990_2_" x="2.9" y="19.1" class="st0" width="1.4" height="1.4"/>
	<rect id="rect2990_11_" x="4.4" y="3.6" class="st0" width="1.4" height="1.4"/>
	<rect id="rect2990_12_" x="18.1" y="3.6" class="st0" width="1.4" height="1.4"/>
	<rect id="rect2990_4_" x="4.4" y="20.4" class="st0" width="1.4" height="1.4"/>
	<rect id="rect2990_5_" x="7.3" y="20.4" class="st0" width="1.4" height="1.4"/>
	<rect id="rect2990_3_" x="5.9" y="19.1" class="st0" width="1.4" height="1.4"/>
	<rect x="1.5" y="5" class="st0" width="7.2" height="1.5"/>
	<rect y="6.4" class="st0" width="1.5" height="14"/>
	<rect x="8.8" y="6.4" class="st0" width="1.5" height="14"/>
	<g>
		<rect id="rect2990_10_" x="15.1" y="20.4" class="st0" width="1.4" height="1.4"/>
		<rect id="rect2990_9_" x="16.6" y="19.1" class="st0" width="1.4" height="1.4"/>
		<rect id="rect2990_8_" x="18.1" y="20.4" class="st0" width="1.4" height="1.4"/>
		<rect id="rect2990_7_" x="21" y="20.4" class="st0" width="1.4" height="1.4"/>
		<rect id="rect2990_6_" x="19.6" y="19.1" class="st0" width="1.4" height="1.4"/>
		<rect x="15.2" y="5" class="st0" width="7.2" height="1.5"/>
		<rect x="13.7" y="6.4" class="st0" width="1.5" height="14"/>
		<rect x="22.5" y="6.4" class="st0" width="1.5" height="14"/>
	</g>
	<line class="st0" x1="16.9" y1="20.3" x2="15.5" y2="20.3"/>
</g>
</svg>
