<?xml version="1.0" encoding="utf-8"?>
<!-- Generator: Adobe Illustrator 21.0.0, SVG Export Plug-In . SVG Version: 6.00 Build 0)  -->
<svg version="1.1"
	 id="svg309" inkscape:version="1.0.2 (e86c870879, 2021-01-15)" sodipodi:docname="brring-to-front.svg" xmlns:cc="http://creativecommons.org/ns#" xmlns:dc="http://purl.org/dc/elements/1.1/" xmlns:inkscape="http://www.inkscape.org/namespaces/inkscape" xmlns:rdf="http://www.w3.org/1999/02/22-rdf-syntax-ns#" xmlns:sodipodi="http://sodipodi.sourceforge.net/DTD/sodipodi-0.dtd" xmlns:svg="http://www.w3.org/2000/svg"
	 xmlns="http://www.w3.org/2000/svg" xmlns:xlink="http://www.w3.org/1999/xlink" x="0px" y="0px" viewBox="0 0 8.9 9"
	 style="enable-background:new 0 0 8.9 9;" xml:space="preserve">
<style type="text/css">
	.st0{fill:#017100;}
	.st1{fill:none;}
</style>
<sodipodi:namedview  bordercolor="#666666" borderopacity="1.0" fit-margin-bottom="0" fit-margin-left="0" fit-margin-right="0" fit-margin-top="0" id="base" inkscape:current-layer="layer1" inkscape:cx="-71.010477" inkscape:cy="39.522393" inkscape:document-rotation="0" inkscape:document-units="mm" inkscape:pageopacity="0.0" inkscape:pageshadow="2" inkscape:window-height="1029" inkscape:window-maximized="1" inkscape:window-width="1920" inkscape:window-x="1920" inkscape:window-y="28" inkscape:zoom="2.7359919" pagecolor="#ffffff" showgrid="false">
	</sodipodi:namedview>
<g>
	<g>
		<rect x="7.8" y="-0.1" transform="matrix(0.7071 -0.7071 0.7071 0.7071 1.645 5.9405)" class="st0" width="0.4" height="2.2"/>
		<rect x="5.9" y="0.4" transform="matrix(0.7071 -0.7071 0.7071 0.7071 1.4846 4.7921)" class="st0" width="1.2" height="0.4"/>
		<rect x="7.7" y="2.2" transform="matrix(0.7071 -0.7071 0.7071 0.7071 0.7206 6.5909)" class="st0" width="1.2" height="0.4"/>
		<rect x="0.8" y="3.6" transform="matrix(0.7071 -0.7071 0.7071 0.7071 -1.6899 3.4732)" class="st0" width="5.1" height="0.4"/>
		<rect x="2.7" y="5.4" transform="matrix(0.7071 -0.7071 0.7071 0.7071 -2.4357 5.3159)" class="st0" width="5.1" height="0.4"/>
		<rect x="6.3" y="0.9" transform="matrix(0.7071 -0.7071 0.7071 0.7071 0.1963 5.331)" class="st0" width="0.4" height="3"/>
		<rect x="1.9" y="5.4" transform="matrix(0.7071 -0.7071 0.7071 0.7071 -4.2788 3.4711)" class="st0" width="0.4" height="3"/>
		<line class="st1" x1="6.9" y1="4.1" x2="6.6" y2="3.8"/>
	</g>
	<g>
		
			<rect id="rect1005" x="1.9" y="8.2" transform="matrix(0.7071 -0.7071 0.7071 0.7071 -5.3496 4.0445)" class="st0" width="0.7" height="0.6"/>
		
			<rect id="rect1007" x="1" y="8.2" transform="matrix(0.7071 -0.7071 0.7071 0.7071 -5.618 3.409)" class="st0" width="0.7" height="0.6"/>
		
			<rect id="rect1009" x="0.2" y="6.5" transform="matrix(0.7071 -0.7071 0.7071 0.7071 -4.6277 2.3463)" class="st0" width="0.7" height="0.6"/>
		
			<rect id="rect1022" x="0.1" y="8.2" transform="matrix(0.7071 -0.7071 0.7071 0.7071 -5.8992 2.8044)" class="st0" width="0.7" height="0.6"/>
		
			<rect id="rect1024" x="0.1" y="7.3" transform="matrix(0.7071 -0.7071 0.7071 0.7071 -5.2678 2.5754)" class="st0" width="0.7" height="0.6"/>
	</g>
</g>
</svg>
