<?xml version="1.0" encoding="utf-8"?>
<!-- Generator: Adobe Illustrator 21.0.0, SVG Export Plug-In . SVG Version: 6.00 Build 0)  -->
<svg version="1.1"
	 id="svg309" inkscape:version="1.0.2 (e86c870879, 2021-01-15)" sodipodi:docname="brring-to-front.svg" xmlns:cc="http://creativecommons.org/ns#" xmlns:dc="http://purl.org/dc/elements/1.1/" xmlns:inkscape="http://www.inkscape.org/namespaces/inkscape" xmlns:rdf="http://www.w3.org/1999/02/22-rdf-syntax-ns#" xmlns:sodipodi="http://sodipodi.sourceforge.net/DTD/sodipodi-0.dtd" xmlns:svg="http://www.w3.org/2000/svg"
	 xmlns="http://www.w3.org/2000/svg" xmlns:xlink="http://www.w3.org/1999/xlink" x="0px" y="0px" viewBox="0 0 17.8 28.7"
	 style="enable-background:new 0 0 17.8 28.7;" xml:space="preserve">
<sodipodi:namedview  bordercolor="#666666" borderopacity="1.0" fit-margin-bottom="0" fit-margin-left="0" fit-margin-right="0" fit-margin-top="0" id="base" inkscape:current-layer="layer1" inkscape:cx="-71.010477" inkscape:cy="39.522393" inkscape:document-rotation="0" inkscape:document-units="mm" inkscape:pageopacity="0.0" inkscape:pageshadow="2" inkscape:window-height="1029" inkscape:window-maximized="1" inkscape:window-width="1920" inkscape:window-x="1920" inkscape:window-y="28" inkscape:zoom="2.7359919" pagecolor="#ffffff" showgrid="false">
	</sodipodi:namedview>
<g>
	<g>
		<g>
			<path d="M8.8,14.6l-0.6-2.2l2.2-0.6L11,14L8.8,14.6z M10.4,11.8L9.8,9.6L12,9l0.6,2.2L10.4,11.8z M12,9l-0.6-2.2l2.2-0.6l0.6,2.2
				L12,9z M13.5,6.2L12.9,4l2.2-0.6l0.6,2.2L13.5,6.2z M15.1,3.4l-0.6-2.2l2.2-0.6l0.6,2.2L15.1,3.4z"/>
		</g>
	</g>
	<g>
		<path d="M0.8,28.5l-0.6-2.2l2.2-0.6L3,27.9L0.8,28.5z M2.4,25.8l-0.6-2.2L4,23l0.6,2.2L2.4,25.8z M4,23l-0.6-2.2l2.2-0.6l0.6,2.2
			L4,23z M5.6,20.2L5,18l2.2-0.6l0.6,2.2L5.6,20.2z M7.2,17.4l-0.6-2.2l2.2-0.6l0.6,2.2L7.2,17.4z"/>
	</g>
</g>
</svg>
