<?xml version="1.0" encoding="UTF-8" standalone="no"?>
<!-- Created with Inkscape (http://www.inkscape.org/) -->

<svg
   width="286.66666"
   height="337.43716"
   viewBox="0 0 75.847218 89.280253"
   version="1.1"
   id="svg5"
   inkscape:version="1.1.1 (3bf5ae0d25, 2021-09-20)"
   sodipodi:docname="icon-stream.svg"
   xmlns:inkscape="http://www.inkscape.org/namespaces/inkscape"
   xmlns:sodipodi="http://sodipodi.sourceforge.net/DTD/sodipodi-0.dtd"
   xmlns="http://www.w3.org/2000/svg"
   xmlns:svg="http://www.w3.org/2000/svg">
  <sodipodi:namedview
     id="namedview7"
     pagecolor="#c5c9c5"
     bordercolor="#666666"
     borderopacity="1.0"
     inkscape:pageshadow="2"
     inkscape:pageopacity="0"
     inkscape:pagecheckerboard="0"
     inkscape:document-units="mm"
     showgrid="false"
     borderlayer="true"
     inkscape:showpageshadow="false"
     units="px"
     width="1920px"
     inkscape:zoom="0.53"
     inkscape:cx="5.6603774"
     inkscape:cy="125.4717"
     inkscape:window-width="1677"
     inkscape:window-height="1064"
     inkscape:window-x="513"
     inkscape:window-y="151"
     inkscape:window-maximized="0"
     inkscape:current-layer="layer1"
     fit-margin-top="0"
     fit-margin-left="0"
     fit-margin-right="0"
     fit-margin-bottom="0" />
  <defs
     id="defs2" />
  <g
     inkscape:label="Calque 1"
     inkscape:groupmode="layer"
     id="layer1"
     transform="translate(-305.8856,-120.27469)">
    <path
       style="fill:#178d00;fill-opacity:1;stroke-width:0.352778"
       d="m 340.8106,172.85231 v -36.70262 h 3.17664 3.17664 l -0.0898,36.60069 -0.0898,36.6007 -3.08681,0.10193 -3.0868,0.10193 z m -18.69723,-20.29846 v -2.64583 h 3.175 3.17501 v 2.64583 2.64584 h -3.17501 -3.175 z m 37.04167,0 v -2.64583 h 3.175 3.175 v 2.64583 2.64584 h -3.175 -3.175 z m -46.21389,-7.40833 v -2.64583 h 3.35139 3.35139 v 2.64583 2.64583 h -3.35139 -3.35139 z m 55.03334,0 v -2.64583 h 3.175 3.175 v 2.64583 2.64583 h -3.175 -3.175 z m -62.08889,-7.40833 v -2.64584 h 3.175 3.175 v 2.64584 2.64583 h -3.175 -3.175 z m 69.49722,0 v -2.64584 h 3.175 3.175 v 2.64584 2.64583 h -3.175 -3.175 z m -34.57222,-6.87917 v -2.84969 l 3.0868,0.10193 3.08681,0.10193 v 2.64583 2.64583 l -3.08681,0.10193 -3.0868,0.10193 z m -27.86945,-0.52917 v -2.64583 h 3.35139 3.35139 v 2.64583 2.64584 h -3.35139 -3.35139 z m 55.03334,0 v -2.64583 h 3.175 3.175 v 2.64583 2.64584 h -3.175 -3.175 z m -45.86112,-7.40833 v -2.64583 h 3.175 3.17501 v 2.64583 2.64583 h -3.17501 -3.175 z m 37.04167,0 v -2.64583 h 3.175 3.175 v 2.64583 2.64583 h -3.175 -3.175 z"
       id="path833" />
  </g>
</svg>
