<?xml version="1.0" encoding="utf-8"?>
<!-- Generator: Adobe Illustrator 21.0.0, SVG Export Plug-In . SVG Version: 6.00 Build 0)  -->
<svg version="1.1"
	 id="svg309" inkscape:version="1.0.2 (e86c870879, 2021-01-15)" sodipodi:docname="brring-to-front.svg" xmlns:cc="http://creativecommons.org/ns#" xmlns:dc="http://purl.org/dc/elements/1.1/" xmlns:inkscape="http://www.inkscape.org/namespaces/inkscape" xmlns:rdf="http://www.w3.org/1999/02/22-rdf-syntax-ns#" xmlns:sodipodi="http://sodipodi.sourceforge.net/DTD/sodipodi-0.dtd" xmlns:svg="http://www.w3.org/2000/svg"
	 xmlns="http://www.w3.org/2000/svg" xmlns:xlink="http://www.w3.org/1999/xlink" x="0px" y="0px" viewBox="0 0 21.2 27.6"
	 style="enable-background:new 0 0 21.2 27.6;" xml:space="preserve">
<style type="text/css">
	.st0{fill:#017100;}
</style>
<sodipodi:namedview  bordercolor="#666666" borderopacity="1.0" fit-margin-bottom="0" fit-margin-left="0" fit-margin-right="0" fit-margin-top="0" id="base" inkscape:current-layer="layer1" inkscape:cx="-71.010477" inkscape:cy="39.522393" inkscape:document-rotation="0" inkscape:document-units="mm" inkscape:pageopacity="0.0" inkscape:pageshadow="2" inkscape:window-height="1029" inkscape:window-maximized="1" inkscape:window-width="1920" inkscape:window-x="1920" inkscape:window-y="28" inkscape:zoom="2.7359919" pagecolor="#ffffff" showgrid="false">
	</sodipodi:namedview>
<g>
	<g>
		<g>
			<path class="st0" d="M9.3,7.4c0-0.3,0-0.6,0-0.9c0.9,0,1.7,0,2.6,0c0,0.3,0,0.6,0,0.9l0,0C11.1,7.4,10.2,7.4,9.3,7.4L9.3,7.4z"/>
			<path class="st0" d="M7.6,11.8c-0.3,0-0.6,0-0.9,0c0-0.9,0-1.7,0-2.6c0.3,0,0.6,0,0.9,0l0,0C7.6,10.1,7.6,10.9,7.6,11.8L7.6,11.8
				z"/>
			<path class="st0" d="M13.7,9.2c0.3,0,0.6,0,0.9,0c0,0.9,0,1.7,0,2.6c-0.3,0-0.6,0-0.9,0l0,0C13.7,10.9,13.7,10.1,13.7,9.2
				L13.7,9.2z"/>
			<path class="st0" d="M11.9,13.5c0,0.3,0,0.6,0,0.9c-0.9,0-1.7,0-2.6,0c0-0.3,0-0.6,0-0.9l0,0C10.2,13.5,11.1,13.5,11.9,13.5
				L11.9,13.5z"/>
			<path class="st0" d="M7.6,9.2c0-0.5,0-1,0-1.5c0-0.1,0-0.1,0-0.2c0.1,0,0.1,0,0.1,0c0.5,0,1.1,0,1.6,0h0.1l0,0c0,0.3,0,0.6,0,0.9
				c-0.3,0-0.6,0-0.9,0c0,0.3,0,0.6,0,0.9C8.2,9.2,7.9,9.2,7.6,9.2L7.6,9.2z"/>
			<path class="st0" d="M11.9,7.4c0.5,0,1,0,1.4,0c0.1,0,0.2,0,0.3,0c0,0.6,0,1.1,0,1.7l0,0c-0.3,0-0.6,0-0.9,0c0-0.3,0-0.6,0-0.9
				c-0.3,0-0.6,0-0.9,0C11.9,8,11.9,7.8,11.9,7.4L11.9,7.4z"/>
			<path class="st0" d="M9.3,13.5c-0.5,0-1,0-1.5,0c-0.1,0-0.2,0-0.2,0c0-0.1,0-0.1,0-0.2c0-0.5,0-1,0-1.5v-0.1l0,0
				c0.3,0,0.6,0,0.9,0c0,0.3,0,0.6,0,0.9c0.3,0,0.6,0,0.9,0C9.3,12.9,9.3,13.2,9.3,13.5L9.3,13.5z"/>
			<path class="st0" d="M13.7,11.8c0,0.6,0,1.1,0,1.7l0,0l0,0c-0.6,0-1.1,0-1.7,0l0,0c0-0.3,0-0.6,0-0.9c0.3,0,0.6,0,0.9,0
				c0-0.3,0-0.6,0-0.9C13.1,11.8,13.4,11.8,13.7,11.8L13.7,11.8z"/>
		</g>
	</g>
	<g>
		<rect x="17" y="4.6" class="st0" width="4.2" height="13.9"/>
		<rect x="0" y="4.6" class="st0" width="4.2" height="13.9"/>
		<rect x="12.8" y="18.5" class="st0" width="4.2" height="4.6"/>
		<rect x="4.3" y="18.5" class="st0" width="4.2" height="4.6"/>
		<rect x="8.5" y="23" class="st0" width="4.2" height="4.6"/>
		<rect x="4.3" y="0" class="st0" width="12.8" height="4.6"/>
	</g>
</g>
</svg>
