<?xml version="1.0" encoding="utf-8"?>
<!-- Generator: Adobe Illustrator 21.0.0, SVG Export Plug-In . SVG Version: 6.00 Build 0)  -->
<svg version="1.1"
	 id="svg309" inkscape:version="1.0.2 (e86c870879, 2021-01-15)" sodipodi:docname="brring-to-front.svg" xmlns:cc="http://creativecommons.org/ns#" xmlns:dc="http://purl.org/dc/elements/1.1/" xmlns:inkscape="http://www.inkscape.org/namespaces/inkscape" xmlns:rdf="http://www.w3.org/1999/02/22-rdf-syntax-ns#" xmlns:sodipodi="http://sodipodi.sourceforge.net/DTD/sodipodi-0.dtd" xmlns:svg="http://www.w3.org/2000/svg"
	 xmlns="http://www.w3.org/2000/svg" xmlns:xlink="http://www.w3.org/1999/xlink" x="0px" y="0px" viewBox="0 0 9.5 16.7"
	 style="enable-background:new 0 0 9.5 16.7;" xml:space="preserve">
<style type="text/css">
	.st0{fill:#7E827E;}
</style>
<sodipodi:namedview  bordercolor="#666666" borderopacity="1.0" fit-margin-bottom="0" fit-margin-left="0" fit-margin-right="0" fit-margin-top="0" id="base" inkscape:current-layer="layer1" inkscape:cx="-71.010477" inkscape:cy="39.522393" inkscape:document-rotation="0" inkscape:document-units="mm" inkscape:pageopacity="0.0" inkscape:pageshadow="2" inkscape:window-height="1029" inkscape:window-maximized="1" inkscape:window-width="1920" inkscape:window-x="1920" inkscape:window-y="28" inkscape:zoom="2.7359919" pagecolor="#ffffff" showgrid="false">
	</sodipodi:namedview>
<g>
	<g>
		<g>
			<path class="st0" d="M3.2,4.7c0-0.4,0-0.7,0-1.1c1.1,0,2.1,0,3.2,0c0,0.4,0,0.7,0,1.1l0,0C5.3,4.7,4.2,4.7,3.2,4.7L3.2,4.7z"/>
			<path class="st0" d="M1.1,9.9c-0.4,0-0.7,0-1.1,0c0-1.1,0-2.1,0-3.2c0.4,0,0.7,0,1.1,0l0,0C1.1,7.9,1.1,8.9,1.1,9.9L1.1,9.9z"/>
			<path class="st0" d="M8.5,6.8c0.4,0,0.7,0,1.1,0c0,1.1,0,2.1,0,3.2c-0.4,0-0.7,0-1.1,0l0,0C8.5,8.9,8.5,7.9,8.5,6.8L8.5,6.8z"/>
			<path class="st0" d="M6.4,12.1c0,0.4,0,0.7,0,1.1c-1.1,0-2.1,0-3.2,0c0-0.4,0-0.7,0-1.1l0,0C4.2,12.1,5.3,12.1,6.4,12.1L6.4,12.1
				z"/>
			<path class="st0" d="M1.1,6.8c0-0.6,0-1.3,0-1.9c0-0.1,0-0.1,0-0.3c0.1,0,0.1,0,0.1,0c0.6,0,1.3,0,1.9,0h0.1l0,0
				c0,0.4,0,0.7,0,1.1c-0.4,0-0.7,0-1.1,0c0,0.4,0,0.7,0,1.1C1.8,6.8,1.4,6.8,1.1,6.8L1.1,6.8z"/>
			<path class="st0" d="M6.4,4.7c0.6,0,1.2,0,1.8,0c0.1,0,0.3,0,0.4,0c0,0.7,0,1.4,0,2.1l0,0c-0.4,0-0.7,0-1.1,0c0-0.4,0-0.7,0-1.1
				c-0.4,0-0.7,0-1.1,0C6.4,5.4,6.4,5,6.4,4.7L6.4,4.7z"/>
			<path class="st0" d="M3.2,12.1c-0.6,0-1.3,0-1.8,0c-0.1,0-0.2,0-0.3,0c0-0.1,0-0.1,0-0.2c0-0.6,0-1.3,0-1.9V9.9l0,0
				c0.4,0,0.7,0,1.1,0c0,0.4,0,0.7,0,1.1c0.4,0,0.7,0,1.1,0C3.2,11.4,3.2,11.7,3.2,12.1L3.2,12.1z"/>
			<path class="st0" d="M8.5,9.9c0,0.7,0,1.4,0,2.1l0,0l0,0c-0.7,0-1.4,0-2.1,0l0,0c0-0.4,0-0.7,0-1.1c0.4,0,0.7,0,1.1,0
				c0-0.4,0-0.7,0-1.1C7.8,9.9,8.1,9.9,8.5,9.9L8.5,9.9z"/>
		</g>
	</g>
	<g>
		<rect x="3" y="7.2" class="st0" width="0.6" height="2.4"/>
		<polygon class="st0" points="6,6.8 3.6,6.8 3.6,7.2 6,7.2 6,9.6 6.6,9.6 6.6,7.2 6,7.2 		"/>
		<rect x="3.6" y="9.6" class="st0" width="2.3" height="0.4"/>
	</g>
</g>
</svg>
