<svg xmlns="http://www.w3.org/2000/svg" width="300" height="104" viewBox="0 0 300 104" version="1.1">
	<path d="M 45.178 4.715 C 42.858 5.158, 42.855 5.175, 43.178 19.510 C 43.534 35.385, 44.275 37.489, 50.868 41.350 C 55.158 43.862, 64.842 43.862, 69.132 41.350 C 75.768 37.464, 76.500 35.363, 76.500 20.197 C 76.500 6.607, 76.487 6.528, 74 5.346 C 72.625 4.693, 70.263 4.400, 68.750 4.696 L 66 5.233 66 17.051 C 66 31.750, 65.281 34, 60.581 34 C 54.971 34, 54 31.603, 54 17.753 C 54 6.004, 53.988 5.946, 51.435 4.975 C 50.024 4.439, 48.562 4.061, 48.185 4.136 C 47.808 4.211, 46.455 4.472, 45.178 4.715 M 124.480 5.870 C 120.040 7.887, 118 11.229, 118 16.484 C 118 21.008, 121.812 24.672, 129.506 27.542 C 133.882 29.175, 135.500 30.281, 135.500 31.640 C 135.500 33.115, 134.616 33.564, 131.221 33.809 C 128.857 33.980, 125.639 33.468, 124.030 32.665 C 121.411 31.358, 120.961 31.386, 119.559 32.935 C 111.333 42.024, 135.575 47.880, 144.500 38.960 C 146.957 36.504, 147.500 35.136, 147.500 31.399 C 147.500 27.554, 147.010 26.398, 144.384 24.052 C 142.670 22.521, 139.070 20.455, 136.384 19.462 C 129.679 16.982, 128.656 16.120, 130.204 14.254 C 131.425 12.782, 138.088 12.923, 142.173 14.507 C 144.291 15.327, 146.374 11.754, 145.459 8.871 C 143.980 4.212, 131.925 2.488, 124.480 5.870 M 153 22.045 C 153 37.748, 153.052 38.143, 155.455 40.545 C 157.508 42.599, 158.877 43, 163.832 43 C 170.522 43, 172.327 41.715, 171.822 37.310 C 171.543 34.879, 171.122 34.544, 168.697 34.829 C 164.516 35.318, 163 33.468, 163 27.878 L 163 23 167.032 23 C 170.280 23, 171.224 22.570, 171.883 20.787 C 173.352 16.817, 172.159 15.132, 167.647 14.802 C 163.863 14.526, 163.470 14.238, 163.162 11.500 C 162.678 7.217, 161.288 6, 156.878 6 L 153 6 153 22.045 M 92.275 11.960 C 90.501 12.387, 87.904 13.488, 86.503 14.406 L 83.955 16.075 84.228 34.243 L 84.500 52.411 87 53.010 C 88.375 53.339, 90.513 53.419, 91.750 53.188 C 93.719 52.819, 94 52.156, 94 47.883 L 94 43 99.596 43 C 106.687 43, 110.405 40.861, 113.142 35.206 C 116.991 27.256, 114.462 17.864, 107.395 13.859 C 103.821 11.833, 96.577 10.924, 92.275 11.960 M 186 11.662 C 184.625 11.899, 182.239 12.587, 180.697 13.190 C 178.346 14.110, 177.943 14.787, 178.197 17.393 L 178.500 20.500 185.907 20.500 C 195.518 20.500, 196.340 22.317, 187.398 23.798 C 179.319 25.137, 176 27.741, 176 32.740 C 176 37.242, 177.404 39.641, 181.185 41.596 C 187.332 44.775, 201.795 43.120, 204.008 38.986 C 205.416 36.355, 205.214 20.981, 203.733 18.055 C 201.456 13.555, 192.902 10.472, 186 11.662 M 220.313 12.169 C 217.494 12.791, 215.125 14.233, 213.063 16.581 C 210.408 19.604, 210 20.832, 210.004 25.785 C 210.010 35.993, 216.144 41.807, 225.764 40.723 C 229.992 40.247, 230.056 40.283, 228.663 42.368 C 227.521 44.078, 226.276 44.486, 222.370 44.428 C 219.691 44.389, 216.375 44.164, 215 43.928 C 212.812 43.553, 212.461 43.898, 212.191 46.688 C 211.955 49.125, 212.427 50.228, 214.191 51.364 C 220.345 55.330, 231.638 54.072, 236.631 48.866 C 239.455 45.921, 239.505 45.667, 239.826 32.514 C 240.033 24.044, 239.747 18.396, 239.046 17.087 C 236.756 12.807, 227.927 10.489, 220.313 12.169 M 256.500 11.968 C 248.599 13.771, 245.009 18.497, 245.004 27.102 C 244.997 36.895, 251.182 43.041, 261.280 43.277 C 270.511 43.493, 275.632 39.918, 273.037 35.069 C 272.148 33.408, 271.526 33.230, 269.417 34.032 C 265.467 35.533, 258.426 35.219, 256.980 33.476 C 256.284 32.638, 255.892 31.806, 256.107 31.628 C 256.323 31.451, 260.002 30.830, 264.282 30.249 C 268.562 29.668, 272.724 28.644, 273.532 27.974 C 275.683 26.188, 275.325 21.778, 272.713 17.898 C 269.340 12.887, 262.860 10.517, 256.500 11.968 M 280.182 16.500 C 281.087 18.485, 282.060 19.003, 284.911 19.015 C 291.568 19.044, 291.652 20.182, 285.489 26.838 C 280.497 32.231, 279.923 33.269, 280.681 35.543 C 281.532 38.095, 281.623 38.040, 288.771 30.669 C 296.886 22.299, 297.758 19.528, 293.365 16.073 C 291.382 14.513, 289.284 14, 284.887 14 L 279.043 14 280.182 16.500 M 256.861 20.914 C 253.676 23.496, 254.858 24.294, 260.593 23.434 L 265.369 22.718 263.074 20.859 C 260.216 18.544, 259.779 18.548, 256.861 20.914 M 94.714 20.619 C 94.321 21.012, 94 24.197, 94 27.698 C 94 34.761, 95.125 36.042, 99.867 34.382 C 105.866 32.281, 104.726 20.818, 98.457 20.203 C 96.791 20.039, 95.107 20.227, 94.714 20.619 M 221.922 21.593 C 221.195 22.470, 220.600 24.773, 220.600 26.711 C 220.600 30.634, 223.153 33.267, 226.493 32.788 C 228.219 32.540, 228.542 31.626, 228.798 26.250 L 229.095 20 226.170 20 C 224.561 20, 222.650 20.717, 221.922 21.593 M 189.074 30.877 C 185.953 31.750, 185.358 33.586, 187.778 34.881 C 190.743 36.468, 194 35.161, 194 32.383 C 194 29.933, 193.262 29.707, 189.074 30.877 M 23.078 58.604 C 4.568 77.639, 3.526 78.977, 4.425 82.559 C 5.698 87.628, 8.584 87.997, 47.218 88.030 L 82.500 88.060 76 90.892 C 72.425 92.450, 68.713 93.997, 67.750 94.331 C 65.852 94.988, 65.528 96.707, 66.896 98.865 C 68.752 101.795, 101.933 96.897, 120.483 90.955 L 129.707 88 174.304 88 C 221.140 88, 225.754 87.650, 234 83.470 C 237.404 81.745, 261.403 59.005, 269 50.307 C 269.275 49.992, 267.700 50.049, 265.500 50.433 C 262.093 51.027, 259.574 53.033, 248.500 63.969 C 241.350 71.031, 233.686 77.711, 231.468 78.813 C 223.998 82.528, 217.224 83, 171.438 83 C 134.066 83, 126.680 83.236, 123.589 84.527 C 118.545 86.635, 100.765 90.755, 93.500 91.499 L 87.500 92.114 91.852 90.061 C 94.245 88.931, 97.521 86.898, 99.132 85.542 L 102.062 83.077 56.781 82.789 C 31.876 82.630, 10.887 82.105, 10.138 81.622 C 9.122 80.967, 13.180 76.336, 26.131 63.369 C 40.708 48.774, 43.315 45.723, 42.421 44.306 C 41.836 43.378, 40.892 42.464, 40.324 42.275 C 39.757 42.086, 31.996 49.434, 23.078 58.604" stroke="none" fill="black" fill-rule="evenodd"/>
</svg>