<?xml version="1.0" encoding="UTF-8" standalone="no"?>
<!-- Created with Inkscape (http://www.inkscape.org/) -->

<svg
   xmlns:dc="http://purl.org/dc/elements/1.1/"
   xmlns:cc="http://creativecommons.org/ns#"
   xmlns:rdf="http://www.w3.org/1999/02/22-rdf-syntax-ns#"
   xmlns:svg="http://www.w3.org/2000/svg"
   xmlns="http://www.w3.org/2000/svg"
   xmlns:sodipodi="http://sodipodi.sourceforge.net/DTD/sodipodi-0.dtd"
   xmlns:inkscape="http://www.inkscape.org/namespaces/inkscape"
   width="73.568855mm"
   height="25.586664mm"
   viewBox="0 0 73.568856 25.588474"
   version="1.1"
   id="svg1315"
   inkscape:version="0.92.4 (5da689c313, 2019-01-14)"
   sodipodi:docname="logo-upstage-official-vect.svg"
   inkscape:export-filename="/home/elisa/Perso/upstage/logo/png/logo-upstage-official-print.png"
   inkscape:export-xdpi="299.79678"
   inkscape:export-ydpi="299.79678">
  <defs
     id="defs1309" />
  <sodipodi:namedview
     id="base"
     pagecolor="#b9b9b9"
     bordercolor="#666666"
     borderopacity="1.0"
     inkscape:pageopacity="0"
     inkscape:pageshadow="2"
     inkscape:zoom="1.979899"
     inkscape:cx="134.98038"
     inkscape:cy="-17.291624"
     inkscape:document-units="mm"
     inkscape:current-layer="layer1"
     showgrid="false"
     fit-margin-top="1"
     fit-margin-left="1"
     fit-margin-right="1"
     fit-margin-bottom="1"
     inkscape:window-width="1920"
     inkscape:window-height="1034"
     inkscape:window-x="0"
     inkscape:window-y="28"
     inkscape:window-maximized="1"
     inkscape:snap-global="false" />
  <metadata
     id="metadata1312">
    <rdf:RDF>
      <cc:Work
         rdf:about="">
        <dc:format>image/svg+xml</dc:format>
        <dc:type
           rdf:resource="http://purl.org/dc/dcmitype/StillImage" />
        <dc:title></dc:title>
      </cc:Work>
    </rdf:RDF>
  </metadata>
  <g
     inkscape:label="Calque 1"
     inkscape:groupmode="layer"
     id="layer1"
     transform="translate(-48.214503,-59.941952)"
     style="opacity:1">
    <g
       id="g1882"
       transform="matrix(2.4183693,0,0,2.4183693,-112.4432,-66.87801)"
       inkscape:export-xdpi="302.6709"
       inkscape:export-ydpi="302.6709">
      <path
         style="color:#000000;font-style:normal;font-variant:normal;font-weight:normal;font-stretch:normal;font-size:medium;line-height:normal;font-family:sans-serif;font-variant-ligatures:normal;font-variant-position:normal;font-variant-caps:normal;font-variant-numeric:normal;font-variant-alternates:normal;font-feature-settings:normal;text-indent:0;text-align:start;text-decoration:none;text-decoration-line:none;text-decoration-style:solid;text-decoration-color:#000000;letter-spacing:normal;word-spacing:normal;text-transform:none;writing-mode:lr-tb;direction:ltr;text-orientation:mixed;dominant-baseline:auto;baseline-shift:baseline;text-anchor:start;white-space:normal;shape-padding:0;clip-rule:nonzero;display:inline;overflow:visible;visibility:visible;opacity:1;isolation:auto;mix-blend-mode:normal;color-interpolation:sRGB;color-interpolation-filters:linearRGB;solid-color:#000000;solid-opacity:1;vector-effect:none;fill:#008000;fill-opacity:1;fill-rule:nonzero;stroke:none;stroke-width:1.69052148;stroke-linecap:butt;stroke-linejoin:miter;stroke-miterlimit:4;stroke-dasharray:none;stroke-dashoffset:0;stroke-opacity:1;marker:none;paint-order:normal;color-rendering:auto;image-rendering:auto;shape-rendering:auto;text-rendering:auto;enable-background:accumulate"
         d="m 63.912109,16.076172 c 0.0053,0.0084 0.0073,0.02022 0.01563,0.02539 0.02809,0.01278 0.05184,0.0036 0.08008,0.01953 l -0.08789,-0.04492 z m 26.869141,0 c 0.194604,0.29422 0.370225,0.599842 0.511719,0.921875 0.112793,0.248579 0.203041,0.506272 0.283203,0.767578 h 1.085937 c 1.200106,0 1.859598,0.351211 1.953125,0.46875 0.04677,0.05878 0.04282,0.02883 0.01758,0.136719 -0.02524,0.108044 -0.140268,0.348769 -0.435546,0.648437 l -3.158204,3.205078 c 0.238961,0.494584 0.404297,1.048858 0.404297,1.605469 0,0.140709 -0.01671,0.284728 -0.03711,0.427734 l 3.994141,-4.052734 c 0.439084,-0.445591 0.75503,-0.911223 0.880859,-1.447266 0.125839,-0.536045 -0.0037,-1.150752 -0.34375,-1.578124 -0.680136,-0.854745 -1.820716,-1.103516 -3.275391,-1.103516 z m -9.158203,0.798828 -0.0625,0.07031 c 0.01083,-0.01278 0.02612,-0.02042 0.03711,-0.0332 0.01016,-0.01182 0.0151,-0.02433 0.02539,-0.03711 z m -46.193359,0.300781 c 0.0049,0.0064 0.003,0.01119 0.0078,0.01758 0.0061,0.0064 0.01932,0.0073 0.02539,0.01367 z M 13.453125,25.152344 2.7050781,36.060547 c -0.4391415,0.445646 -0.7531921,0.911092 -0.8789062,1.447265 -0.1257109,0.536177 0.00171,1.144865 0.3417969,1.572266 0.6801805,0.854802 1.8284326,1.105469 3.2832031,1.105469 H 27.339844 c -1.741567,0.773772 -3.096088,1.604108 -5.503906,2.277344 l 0.25,1.660156 c 6.346387,-0.166284 14.309922,-1.422586 20.259765,-3.9375 h 28.222656 c 2.909551,0 6.284674,-1.157093 8.041016,-2.939453 l 9.337891,-9.476563 c -0.259601,0.06802 -0.51958,0.139826 -0.785157,0.179688 -0.632801,0.09488 -1.24473,0.15039 -1.845703,0.15039 -0.02157,0 -0.0429,-0.0018 -0.06445,-0.002 L 77.406253,36.0605 c -1.181171,1.198668 -4.437867,2.433594 -6.837891,2.433594 h -28.49805 l -0.162109,0.07422 c -4.092757,1.765496 -9.293743,2.706909 -14.294922,3.269532 1.470846,-0.608661 3.448701,-1.002634 4.41211,-1.865235 l 1.646484,-1.478515 H 5.4511719 c -1.2000039,0 -1.8651309,-0.34299 -1.9589844,-0.460938 -0.04693,-0.05897 -0.044737,-0.03047 -0.019531,-0.138672 0.025238,-0.108076 0.1422504,-0.348827 0.4375,-0.648437 L 14.613281,26.382812 c -0.07358,-0.05963 -0.151624,-0.112865 -0.222656,-0.175781 l -0.01367,-0.01367 -0.01172,-0.01172 c -0.338789,-0.309748 -0.642533,-0.657638 -0.912109,-1.029297 z"
         transform="matrix(0.31301983,0,0,0.31301983,66.287959,48.796239)"
         id="path1547"
         inkscape:connector-curvature="0" />
      <g
         transform="translate(88.438998,-449.80808)"
         id="g1557">
        <path
           inkscape:connector-curvature="0"
           id="path1402"
           style="font-style:normal;font-variant:normal;font-weight:normal;font-stretch:normal;font-size:6.26091242px;line-height:1.25;font-family:Baloo;-inkscape-font-specification:'Baloo, Normal';font-variant-ligatures:normal;font-variant-caps:normal;font-variant-numeric:normal;font-feature-settings:normal;text-align:start;writing-mode:lr-tb;text-anchor:start;fill:#000000;fill-opacity:1;stroke:none;stroke-width:554.67102051;stroke-linecap:butt;stroke-linejoin:miter;stroke-miterlimit:4;stroke-dasharray:none;stroke-dashoffset:0;stroke-opacity:1;marker:none;marker-start:none;marker-mid:none;marker-end:none;paint-order:normal"
           d="m -14.228318,505.15999 q 0,0.33809 -0.118957,0.61983 -0.112696,0.27549 -0.331828,0.47583 -0.219132,0.19409 -0.532178,0.30053 -0.313046,0.10643 -0.707483,0.10643 -0.394437,0 -0.707483,-0.10643 -0.313046,-0.10644 -0.532178,-0.30053 -0.219132,-0.20034 -0.338089,-0.47583 -0.112696,-0.28174 -0.112696,-0.61983 v -2.39166 q 0.06887,-0.0125 0.219132,-0.0313 0.150261,-0.025 0.288002,-0.025 0.144001,0 0.250436,0.025 0.112696,0.0188 0.187827,0.0751 0.07513,0.0564 0.112697,0.15653 0.03757,0.10017 0.03757,0.26295 v 1.90958 q 0,0.30053 0.162784,0.46957 0.169045,0.16904 0.432003,0.16904 0.269219,0 0.432003,-0.16904 0.162784,-0.16904 0.162784,-0.46957 v -2.37288 q 0.06887,-0.0125 0.219132,-0.0313 0.150262,-0.025 0.288002,-0.025 0.144001,0 0.250436,0.025 0.112696,0.0188 0.187827,0.0751 0.07513,0.0564 0.112697,0.15653 0.03757,0.10017 0.03757,0.26295 z" />
        <path
           inkscape:connector-curvature="0"
           id="path1404"
           style="font-style:normal;font-variant:normal;font-weight:normal;font-stretch:normal;font-size:6.26091242px;line-height:1.25;font-family:Baloo;-inkscape-font-specification:'Baloo, Normal';font-variant-ligatures:normal;font-variant-caps:normal;font-variant-numeric:normal;font-feature-settings:normal;text-align:start;writing-mode:lr-tb;text-anchor:start;fill:#000000;fill-opacity:1;stroke:none;stroke-width:554.67102051;stroke-linecap:butt;stroke-linejoin:miter;stroke-miterlimit:4;stroke-dasharray:none;stroke-dashoffset:0;stroke-opacity:1;marker:none;marker-start:none;marker-mid:none;marker-end:none;paint-order:normal"
           d="m -12.117999,503.42572 q 0.375655,0 0.694961,0.10018 0.325568,0.0939 0.557222,0.29426 0.231653,0.20035 0.363133,0.50713 0.131479,0.30053 0.131479,0.72001 0,0.4007 -0.112697,0.70122 -0.112696,0.30052 -0.319306,0.50713 -0.20661,0.20035 -0.500873,0.30053 -0.288002,0.10017 -0.644874,0.10017 -0.269219,0 -0.500873,-0.0814 v 1.03931 q -0.06261,0.0188 -0.200349,0.0376 -0.137741,0.025 -0.281742,0.025 -0.13774,0 -0.250436,-0.0188 -0.106436,-0.0188 -0.181566,-0.0751 -0.07513,-0.0564 -0.112697,-0.15653 -0.03757,-0.0939 -0.03757,-0.25043 v -3.00524 q 0,-0.16904 0.06887,-0.27548 0.07513,-0.10644 0.200349,-0.19409 0.194088,-0.12522 0.48209,-0.20035 0.288002,-0.0751 0.644874,-0.0751 z m 0.01252,2.39167 q 0.644874,0 0.644874,-0.77009 0,-0.4007 -0.162784,-0.59479 -0.156523,-0.19409 -0.457046,-0.19409 -0.118958,0 -0.212871,0.0313 -0.09391,0.025 -0.162784,0.0626 v 1.3774 q 0.07513,0.0376 0.162784,0.0626 0.08765,0.025 0.187827,0.025 z" />
        <path
           inkscape:connector-curvature="0"
           id="path1406"
           style="font-style:normal;font-variant:normal;font-weight:normal;font-stretch:normal;font-size:6.26091242px;line-height:1.25;font-family:Baloo;-inkscape-font-specification:'Baloo, Normal';font-variant-ligatures:normal;font-variant-caps:normal;font-variant-numeric:normal;font-feature-settings:normal;text-align:start;writing-mode:lr-tb;text-anchor:start;fill:#000000;fill-opacity:1;stroke:none;stroke-width:554.67102051;stroke-linecap:butt;stroke-linejoin:miter;stroke-miterlimit:4;stroke-dasharray:none;stroke-dashoffset:0;stroke-opacity:1;marker:none;marker-start:none;marker-mid:none;marker-end:none;paint-order:normal"
           d="m -8.8096937,505.05356 q -0.2754802,-0.0939 -0.500873,-0.18783 -0.2253929,-0.10017 -0.3881766,-0.23791 -0.1627837,-0.13774 -0.2566974,-0.32557 -0.087652,-0.19409 -0.087652,-0.46957 0,-0.53218 0.4069594,-0.85148 0.4132202,-0.31931 1.1520079,-0.31931 0.2692192,0 0.500873,0.0376 0.2316538,0.0376 0.3944375,0.11895 0.1690446,0.0751 0.2629583,0.20035 0.093914,0.11896 0.093914,0.28174 0,0.16279 -0.075131,0.28174 -0.075131,0.1127 -0.1815664,0.19409 -0.1377401,-0.0876 -0.3693939,-0.15026 -0.2316537,-0.0689 -0.5071339,-0.0689 -0.281741,0 -0.4132202,0.0814 -0.1314791,0.0751 -0.1314791,0.19409 0,0.0939 0.081392,0.15652 0.081392,0.0564 0.2441756,0.10644 l 0.3318284,0.10643 q 0.5885257,0.18783 0.9015713,0.4821 0.3193066,0.288 0.3193066,0.78887 0,0.53218 -0.4194811,0.86401 -0.4194812,0.32556 -1.2333998,0.32556 -0.288002,0 -0.5384385,-0.0501 -0.2441755,-0.0438 -0.4320029,-0.13148 -0.1815665,-0.0939 -0.288002,-0.2254 -0.1001742,-0.13774 -0.1001742,-0.31304 0,-0.18157 0.1064351,-0.30679 0.1064355,-0.13148 0.2316538,-0.20035 0.1753055,0.13774 0.425742,0.23792 0.2566974,0.10017 0.5572212,0.10017 0.3067847,0 0.432003,-0.0939 0.1252182,-0.0939 0.1252182,-0.21913 0,-0.12522 -0.1001746,-0.18783 -0.1001746,-0.0689 -0.281741,-0.13148 z" />
        <path
           inkscape:connector-curvature="0"
           id="path1408"
           style="font-style:normal;font-variant:normal;font-weight:normal;font-stretch:normal;font-size:6.26091242px;line-height:1.25;font-family:Baloo;-inkscape-font-specification:'Baloo, Normal';font-variant-ligatures:normal;font-variant-caps:normal;font-variant-numeric:normal;font-feature-settings:normal;text-align:start;writing-mode:lr-tb;text-anchor:start;fill:#000000;fill-opacity:1;stroke:none;stroke-width:554.67102051;stroke-linecap:butt;stroke-linejoin:miter;stroke-miterlimit:4;stroke-dasharray:none;stroke-dashoffset:0;stroke-opacity:1;marker:none;marker-start:none;marker-mid:none;marker-end:none;paint-order:normal"
           d="m -5.4552141,505.51687 q 0,0.16278 0.1001746,0.23165 0.1064355,0.0689 0.2942629,0.0689 0.093914,0 0.1940883,-0.0125 0.1001746,-0.0188 0.1753055,-0.0438 0.056348,0.0689 0.093914,0.15652 0.043826,0.0814 0.043826,0.20035 0,0.23792 -0.1815665,0.38818 -0.1753055,0.15026 -0.6260912,0.15026 -0.5509603,0 -0.8514841,-0.25043 -0.2942629,-0.25044 -0.2942629,-0.81392 v -2.67967 q 0.06887,-0.0188 0.1940883,-0.0376 0.1314792,-0.025 0.2754802,-0.025 0.2754801,0 0.425742,0.10017 0.1565228,0.0939 0.1565228,0.40696 v 0.4007 h 0.8201795 q 0.037566,0.0689 0.06887,0.17531 0.037566,0.10017 0.037566,0.22539 0,0.21913 -0.1001746,0.31931 -0.093914,0.0939 -0.2566975,0.0939 h -0.569743 z" />
        <path
           inkscape:connector-curvature="0"
           id="path1410"
           style="font-style:normal;font-variant:normal;font-weight:normal;font-stretch:normal;font-size:6.26091242px;line-height:1.25;font-family:Baloo;-inkscape-font-specification:'Baloo, Normal';font-variant-ligatures:normal;font-variant-caps:normal;font-variant-numeric:normal;font-feature-settings:normal;text-align:start;writing-mode:lr-tb;text-anchor:start;fill:#000000;fill-opacity:1;stroke:none;stroke-width:554.67102051;stroke-linecap:butt;stroke-linejoin:miter;stroke-miterlimit:4;stroke-dasharray:none;stroke-dashoffset:0;stroke-opacity:1;marker:none;marker-start:none;marker-mid:none;marker-end:none;paint-order:normal"
           d="m -2.7104892,505.88626 q 0.1064355,0 0.2316537,-0.0188 0.1314792,-0.0251 0.1940883,-0.0626 V 505.304 l -0.4507857,0.0376 q -0.1753055,0.0125 -0.2880019,0.0751 -0.1126965,0.0626 -0.1126965,0.18783 0,0.12522 0.093914,0.20661 0.1001746,0.0751 0.3318284,0.0751 z m -0.050087,-2.46054 q 0.3380892,0 0.6135694,0.0689 0.2817411,0.0689 0.4758293,0.21287 0.2003492,0.13774 0.3067847,0.35687 0.1064356,0.21288 0.1064356,0.50714 v 1.40244 q 0,0.16279 -0.093914,0.26922 -0.087653,0.10018 -0.2128711,0.17531 -0.4069593,0.24417 -1.1457469,0.24417 -0.3318284,0 -0.6010476,-0.0626 -0.2629583,-0.0626 -0.4570466,-0.18782 -0.1878274,-0.12522 -0.2942629,-0.31931 -0.1001746,-0.19409 -0.1001746,-0.45079 0,-0.432 0.2566974,-0.66365 0.2566974,-0.23166 0.7951359,-0.288 l 0.8201795,-0.0877 v -0.0438 q 0,-0.18157 -0.1627837,-0.2567 -0.1565228,-0.0814 -0.4570466,-0.0814 -0.2379147,0 -0.4633075,0.0501 -0.2253929,0.0501 -0.4069593,0.12521 -0.081392,-0.0563 -0.1377401,-0.16904 -0.056348,-0.11896 -0.056348,-0.24418 0,-0.16278 0.075131,-0.25669 0.081392,-0.10018 0.2441756,-0.16905 0.1815665,-0.0689 0.425742,-0.10017 0.2504365,-0.0313 0.4695685,-0.0313 z" />
        <path
           inkscape:connector-curvature="0"
           id="path1412"
           style="font-style:normal;font-variant:normal;font-weight:normal;font-stretch:normal;font-size:6.26091242px;line-height:1.25;font-family:Baloo;-inkscape-font-specification:'Baloo, Normal';font-variant-ligatures:normal;font-variant-caps:normal;font-variant-numeric:normal;font-feature-settings:normal;text-align:start;writing-mode:lr-tb;text-anchor:start;fill:#000000;fill-opacity:1;stroke:none;stroke-width:554.67102051;stroke-linecap:butt;stroke-linejoin:miter;stroke-miterlimit:4;stroke-dasharray:none;stroke-dashoffset:0;stroke-opacity:1;marker:none;marker-start:none;marker-mid:none;marker-end:none;paint-order:normal"
           d="m 0.88278511,503.42572 q 0.35687199,0 0.64487399,0.0939 0.2942629,0.0876 0.4946121,0.23165 0.1252182,0.0876 0.1940883,0.19409 0.075131,0.10643 0.075131,0.27548 v 2.19132 q 0,0.33183 -0.1252182,0.56974 -0.1252183,0.24418 -0.3443502,0.4007 -0.212871,0.16278 -0.5071339,0.23791 -0.288002,0.0751 -0.61983036,0.0751 -0.56974303,0 -0.89531048,-0.15652 -0.32556744,-0.15026 -0.32556744,-0.49461 0,-0.144 0.0563482,-0.2567 0.0626091,-0.10643 0.13774007,-0.16278 0.18156646,0.10017 0.40695931,0.16904 0.23165376,0.0689 0.47582934,0.0689 0.33808928,0 0.53843846,-0.11269 0.2003492,-0.1127 0.2003492,-0.36314 v -0.10017 q -0.2566974,0.1127 -0.62609123,0.1127 -0.28174106,0 -0.53843847,-0.0814 -0.2504365,-0.0876 -0.44452478,-0.26295 -0.18782737,-0.18157 -0.30678471,-0.46331 -0.11269642,-0.28174 -0.11269642,-0.66992 0,-0.38192 0.11895733,-0.66366 0.12521825,-0.28174 0.33808927,-0.4633 0.21913194,-0.18783 0.51339482,-0.27548 0.3005238,-0.0939 0.6511348,-0.0939 z m 0.38817659,0.90783 q -0.043826,-0.025 -0.1314792,-0.0501 -0.081392,-0.0251 -0.20661009,-0.0251 -0.30678471,0 -0.46330752,0.17531 -0.15026189,0.16904 -0.15026189,0.48835 0,0.36313 0.15026189,0.52592 0.15652281,0.15652 0.39443749,0.15652 0.25669742,0 0.40695932,-0.11896 z" />
        <path
           inkscape:connector-curvature="0"
           id="path1414"
           style="font-style:normal;font-variant:normal;font-weight:normal;font-stretch:normal;font-size:6.26091242px;line-height:1.25;font-family:Baloo;-inkscape-font-specification:'Baloo, Normal';font-variant-ligatures:normal;font-variant-caps:normal;font-variant-numeric:normal;font-feature-settings:normal;text-align:start;writing-mode:lr-tb;text-anchor:start;fill:#000000;fill-opacity:1;stroke:none;stroke-width:554.67102051;stroke-linecap:butt;stroke-linejoin:miter;stroke-miterlimit:4;stroke-dasharray:none;stroke-dashoffset:0;stroke-opacity:1;marker:none;marker-start:none;marker-mid:none;marker-end:none;paint-order:normal"
           d="m 4.5542241,506.66261 q -0.3693938,0 -0.6887003,-0.10017 -0.3130456,-0.10644 -0.5509603,-0.31305 -0.2316538,-0.20661 -0.3693939,-0.51965 -0.1314791,-0.31305 -0.1314791,-0.73253 0,-0.41322 0.1314791,-0.70748 0.1377401,-0.30053 0.3568721,-0.48835 0.2191319,-0.19409 0.500873,-0.28174 0.281741,-0.0939 0.5760039,-0.0939 0.3318284,0 0.6010476,0.10018 0.2754801,0.10017 0.4695684,0.27548 0.2003492,0.1753 0.3067847,0.41948 0.1126964,0.24417 0.1126964,0.53218 0,0.21287 -0.1189573,0.32556 -0.1189573,0.1127 -0.3318283,0.144 l -1.5464454,0.23166 q 0.06887,0.20661 0.281741,0.31304 0.2128711,0.10018 0.4883512,0.10018 0.2566974,0 0.4820903,-0.0626 0.2316537,-0.0689 0.3756547,-0.15652 0.1001746,0.0626 0.1690447,0.1753 0.06887,0.1127 0.06887,0.23792 0,0.28174 -0.2629583,0.41948 -0.2003492,0.10643 -0.4507857,0.144 -0.2504365,0.0376 -0.4695685,0.0376 z m -0.1753055,-2.46054 q -0.1502619,0 -0.2629583,0.0501 -0.1064355,0.0501 -0.1753056,0.13148 -0.06887,0.0751 -0.1064355,0.17531 -0.031305,0.0939 -0.037566,0.19409 l 1.0706161,-0.17531 q -0.018783,-0.12522 -0.1377401,-0.25044 -0.1189573,-0.12522 -0.3506111,-0.12522 z" />
      </g>
    </g>
  </g>
</svg>
